G04 #@! TF.GenerationSoftware,KiCad,Pcbnew,5.1.5+dfsg1-2build2*
G04 #@! TF.CreationDate,2024-07-20T11:36:23-04:00*
G04 #@! TF.ProjectId,pypilot_controller,70797069-6c6f-4745-9f63-6f6e74726f6c,rev?*
G04 #@! TF.SameCoordinates,Original*
G04 #@! TF.FileFunction,Legend,Top*
G04 #@! TF.FilePolarity,Positive*
%FSLAX46Y46*%
G04 Gerber Fmt 4.6, Leading zero omitted, Abs format (unit mm)*
G04 Created by KiCad (PCBNEW 5.1.5+dfsg1-2build2) date 2024-07-20 11:36:23*
%MOMM*%
%LPD*%
G04 APERTURE LIST*
%ADD10C,0.150000*%
%ADD11C,0.200000*%
%ADD12C,0.180000*%
%ADD13C,0.120000*%
%ADD14C,0.127000*%
%ADD15C,0.100000*%
%ADD16C,0.203200*%
%ADD17C,0.074930*%
%ADD18C,0.076200*%
G04 APERTURE END LIST*
D10*
X4557142Y-17021428D02*
X4604761Y-17069047D01*
X4652380Y-17211904D01*
X4652380Y-17307142D01*
X4604761Y-17450000D01*
X4509523Y-17545238D01*
X4414285Y-17592857D01*
X4223809Y-17640476D01*
X4080952Y-17640476D01*
X3890476Y-17592857D01*
X3795238Y-17545238D01*
X3700000Y-17450000D01*
X3652380Y-17307142D01*
X3652380Y-17211904D01*
X3700000Y-17069047D01*
X3747619Y-17021428D01*
X4652380Y-16450000D02*
X4604761Y-16545238D01*
X4509523Y-16592857D01*
X3652380Y-16592857D01*
X3985714Y-15640476D02*
X4652380Y-15640476D01*
X3985714Y-16069047D02*
X4509523Y-16069047D01*
X4604761Y-16021428D01*
X4652380Y-15926190D01*
X4652380Y-15783333D01*
X4604761Y-15688095D01*
X4557142Y-15640476D01*
X3985714Y-15307142D02*
X3985714Y-14926190D01*
X3652380Y-15164285D02*
X4509523Y-15164285D01*
X4604761Y-15116666D01*
X4652380Y-15021428D01*
X4652380Y-14926190D01*
X4604761Y-14164285D02*
X4652380Y-14259523D01*
X4652380Y-14450000D01*
X4604761Y-14545238D01*
X4557142Y-14592857D01*
X4461904Y-14640476D01*
X4176190Y-14640476D01*
X4080952Y-14592857D01*
X4033333Y-14545238D01*
X3985714Y-14450000D01*
X3985714Y-14259523D01*
X4033333Y-14164285D01*
X4652380Y-13735714D02*
X3652380Y-13735714D01*
X4652380Y-13307142D02*
X4128571Y-13307142D01*
X4033333Y-13354761D01*
X3985714Y-13450000D01*
X3985714Y-13592857D01*
X4033333Y-13688095D01*
X4080952Y-13735714D01*
X43835714Y-50952380D02*
X43835714Y-49952380D01*
X44169047Y-50666666D01*
X44502380Y-49952380D01*
X44502380Y-50952380D01*
X45121428Y-50952380D02*
X45026190Y-50904761D01*
X44978571Y-50857142D01*
X44930952Y-50761904D01*
X44930952Y-50476190D01*
X44978571Y-50380952D01*
X45026190Y-50333333D01*
X45121428Y-50285714D01*
X45264285Y-50285714D01*
X45359523Y-50333333D01*
X45407142Y-50380952D01*
X45454761Y-50476190D01*
X45454761Y-50761904D01*
X45407142Y-50857142D01*
X45359523Y-50904761D01*
X45264285Y-50952380D01*
X45121428Y-50952380D01*
X45740476Y-50285714D02*
X46121428Y-50285714D01*
X45883333Y-49952380D02*
X45883333Y-50809523D01*
X45930952Y-50904761D01*
X46026190Y-50952380D01*
X46121428Y-50952380D01*
X46597619Y-50952380D02*
X46502380Y-50904761D01*
X46454761Y-50857142D01*
X46407142Y-50761904D01*
X46407142Y-50476190D01*
X46454761Y-50380952D01*
X46502380Y-50333333D01*
X46597619Y-50285714D01*
X46740476Y-50285714D01*
X46835714Y-50333333D01*
X46883333Y-50380952D01*
X46930952Y-50476190D01*
X46930952Y-50761904D01*
X46883333Y-50857142D01*
X46835714Y-50904761D01*
X46740476Y-50952380D01*
X46597619Y-50952380D01*
X47359523Y-50952380D02*
X47359523Y-50285714D01*
X47359523Y-50476190D02*
X47407142Y-50380952D01*
X47454761Y-50333333D01*
X47550000Y-50285714D01*
X47645238Y-50285714D01*
X49073809Y-50428571D02*
X49216666Y-50476190D01*
X49264285Y-50523809D01*
X49311904Y-50619047D01*
X49311904Y-50761904D01*
X49264285Y-50857142D01*
X49216666Y-50904761D01*
X49121428Y-50952380D01*
X48740476Y-50952380D01*
X48740476Y-49952380D01*
X49073809Y-49952380D01*
X49169047Y-50000000D01*
X49216666Y-50047619D01*
X49264285Y-50142857D01*
X49264285Y-50238095D01*
X49216666Y-50333333D01*
X49169047Y-50380952D01*
X49073809Y-50428571D01*
X48740476Y-50428571D01*
X33407142Y-51002380D02*
X33407142Y-50002380D01*
X33740476Y-50716666D01*
X34073809Y-50002380D01*
X34073809Y-51002380D01*
X34692857Y-51002380D02*
X34597619Y-50954761D01*
X34550000Y-50907142D01*
X34502380Y-50811904D01*
X34502380Y-50526190D01*
X34550000Y-50430952D01*
X34597619Y-50383333D01*
X34692857Y-50335714D01*
X34835714Y-50335714D01*
X34930952Y-50383333D01*
X34978571Y-50430952D01*
X35026190Y-50526190D01*
X35026190Y-50811904D01*
X34978571Y-50907142D01*
X34930952Y-50954761D01*
X34835714Y-51002380D01*
X34692857Y-51002380D01*
X35311904Y-50335714D02*
X35692857Y-50335714D01*
X35454761Y-50002380D02*
X35454761Y-50859523D01*
X35502380Y-50954761D01*
X35597619Y-51002380D01*
X35692857Y-51002380D01*
X36169047Y-51002380D02*
X36073809Y-50954761D01*
X36026190Y-50907142D01*
X35978571Y-50811904D01*
X35978571Y-50526190D01*
X36026190Y-50430952D01*
X36073809Y-50383333D01*
X36169047Y-50335714D01*
X36311904Y-50335714D01*
X36407142Y-50383333D01*
X36454761Y-50430952D01*
X36502380Y-50526190D01*
X36502380Y-50811904D01*
X36454761Y-50907142D01*
X36407142Y-50954761D01*
X36311904Y-51002380D01*
X36169047Y-51002380D01*
X36930952Y-51002380D02*
X36930952Y-50335714D01*
X36930952Y-50526190D02*
X36978571Y-50430952D01*
X37026190Y-50383333D01*
X37121428Y-50335714D01*
X37216666Y-50335714D01*
X38264285Y-50716666D02*
X38740476Y-50716666D01*
X38169047Y-51002380D02*
X38502380Y-50002380D01*
X38835714Y-51002380D01*
X23047619Y-51052380D02*
X23047619Y-50052380D01*
X23428571Y-50052380D01*
X23523809Y-50100000D01*
X23571428Y-50147619D01*
X23619047Y-50242857D01*
X23619047Y-50385714D01*
X23571428Y-50480952D01*
X23523809Y-50528571D01*
X23428571Y-50576190D01*
X23047619Y-50576190D01*
X23952380Y-50052380D02*
X24190476Y-51052380D01*
X24380952Y-50338095D01*
X24571428Y-51052380D01*
X24809523Y-50052380D01*
X25761904Y-51052380D02*
X25428571Y-50576190D01*
X25190476Y-51052380D02*
X25190476Y-50052380D01*
X25571428Y-50052380D01*
X25666666Y-50100000D01*
X25714285Y-50147619D01*
X25761904Y-50242857D01*
X25761904Y-50385714D01*
X25714285Y-50480952D01*
X25666666Y-50528571D01*
X25571428Y-50576190D01*
X25190476Y-50576190D01*
X26190476Y-50671428D02*
X26952380Y-50671428D01*
X12647619Y-50702380D02*
X12647619Y-49702380D01*
X13028571Y-49702380D01*
X13123809Y-49750000D01*
X13171428Y-49797619D01*
X13219047Y-49892857D01*
X13219047Y-50035714D01*
X13171428Y-50130952D01*
X13123809Y-50178571D01*
X13028571Y-50226190D01*
X12647619Y-50226190D01*
X13552380Y-49702380D02*
X13790476Y-50702380D01*
X13980952Y-49988095D01*
X14171428Y-50702380D01*
X14409523Y-49702380D01*
X15361904Y-50702380D02*
X15028571Y-50226190D01*
X14790476Y-50702380D02*
X14790476Y-49702380D01*
X15171428Y-49702380D01*
X15266666Y-49750000D01*
X15314285Y-49797619D01*
X15361904Y-49892857D01*
X15361904Y-50035714D01*
X15314285Y-50130952D01*
X15266666Y-50178571D01*
X15171428Y-50226190D01*
X14790476Y-50226190D01*
X15790476Y-50321428D02*
X16552380Y-50321428D01*
X16171428Y-50702380D02*
X16171428Y-49940476D01*
D11*
X77776180Y-23457914D02*
X77299990Y-23791247D01*
X77776180Y-24029342D02*
X76776180Y-24029342D01*
X76776180Y-23648390D01*
X76823800Y-23553152D01*
X76871419Y-23505533D01*
X76966657Y-23457914D01*
X77109514Y-23457914D01*
X77204752Y-23505533D01*
X77252371Y-23553152D01*
X77299990Y-23648390D01*
X77299990Y-24029342D01*
X77109514Y-22600771D02*
X77776180Y-22600771D01*
X77109514Y-23029342D02*
X77633323Y-23029342D01*
X77728561Y-22981723D01*
X77776180Y-22886485D01*
X77776180Y-22743628D01*
X77728561Y-22648390D01*
X77680942Y-22600771D01*
X77776180Y-21696009D02*
X76776180Y-21696009D01*
X77728561Y-21696009D02*
X77776180Y-21791247D01*
X77776180Y-21981723D01*
X77728561Y-22076961D01*
X77680942Y-22124580D01*
X77585704Y-22172200D01*
X77299990Y-22172200D01*
X77204752Y-22124580D01*
X77157133Y-22076961D01*
X77109514Y-21981723D01*
X77109514Y-21791247D01*
X77157133Y-21696009D01*
X77776180Y-20791247D02*
X76776180Y-20791247D01*
X77728561Y-20791247D02*
X77776180Y-20886485D01*
X77776180Y-21076961D01*
X77728561Y-21172200D01*
X77680942Y-21219819D01*
X77585704Y-21267438D01*
X77299990Y-21267438D01*
X77204752Y-21219819D01*
X77157133Y-21172200D01*
X77109514Y-21076961D01*
X77109514Y-20886485D01*
X77157133Y-20791247D01*
X77728561Y-19934104D02*
X77776180Y-20029342D01*
X77776180Y-20219819D01*
X77728561Y-20315057D01*
X77633323Y-20362676D01*
X77252371Y-20362676D01*
X77157133Y-20315057D01*
X77109514Y-20219819D01*
X77109514Y-20029342D01*
X77157133Y-19934104D01*
X77252371Y-19886485D01*
X77347609Y-19886485D01*
X77442847Y-20362676D01*
X77776180Y-19457914D02*
X77109514Y-19457914D01*
X77299990Y-19457914D02*
X77204752Y-19410295D01*
X77157133Y-19362676D01*
X77109514Y-19267438D01*
X77109514Y-19172200D01*
D12*
X73025742Y-7263314D02*
X72125742Y-7263314D01*
X72768600Y-6963314D01*
X72125742Y-6663314D01*
X73025742Y-6663314D01*
X73025742Y-6106171D02*
X72982885Y-6191885D01*
X72940028Y-6234742D01*
X72854314Y-6277600D01*
X72597171Y-6277600D01*
X72511457Y-6234742D01*
X72468600Y-6191885D01*
X72425742Y-6106171D01*
X72425742Y-5977600D01*
X72468600Y-5891885D01*
X72511457Y-5849028D01*
X72597171Y-5806171D01*
X72854314Y-5806171D01*
X72940028Y-5849028D01*
X72982885Y-5891885D01*
X73025742Y-5977600D01*
X73025742Y-6106171D01*
X72425742Y-5549028D02*
X72425742Y-5206171D01*
X72125742Y-5420457D02*
X72897171Y-5420457D01*
X72982885Y-5377600D01*
X73025742Y-5291885D01*
X73025742Y-5206171D01*
X73025742Y-4777600D02*
X72982885Y-4863314D01*
X72940028Y-4906171D01*
X72854314Y-4949028D01*
X72597171Y-4949028D01*
X72511457Y-4906171D01*
X72468600Y-4863314D01*
X72425742Y-4777600D01*
X72425742Y-4649028D01*
X72468600Y-4563314D01*
X72511457Y-4520457D01*
X72597171Y-4477600D01*
X72854314Y-4477600D01*
X72940028Y-4520457D01*
X72982885Y-4563314D01*
X73025742Y-4649028D01*
X73025742Y-4777600D01*
X73025742Y-4091885D02*
X72425742Y-4091885D01*
X72597171Y-4091885D02*
X72511457Y-4049028D01*
X72468600Y-4006171D01*
X72425742Y-3920457D01*
X72425742Y-3834742D01*
X72125742Y-2977600D02*
X72125742Y-2463314D01*
X73025742Y-2720457D02*
X72125742Y-2720457D01*
D11*
X77373171Y-15306228D02*
X77373171Y-14972895D01*
X77896980Y-14830038D02*
X77896980Y-15306228D01*
X76896980Y-15306228D01*
X76896980Y-14830038D01*
X77230314Y-14401466D02*
X77896980Y-14401466D01*
X77325552Y-14401466D02*
X77277933Y-14353847D01*
X77230314Y-14258609D01*
X77230314Y-14115752D01*
X77277933Y-14020514D01*
X77373171Y-13972895D01*
X77896980Y-13972895D01*
X77896980Y-13068133D02*
X76896980Y-13068133D01*
X77849361Y-13068133D02*
X77896980Y-13163371D01*
X77896980Y-13353847D01*
X77849361Y-13449085D01*
X77801742Y-13496704D01*
X77706504Y-13544323D01*
X77420790Y-13544323D01*
X77325552Y-13496704D01*
X77277933Y-13449085D01*
X77230314Y-13353847D01*
X77230314Y-13163371D01*
X77277933Y-13068133D01*
X77849361Y-11877657D02*
X77896980Y-11734800D01*
X77896980Y-11496704D01*
X77849361Y-11401466D01*
X77801742Y-11353847D01*
X77706504Y-11306228D01*
X77611266Y-11306228D01*
X77516028Y-11353847D01*
X77468409Y-11401466D01*
X77420790Y-11496704D01*
X77373171Y-11687180D01*
X77325552Y-11782419D01*
X77277933Y-11830038D01*
X77182695Y-11877657D01*
X77087457Y-11877657D01*
X76992219Y-11830038D01*
X76944600Y-11782419D01*
X76896980Y-11687180D01*
X76896980Y-11449085D01*
X76944600Y-11306228D01*
X77230314Y-11020514D02*
X77230314Y-10639561D01*
X76896980Y-10877657D02*
X77754123Y-10877657D01*
X77849361Y-10830038D01*
X77896980Y-10734800D01*
X77896980Y-10639561D01*
X77896980Y-10163371D02*
X77849361Y-10258609D01*
X77801742Y-10306228D01*
X77706504Y-10353847D01*
X77420790Y-10353847D01*
X77325552Y-10306228D01*
X77277933Y-10258609D01*
X77230314Y-10163371D01*
X77230314Y-10020514D01*
X77277933Y-9925276D01*
X77325552Y-9877657D01*
X77420790Y-9830038D01*
X77706504Y-9830038D01*
X77801742Y-9877657D01*
X77849361Y-9925276D01*
X77896980Y-10020514D01*
X77896980Y-10163371D01*
X77230314Y-9401466D02*
X78230314Y-9401466D01*
X77277933Y-9401466D02*
X77230314Y-9306228D01*
X77230314Y-9115752D01*
X77277933Y-9020514D01*
X77325552Y-8972895D01*
X77420790Y-8925276D01*
X77706504Y-8925276D01*
X77801742Y-8972895D01*
X77849361Y-9020514D01*
X77896980Y-9115752D01*
X77896980Y-9306228D01*
X77849361Y-9401466D01*
X77849361Y-8544323D02*
X77896980Y-8449085D01*
X77896980Y-8258609D01*
X77849361Y-8163371D01*
X77754123Y-8115752D01*
X77706504Y-8115752D01*
X77611266Y-8163371D01*
X77563647Y-8258609D01*
X77563647Y-8401466D01*
X77516028Y-8496704D01*
X77420790Y-8544323D01*
X77373171Y-8544323D01*
X77277933Y-8496704D01*
X77230314Y-8401466D01*
X77230314Y-8258609D01*
X77277933Y-8163371D01*
D13*
X47377522Y-11570000D02*
X47894678Y-11570000D01*
X47377522Y-12990000D02*
X47894678Y-12990000D01*
X69637400Y-16934922D02*
X69637400Y-17452078D01*
X71057400Y-16934922D02*
X71057400Y-17452078D01*
X52837400Y-18535922D02*
X52837400Y-19053078D01*
X54257400Y-18535922D02*
X54257400Y-19053078D01*
X30758200Y-7005822D02*
X30758200Y-7522978D01*
X29338200Y-7005822D02*
X29338200Y-7522978D01*
X42026200Y-7264522D02*
X42026200Y-7781678D01*
X40606200Y-7264522D02*
X40606200Y-7781678D01*
X38637600Y-24172536D02*
X38637600Y-25376664D01*
X40457600Y-24172536D02*
X40457600Y-25376664D01*
X38107600Y-24197536D02*
X38107600Y-25401664D01*
X36287600Y-24197536D02*
X36287600Y-25401664D01*
X65558600Y-3246622D02*
X65558600Y-3763778D01*
X66978600Y-3246622D02*
X66978600Y-3763778D01*
X65434800Y-8171264D02*
X65434800Y-6967136D01*
X67254800Y-8171264D02*
X67254800Y-6967136D01*
X50837400Y-16535922D02*
X50837400Y-17053078D01*
X52257400Y-16535922D02*
X52257400Y-17053078D01*
X69673400Y-13896078D02*
X69673400Y-13378922D01*
X71093400Y-13896078D02*
X71093400Y-13378922D01*
D10*
X8550000Y-44140000D02*
X3550000Y-44140000D01*
X8650000Y-24840000D02*
X8650000Y-44040000D01*
X3650000Y-24840000D02*
X8650000Y-24840000D01*
X3650000Y-44040000D02*
X3650000Y-24840000D01*
X9150000Y-44440000D02*
X3150000Y-44440000D01*
X9150000Y-24440000D02*
X9150000Y-44440000D01*
X3150000Y-24440000D02*
X9150000Y-24440000D01*
X3150000Y-44440000D02*
X3150000Y-24440000D01*
X6150000Y-34140000D02*
X6150000Y-34740000D01*
D13*
X76387000Y-24901200D02*
X75057000Y-24901200D01*
X76387000Y-23571200D02*
X76387000Y-24901200D01*
X76387000Y-22301200D02*
X73727000Y-22301200D01*
X73727000Y-22301200D02*
X73727000Y-17161200D01*
X76387000Y-22301200D02*
X76387000Y-17161200D01*
X76387000Y-17161200D02*
X73727000Y-17161200D01*
X76412400Y-7915600D02*
X73752400Y-7915600D01*
X76412400Y-13055600D02*
X76412400Y-7915600D01*
X73752400Y-13055600D02*
X73752400Y-7915600D01*
X76412400Y-13055600D02*
X73752400Y-13055600D01*
X76412400Y-14325600D02*
X76412400Y-15655600D01*
X76412400Y-15655600D02*
X75082400Y-15655600D01*
X71499800Y-2578800D02*
X68839800Y-2578800D01*
X71499800Y-5178800D02*
X71499800Y-2578800D01*
X68839800Y-5178800D02*
X68839800Y-2578800D01*
X71499800Y-5178800D02*
X68839800Y-5178800D01*
X71499800Y-6448800D02*
X71499800Y-7778800D01*
X71499800Y-7778800D02*
X70169800Y-7778800D01*
X50438800Y-2990400D02*
X50438800Y-5675400D01*
X50438800Y-5675400D02*
X52358800Y-5675400D01*
X52358800Y-5675400D02*
X52358800Y-2990400D01*
X12260664Y-5253400D02*
X11056536Y-5253400D01*
X12260664Y-3433400D02*
X11056536Y-3433400D01*
X52677322Y-24332000D02*
X53194478Y-24332000D01*
X52677322Y-22912000D02*
X53194478Y-22912000D01*
X70861422Y-10184200D02*
X71378578Y-10184200D01*
X70861422Y-8764200D02*
X71378578Y-8764200D01*
X54464478Y-26364000D02*
X53947322Y-26364000D01*
X54464478Y-24944000D02*
X53947322Y-24944000D01*
X70861422Y-24179600D02*
X71378578Y-24179600D01*
X70861422Y-22759600D02*
X71378578Y-22759600D01*
X59068478Y-26142000D02*
X58551322Y-26142000D01*
X59068478Y-24722000D02*
X58551322Y-24722000D01*
X28731978Y-11304200D02*
X28214822Y-11304200D01*
X28731978Y-12724200D02*
X28214822Y-12724200D01*
X24481022Y-11278800D02*
X24998178Y-11278800D01*
X24481022Y-12698800D02*
X24998178Y-12698800D01*
X40717400Y-12094978D02*
X40717400Y-11577822D01*
X42137400Y-12094978D02*
X42137400Y-11577822D01*
X37926778Y-11532800D02*
X37409622Y-11532800D01*
X37926778Y-12952800D02*
X37409622Y-12952800D01*
X50688800Y-7219322D02*
X50688800Y-7736478D01*
X52108800Y-7219322D02*
X52108800Y-7736478D01*
X46108800Y-7219322D02*
X46108800Y-7736478D01*
X44688800Y-7219322D02*
X44688800Y-7736478D01*
X27071078Y-27360000D02*
X26553922Y-27360000D01*
X27071078Y-25940000D02*
X26553922Y-25940000D01*
D14*
X44177000Y-37475000D02*
X43067020Y-37475000D01*
X44177000Y-37157500D02*
X44019520Y-37000020D01*
X44177000Y-37475000D02*
X44177000Y-37157500D01*
X44177000Y-37792500D02*
X44334480Y-37949980D01*
X44177000Y-37475000D02*
X44177000Y-37792500D01*
X44812000Y-37000020D02*
X44177000Y-37475000D01*
X44812000Y-37475000D02*
X44812000Y-37000020D01*
X44812000Y-37949980D02*
X44812000Y-37475000D01*
X44177000Y-37475000D02*
X44812000Y-37949980D01*
X46336000Y-38745000D02*
X46336000Y-39380000D01*
X41764000Y-35570000D02*
X41764000Y-36205000D01*
X46336000Y-35570000D02*
X41764000Y-35570000D01*
X46336000Y-36205000D02*
X46336000Y-35570000D01*
X43059400Y-35570000D02*
X43059400Y-39380000D01*
X43389600Y-35570000D02*
X43389600Y-39380000D01*
X41764000Y-39380000D02*
X41764000Y-38745000D01*
X46336000Y-39380000D02*
X41764000Y-39380000D01*
X44812000Y-37475000D02*
X45015200Y-37475000D01*
D13*
X65535400Y-12866000D02*
X65535400Y-18616000D01*
X65535400Y-18616000D02*
X69135400Y-18616000D01*
X69135400Y-18616000D02*
X69135400Y-12866000D01*
X69737400Y-20984978D02*
X69737400Y-20467822D01*
X71157400Y-20984978D02*
X71157400Y-20467822D01*
D15*
X26201580Y-2508920D02*
X26201580Y-2968660D01*
X26201580Y-2968660D02*
X26125380Y-2968660D01*
X26125380Y-2968660D02*
X26125380Y-2508920D01*
X26125380Y-2508920D02*
X26201580Y-2508920D01*
X26201580Y-5310540D02*
X26201580Y-4845720D01*
X26201580Y-4845720D02*
X26125380Y-4845720D01*
X26125380Y-4845720D02*
X26125380Y-5310540D01*
X26125380Y-5310540D02*
X26201580Y-5310540D01*
X22511400Y-2511000D02*
X22911400Y-2511000D01*
X22511400Y-2511000D02*
X22511400Y-2911000D01*
X27011400Y-2511000D02*
X26611400Y-2511000D01*
X27011400Y-2511000D02*
X27011400Y-2911000D01*
X27011400Y-5311000D02*
X27011400Y-4911000D01*
X27011400Y-5311000D02*
X26611400Y-5311000D01*
X22511400Y-5311000D02*
X22911400Y-5311000D01*
X22511400Y-5311000D02*
X22511400Y-4911000D01*
X40124380Y-2433320D02*
X40124380Y-2893060D01*
X40124380Y-2893060D02*
X40048180Y-2893060D01*
X40048180Y-2893060D02*
X40048180Y-2433320D01*
X40048180Y-2433320D02*
X40124380Y-2433320D01*
X40124380Y-5234940D02*
X40124380Y-4770120D01*
X40124380Y-4770120D02*
X40048180Y-4770120D01*
X40048180Y-4770120D02*
X40048180Y-5234940D01*
X40048180Y-5234940D02*
X40124380Y-5234940D01*
X36434200Y-2435400D02*
X36834200Y-2435400D01*
X36434200Y-2435400D02*
X36434200Y-2835400D01*
X40934200Y-2435400D02*
X40534200Y-2435400D01*
X40934200Y-2435400D02*
X40934200Y-2835400D01*
X40934200Y-5235400D02*
X40934200Y-4835400D01*
X40934200Y-5235400D02*
X40534200Y-5235400D01*
X36434200Y-5235400D02*
X36834200Y-5235400D01*
X36434200Y-5235400D02*
X36434200Y-4835400D01*
D13*
X46438800Y-2990400D02*
X46438800Y-5675400D01*
X46438800Y-5675400D02*
X48358800Y-5675400D01*
X48358800Y-5675400D02*
X48358800Y-2990400D01*
X51694678Y-13040000D02*
X51177522Y-13040000D01*
X51694678Y-11620000D02*
X51177522Y-11620000D01*
X48438800Y-3002900D02*
X48438800Y-5687900D01*
X48438800Y-5687900D02*
X50358800Y-5687900D01*
X50358800Y-5687900D02*
X50358800Y-3002900D01*
X46688800Y-7244322D02*
X46688800Y-7761478D01*
X48108800Y-7244322D02*
X48108800Y-7761478D01*
X50108800Y-7219322D02*
X50108800Y-7736478D01*
X48688800Y-7219322D02*
X48688800Y-7736478D01*
X19423464Y-4770800D02*
X18219336Y-4770800D01*
X19423464Y-2950800D02*
X18219336Y-2950800D01*
X32580664Y-2722200D02*
X31376536Y-2722200D01*
X32580664Y-4542200D02*
X31376536Y-4542200D01*
X17997936Y-27740000D02*
X19202064Y-27740000D01*
X17997936Y-29560000D02*
X19202064Y-29560000D01*
X53194478Y-20880000D02*
X52677322Y-20880000D01*
X53194478Y-22300000D02*
X52677322Y-22300000D01*
X67252322Y-19102000D02*
X67769478Y-19102000D01*
X67252322Y-20522000D02*
X67769478Y-20522000D01*
X44663800Y-3177900D02*
X44663800Y-5462900D01*
X44663800Y-5462900D02*
X46133800Y-5462900D01*
X46133800Y-5462900D02*
X46133800Y-3177900D01*
X57506800Y-43616378D02*
X57506800Y-43099222D01*
X58926800Y-43616378D02*
X58926800Y-43099222D01*
X70605122Y-46076800D02*
X71122278Y-46076800D01*
X70605122Y-47496800D02*
X71122278Y-47496800D01*
X63450400Y-41270422D02*
X63450400Y-41787578D01*
X64870400Y-41270422D02*
X64870400Y-41787578D01*
X59237378Y-39574400D02*
X58720222Y-39574400D01*
X59237378Y-40994400D02*
X58720222Y-40994400D01*
X63241422Y-28373000D02*
X63758578Y-28373000D01*
X63241422Y-29793000D02*
X63758578Y-29793000D01*
D16*
X59356800Y-50190400D02*
X58086800Y-50190400D01*
X58086800Y-50190400D02*
X57451800Y-49555400D01*
X57451800Y-48285400D02*
X58086800Y-47650400D01*
X63031800Y-49555400D02*
X62396800Y-50190400D01*
X62396800Y-50190400D02*
X61126800Y-50190400D01*
X61126800Y-50190400D02*
X60491800Y-49555400D01*
X60491800Y-48285400D02*
X61126800Y-47650400D01*
X61126800Y-47650400D02*
X62396800Y-47650400D01*
X62396800Y-47650400D02*
X63031800Y-48285400D01*
X59356800Y-50190400D02*
X59991800Y-49555400D01*
X59991800Y-48285400D02*
X59356800Y-47650400D01*
X58086800Y-47650400D02*
X59356800Y-47650400D01*
X68376800Y-50190400D02*
X67106800Y-50190400D01*
X67106800Y-50190400D02*
X66471800Y-49555400D01*
X66471800Y-48285400D02*
X67106800Y-47650400D01*
X65971800Y-49555400D02*
X65336800Y-50190400D01*
X65336800Y-50190400D02*
X64066800Y-50190400D01*
X64066800Y-50190400D02*
X63431800Y-49555400D01*
X63431800Y-48285400D02*
X64066800Y-47650400D01*
X64066800Y-47650400D02*
X65336800Y-47650400D01*
X65336800Y-47650400D02*
X65971800Y-48285400D01*
X69011800Y-49555400D02*
X69011800Y-48285400D01*
X68376800Y-50190400D02*
X69011800Y-49555400D01*
X69011800Y-48285400D02*
X68376800Y-47650400D01*
X67106800Y-47650400D02*
X68376800Y-47650400D01*
X57451800Y-49555400D02*
X57451800Y-48285400D01*
X60491800Y-48285400D02*
X59991800Y-48285400D01*
X59991800Y-49555400D02*
X60491800Y-49555400D01*
X63031800Y-49555400D02*
X63431800Y-49555400D01*
X63031800Y-48285400D02*
X63431800Y-48285400D01*
X65971800Y-48285400D02*
X66471800Y-48285400D01*
X66471800Y-49555400D02*
X65971800Y-49555400D01*
D10*
X26855100Y-27825700D02*
X35046600Y-27762200D01*
X26855100Y-30302200D02*
X26855100Y-27825700D01*
X35046600Y-30302200D02*
X26855100Y-30302200D01*
X26791600Y-29032200D02*
X25521600Y-29032200D01*
X35046600Y-29032200D02*
X37586600Y-29032200D01*
X35046600Y-27762200D02*
X35046600Y-30302200D01*
D13*
X62798600Y-44139400D02*
X62798600Y-41689400D01*
X59578600Y-42339400D02*
X59578600Y-44139400D01*
X72172400Y-42255800D02*
X70372400Y-42255800D01*
X70372400Y-45475800D02*
X72822400Y-45475800D01*
X68691400Y-42124200D02*
X68691400Y-40324200D01*
X65471400Y-40324200D02*
X65471400Y-42774200D01*
X61309000Y-37070600D02*
X61159000Y-37070600D01*
X61309000Y-32270600D02*
X61309000Y-37070600D01*
X61159000Y-32270600D02*
X61309000Y-32270600D01*
X57309000Y-32270600D02*
X57459000Y-32270600D01*
X57309000Y-37070600D02*
X57309000Y-32270600D01*
X57459000Y-37070600D02*
X57309000Y-37070600D01*
X58659000Y-32270600D02*
X59959000Y-32270600D01*
X61159000Y-32270600D02*
X61159000Y-30570600D01*
X61802400Y-37071000D02*
X61802400Y-38771000D01*
X64302400Y-37071000D02*
X63002400Y-37071000D01*
X65502400Y-32271000D02*
X65652400Y-32271000D01*
X65652400Y-32271000D02*
X65652400Y-37071000D01*
X65652400Y-37071000D02*
X65502400Y-37071000D01*
X61802400Y-37071000D02*
X61652400Y-37071000D01*
X61652400Y-37071000D02*
X61652400Y-32271000D01*
X61652400Y-32271000D02*
X61802400Y-32271000D01*
X65784800Y-45978578D02*
X65784800Y-45461422D01*
X64364800Y-45978578D02*
X64364800Y-45461422D01*
X61396378Y-47090400D02*
X60879222Y-47090400D01*
X61396378Y-45670400D02*
X60879222Y-45670400D01*
X67311200Y-45461422D02*
X67311200Y-45978578D01*
X68731200Y-45461422D02*
X68731200Y-45978578D01*
X70963022Y-37288400D02*
X71480178Y-37288400D01*
X70963022Y-38708400D02*
X71480178Y-38708400D01*
X67432422Y-37237600D02*
X67949578Y-37237600D01*
X67432422Y-38657600D02*
X67949578Y-38657600D01*
X57967378Y-28347600D02*
X57450222Y-28347600D01*
X57967378Y-29767600D02*
X57450222Y-29767600D01*
X62047622Y-26087000D02*
X62564778Y-26087000D01*
X62047622Y-27507000D02*
X62564778Y-27507000D01*
X16869967Y-18374433D02*
G75*
G03X16869967Y-18374433I-5120000J0D01*
G01*
X8157865Y-14782331D02*
X15342069Y-21966535D01*
X8186149Y-14754046D02*
X15370354Y-21938251D01*
X8214433Y-14725762D02*
X15398638Y-21909967D01*
X8243424Y-14698185D02*
X15426215Y-21880976D01*
X8272416Y-14670608D02*
X15453792Y-21851984D01*
X8301407Y-14643031D02*
X15481369Y-21822993D01*
X8331106Y-14616160D02*
X15508240Y-21793294D01*
X8360804Y-14589290D02*
X15535110Y-21763596D01*
X8391210Y-14563127D02*
X15561273Y-21733190D01*
X8420908Y-14536257D02*
X15588143Y-21703492D01*
X8451314Y-14510094D02*
X15614306Y-21673086D01*
X8481719Y-14483931D02*
X15640469Y-21642681D01*
X8512832Y-14458476D02*
X15665924Y-21611568D01*
X8543945Y-14433020D02*
X15691380Y-21580455D01*
X8575058Y-14407564D02*
X15716836Y-21549342D01*
X8606877Y-14382815D02*
X15741585Y-21517523D01*
X8638697Y-14358066D02*
X15766334Y-21485703D01*
X8670517Y-14333318D02*
X15791082Y-21453883D01*
X8703044Y-14307862D02*
X15816538Y-21421356D01*
X8735571Y-14283820D02*
X15840580Y-21388829D01*
X8768098Y-14259779D02*
X15864621Y-21356302D01*
X8801332Y-14236444D02*
X15887956Y-21323068D01*
X8834566Y-14213110D02*
X15911290Y-21289834D01*
X8867800Y-14189775D02*
X15934625Y-21256600D01*
X8901034Y-14166441D02*
X15957959Y-21223366D01*
X8934975Y-14143813D02*
X15980587Y-21189425D01*
X8968916Y-14121186D02*
X16003214Y-21155484D01*
X9003564Y-14099265D02*
X16025135Y-21120836D01*
X9038212Y-14077345D02*
X16047055Y-21086188D01*
X9072861Y-14055425D02*
X16068975Y-21051539D01*
X9107509Y-14033504D02*
X16090896Y-21016891D01*
X9142864Y-14012291D02*
X16112109Y-20981536D01*
X9178220Y-13991078D02*
X11778251Y-16591110D01*
X13533290Y-18346149D02*
X16133322Y-20946180D01*
X9214282Y-13970572D02*
X11806536Y-16562825D01*
X13561575Y-18317864D02*
X16153828Y-20910118D01*
X9249637Y-13949359D02*
X11834820Y-16534541D01*
X13589859Y-18289580D02*
X16175041Y-20874763D01*
X9286407Y-13929560D02*
X11863104Y-16506257D01*
X13618143Y-18261296D02*
X16194840Y-20837993D01*
X9322469Y-13909054D02*
X11891388Y-16477973D01*
X13646427Y-18233012D02*
X16215346Y-20801931D01*
X9359239Y-13889255D02*
X11919673Y-16449688D01*
X13674712Y-18204727D02*
X16235145Y-20765161D01*
X9396009Y-13869456D02*
X11947957Y-16421404D01*
X13702996Y-18176443D02*
X16254944Y-20728391D01*
X9433485Y-13850364D02*
X11976241Y-16393120D01*
X13731280Y-18148159D02*
X16274036Y-20690915D01*
X9470962Y-13831272D02*
X12004525Y-16364836D01*
X13759564Y-18119875D02*
X16293128Y-20653438D01*
X9508439Y-13812180D02*
X12032810Y-16336551D01*
X13787849Y-18091590D02*
X16312220Y-20615961D01*
X9546622Y-13793795D02*
X12061094Y-16308267D01*
X13816133Y-18063306D02*
X16330605Y-20577778D01*
X9584806Y-13775410D02*
X12089378Y-16279983D01*
X13844417Y-18035022D02*
X16348990Y-20539594D01*
X9623697Y-13757733D02*
X12117663Y-16251698D01*
X13872702Y-18006737D02*
X16366667Y-20500703D01*
X9661881Y-13739348D02*
X12145947Y-16223414D01*
X13900986Y-17978453D02*
X16385052Y-20462519D01*
X9701479Y-13722377D02*
X12174231Y-16195130D01*
X13929270Y-17950169D02*
X16402023Y-20422921D01*
X9740370Y-13704700D02*
X12202515Y-16166846D01*
X13957554Y-17921885D02*
X16419700Y-20384030D01*
X9779968Y-13687729D02*
X12230800Y-16138561D01*
X13985839Y-17893600D02*
X16436671Y-20344432D01*
X9820273Y-13671466D02*
X12259084Y-16110277D01*
X14014123Y-17865316D02*
X16452934Y-20304127D01*
X9859871Y-13654495D02*
X12287368Y-16081993D01*
X14042407Y-17837032D02*
X16469905Y-20264529D01*
X9900176Y-13638232D02*
X12315652Y-16053709D01*
X14070691Y-17808748D02*
X16486168Y-20224224D01*
X9941188Y-13622675D02*
X12343937Y-16025424D01*
X14098976Y-17780463D02*
X16501725Y-20183212D01*
X9982200Y-13607119D02*
X12372221Y-15997140D01*
X14127260Y-17752179D02*
X16517281Y-20142200D01*
X10023212Y-13591563D02*
X12400505Y-15968856D01*
X14155544Y-17723895D02*
X16532837Y-20101188D01*
X10064932Y-13576713D02*
X12428790Y-15940571D01*
X14183829Y-17695610D02*
X16547687Y-20059468D01*
X10107358Y-13562571D02*
X12457074Y-15912287D01*
X14212113Y-17667326D02*
X16561829Y-20017042D01*
X10149077Y-13547722D02*
X12485358Y-15884003D01*
X14240397Y-17639042D02*
X16576678Y-19975323D01*
X10191504Y-13533580D02*
X12513642Y-15855719D01*
X14268681Y-17610758D02*
X16590820Y-19932896D01*
X10234637Y-13520145D02*
X12541927Y-15827434D01*
X14296966Y-17582473D02*
X16604255Y-19889763D01*
X10277771Y-13506710D02*
X12570211Y-15799150D01*
X14325250Y-17554189D02*
X16617690Y-19846629D01*
X10320904Y-13493275D02*
X12598495Y-15770866D01*
X14353534Y-17525905D02*
X16631125Y-19803496D01*
X10364745Y-13480547D02*
X12626779Y-15742582D01*
X14381818Y-17497621D02*
X16643853Y-19759655D01*
X10409293Y-13468526D02*
X12655064Y-15714297D01*
X14410103Y-17469336D02*
X16655874Y-19715107D01*
X10453133Y-13455798D02*
X12683348Y-15686013D01*
X14438387Y-17441052D02*
X16668602Y-19671267D01*
X10498388Y-13444485D02*
X12711632Y-15657729D01*
X14466671Y-17412768D02*
X16679915Y-19626012D01*
X10543643Y-13433171D02*
X12739916Y-15629444D01*
X14494956Y-17384484D02*
X16691229Y-19580757D01*
X10588898Y-13421857D02*
X12768201Y-15601160D01*
X14523240Y-17356199D02*
X16702543Y-19535502D01*
X10634860Y-13411251D02*
X12796485Y-15572876D01*
X14551524Y-17327915D02*
X16713149Y-19489540D01*
X10680822Y-13400644D02*
X12824769Y-15544592D01*
X14579808Y-17299631D02*
X16723756Y-19443578D01*
X10727491Y-13390744D02*
X12853054Y-15516307D01*
X14608093Y-17271346D02*
X16733656Y-19396909D01*
X10774160Y-13380845D02*
X12881338Y-15488023D01*
X14636377Y-17243062D02*
X16743555Y-19350240D01*
X10821536Y-13371653D02*
X12909622Y-15459739D01*
X14664661Y-17214778D02*
X16752747Y-19302864D01*
X10869619Y-13363167D02*
X12937906Y-15431455D01*
X14692945Y-17186494D02*
X16761233Y-19254781D01*
X10917702Y-13354682D02*
X12966191Y-15403170D01*
X14721230Y-17158209D02*
X16769718Y-19206698D01*
X10965786Y-13346197D02*
X12994475Y-15374886D01*
X14749514Y-17129925D02*
X16778203Y-19158614D01*
X11015283Y-13339126D02*
X13022759Y-15346602D01*
X14777798Y-17101641D02*
X16785274Y-19109117D01*
X11064781Y-13332055D02*
X13051043Y-15318317D01*
X14806083Y-17073357D02*
X16792345Y-19059619D01*
X11114278Y-13324983D02*
X13079328Y-15290033D01*
X14834367Y-17045072D02*
X16799417Y-19010122D01*
X11164483Y-13318620D02*
X13107612Y-15261749D01*
X14862651Y-17016788D02*
X16805780Y-18959917D01*
X11215394Y-13312963D02*
X13135896Y-15233465D01*
X14890935Y-16988504D02*
X16811437Y-18909006D01*
X11266306Y-13307306D02*
X13164181Y-15205180D01*
X14919220Y-16960219D02*
X16817094Y-18858094D01*
X11317925Y-13302356D02*
X13192465Y-15176896D01*
X14947504Y-16931935D02*
X16822044Y-18806475D01*
X11370251Y-13298113D02*
X13220749Y-15148612D01*
X14975788Y-16903651D02*
X16826287Y-18754149D01*
X11422577Y-13293871D02*
X13249033Y-15120328D01*
X15004072Y-16875367D02*
X16830529Y-18701823D01*
X11475610Y-13290335D02*
X13277318Y-15092043D01*
X15032357Y-16847082D02*
X16834065Y-18648790D01*
X11529350Y-13287507D02*
X13305602Y-15063759D01*
X15060641Y-16818798D02*
X16836893Y-18595050D01*
X11583797Y-13285385D02*
X13333886Y-15035475D01*
X15088925Y-16790514D02*
X16839015Y-18540603D01*
X11638244Y-13283264D02*
X13362170Y-15007191D01*
X15117209Y-16762230D02*
X16841136Y-18486156D01*
X11694106Y-13282557D02*
X13390455Y-14978906D01*
X15145494Y-16733945D02*
X16841843Y-18430294D01*
X11749967Y-13281850D02*
X13418739Y-14950622D01*
X15173778Y-16705661D02*
X16842550Y-18374433D01*
X11806536Y-13281850D02*
X13447023Y-14922338D01*
X15202062Y-16677377D02*
X16842550Y-18317864D01*
X11863811Y-13282557D02*
X13475308Y-14894053D01*
X15230347Y-16649092D02*
X16841843Y-18260589D01*
X11921794Y-13283971D02*
X13503592Y-14865769D01*
X15258631Y-16620808D02*
X16840429Y-18202606D01*
X11979777Y-13285385D02*
X16839015Y-18144623D01*
X12039174Y-13288214D02*
X16836186Y-18085226D01*
X12099278Y-13291749D02*
X16832651Y-18025122D01*
X12160089Y-13295992D02*
X16828408Y-17964311D01*
X12221607Y-13300942D02*
X16823458Y-17902793D01*
X12283833Y-13306599D02*
X16817801Y-17840567D01*
X12347472Y-13313670D02*
X16810730Y-17776928D01*
X12411112Y-13320741D02*
X16803659Y-17713288D01*
X12476166Y-13329226D02*
X16795174Y-17648234D01*
X12542634Y-13339126D02*
X16785274Y-17581766D01*
X12609809Y-13349732D02*
X16774668Y-17514591D01*
X12677691Y-13361046D02*
X16763354Y-17446709D01*
X12747695Y-13374481D02*
X16749919Y-17376705D01*
X12818405Y-13388623D02*
X16735777Y-17305995D01*
X12889823Y-13403472D02*
X16720928Y-17234577D01*
X12963362Y-13420443D02*
X16703957Y-17161038D01*
X13038316Y-13438828D02*
X16685572Y-17086084D01*
X13115390Y-13459334D02*
X16665066Y-17009010D01*
X13193879Y-13481254D02*
X16643146Y-16930521D01*
X13274489Y-13505296D02*
X16619104Y-16849911D01*
X13356514Y-13530752D02*
X16593648Y-16767886D01*
X13441366Y-13559036D02*
X16565364Y-16683034D01*
X13529048Y-13590149D02*
X16534251Y-16595352D01*
X13619557Y-13624090D02*
X16500310Y-16504843D01*
X13713603Y-13661566D02*
X16462834Y-16410797D01*
X13811183Y-13702578D02*
X16421822Y-16313217D01*
X13913007Y-13747833D02*
X16376567Y-16211393D01*
X14020487Y-13798745D02*
X16325655Y-16103913D01*
X14133624Y-13855314D02*
X16269086Y-15990776D01*
X14255246Y-13920367D02*
X16204033Y-15869154D01*
X14388182Y-13996735D02*
X16127665Y-15736218D01*
X14535261Y-14087245D02*
X16037155Y-15589139D01*
X14704966Y-14200382D02*
X15924018Y-15419434D01*
X14919220Y-14358066D02*
X15766334Y-15205180D01*
X5842340Y-20216196D02*
X6549447Y-19509089D01*
X5842340Y-19509089D02*
X6549447Y-20216196D01*
X16535740Y-19636089D02*
X17242847Y-20343196D01*
X16535740Y-20343196D02*
X17242847Y-19636089D01*
X25612620Y-14485066D02*
X26459734Y-15332180D01*
X25398366Y-14327382D02*
X26617418Y-15546434D01*
X25228661Y-14214245D02*
X26730555Y-15716139D01*
X25081582Y-14123735D02*
X26821065Y-15863218D01*
X24948646Y-14047367D02*
X26897433Y-15996154D01*
X24827024Y-13982314D02*
X26962486Y-16117776D01*
X24713887Y-13925745D02*
X27019055Y-16230913D01*
X24606407Y-13874833D02*
X27069967Y-16338393D01*
X24504583Y-13829578D02*
X27115222Y-16440217D01*
X24407003Y-13788566D02*
X27156234Y-16537797D01*
X24312957Y-13751090D02*
X27193710Y-16631843D01*
X24222448Y-13717149D02*
X27227651Y-16722352D01*
X24134766Y-13686036D02*
X27258764Y-16810034D01*
X24049914Y-13657752D02*
X27287048Y-16894886D01*
X23967889Y-13632296D02*
X27312504Y-16976911D01*
X23887279Y-13608254D02*
X27336546Y-17057521D01*
X23808790Y-13586334D02*
X27358466Y-17136010D01*
X23731716Y-13565828D02*
X27378972Y-17213084D01*
X23656762Y-13547443D02*
X27397357Y-17288038D01*
X23583223Y-13530472D02*
X27414328Y-17361577D01*
X23511805Y-13515623D02*
X27429177Y-17432995D01*
X23441095Y-13501481D02*
X27443319Y-17503705D01*
X23371091Y-13488046D02*
X27456754Y-17573709D01*
X23303209Y-13476732D02*
X27468068Y-17641591D01*
X23236034Y-13466126D02*
X27478674Y-17708766D01*
X23169566Y-13456226D02*
X27488574Y-17775234D01*
X23104512Y-13447741D02*
X27497059Y-17840288D01*
X23040872Y-13440670D02*
X27504130Y-17903928D01*
X22977233Y-13433599D02*
X27511201Y-17967567D01*
X22915007Y-13427942D02*
X27516858Y-18029793D01*
X22853489Y-13422992D02*
X27521808Y-18091311D01*
X22792678Y-13418749D02*
X27526051Y-18152122D01*
X22732574Y-13415214D02*
X27529586Y-18212226D01*
X22673177Y-13412385D02*
X27532415Y-18271623D01*
X25952031Y-16747808D02*
X27533829Y-18329606D01*
X22615194Y-13410971D02*
X24196992Y-14992769D01*
X25923747Y-16776092D02*
X27535243Y-18387589D01*
X22557211Y-13409557D02*
X24168708Y-15021053D01*
X25895462Y-16804377D02*
X27535950Y-18444864D01*
X22499936Y-13408850D02*
X24140423Y-15049338D01*
X25867178Y-16832661D02*
X27535950Y-18501433D01*
X22443367Y-13408850D02*
X24112139Y-15077622D01*
X25838894Y-16860945D02*
X27535243Y-18557294D01*
X22387506Y-13409557D02*
X24083855Y-15105906D01*
X25810609Y-16889230D02*
X27534536Y-18613156D01*
X22331644Y-13410264D02*
X24055570Y-15134191D01*
X25782325Y-16917514D02*
X27532415Y-18667603D01*
X22277197Y-13412385D02*
X24027286Y-15162475D01*
X25754041Y-16945798D02*
X27530293Y-18722050D01*
X22222750Y-13414507D02*
X23999002Y-15190759D01*
X25725757Y-16974082D02*
X27527465Y-18775790D01*
X22169010Y-13417335D02*
X23970718Y-15219043D01*
X25697472Y-17002367D02*
X27523929Y-18828823D01*
X22115977Y-13420871D02*
X23942433Y-15247328D01*
X25669188Y-17030651D02*
X27519687Y-18881149D01*
X22063651Y-13425113D02*
X23914149Y-15275612D01*
X25640904Y-17058935D02*
X27515444Y-18933475D01*
X22011325Y-13429356D02*
X23885865Y-15303896D01*
X25612620Y-17087219D02*
X27510494Y-18985094D01*
X21959706Y-13434306D02*
X23857581Y-15332180D01*
X25584335Y-17115504D02*
X27504837Y-19036006D01*
X21908794Y-13439963D02*
X23829296Y-15360465D01*
X25556051Y-17143788D02*
X27499180Y-19086917D01*
X21857883Y-13445620D02*
X23801012Y-15388749D01*
X25527767Y-17172072D02*
X27492817Y-19137122D01*
X21807678Y-13451983D02*
X23772728Y-15417033D01*
X25499483Y-17200357D02*
X27485745Y-19186619D01*
X21758181Y-13459055D02*
X23744443Y-15445317D01*
X25471198Y-17228641D02*
X27478674Y-19236117D01*
X21708683Y-13466126D02*
X23716159Y-15473602D01*
X25442914Y-17256925D02*
X27471603Y-19285614D01*
X21659186Y-13473197D02*
X23687875Y-15501886D01*
X25414630Y-17285209D02*
X27463118Y-19333698D01*
X21611102Y-13481682D02*
X23659591Y-15530170D01*
X25386345Y-17313494D02*
X27454633Y-19381781D01*
X21563019Y-13490167D02*
X23631306Y-15558455D01*
X25358061Y-17341778D02*
X27446147Y-19429864D01*
X21514936Y-13498653D02*
X23603022Y-15586739D01*
X25329777Y-17370062D02*
X27436955Y-19477240D01*
X21467560Y-13507845D02*
X23574738Y-15615023D01*
X25301493Y-17398346D02*
X27427056Y-19523909D01*
X21420891Y-13517744D02*
X23546454Y-15643307D01*
X25273208Y-17426631D02*
X27417156Y-19570578D01*
X21374222Y-13527644D02*
X23518169Y-15671592D01*
X25244924Y-17454915D02*
X27406549Y-19616540D01*
X21328260Y-13538251D02*
X23489885Y-15699876D01*
X25216640Y-17483199D02*
X27395943Y-19662502D01*
X21282298Y-13548857D02*
X23461601Y-15728160D01*
X25188356Y-17511484D02*
X27384629Y-19707757D01*
X21237043Y-13560171D02*
X23433316Y-15756444D01*
X25160071Y-17539768D02*
X27373315Y-19753012D01*
X21191788Y-13571485D02*
X23405032Y-15784729D01*
X25131787Y-17568052D02*
X27362002Y-19798267D01*
X21146533Y-13582798D02*
X23376748Y-15813013D01*
X25103503Y-17596336D02*
X27349274Y-19842107D01*
X21102693Y-13595526D02*
X23348464Y-15841297D01*
X25075218Y-17624621D02*
X27337253Y-19886655D01*
X21058145Y-13607547D02*
X23320179Y-15869582D01*
X25046934Y-17652905D02*
X27324525Y-19930496D01*
X21014304Y-13620275D02*
X23291895Y-15897866D01*
X25018650Y-17681189D02*
X27311090Y-19973629D01*
X20971171Y-13633710D02*
X23263611Y-15926150D01*
X24990366Y-17709473D02*
X27297655Y-20016763D01*
X20928037Y-13647145D02*
X23235327Y-15954434D01*
X24962081Y-17737758D02*
X27284220Y-20059896D01*
X20884904Y-13660580D02*
X23207042Y-15982719D01*
X24933797Y-17766042D02*
X27270078Y-20102323D01*
X20842477Y-13674722D02*
X23178758Y-16011003D01*
X24905513Y-17794326D02*
X27255229Y-20144042D01*
X20800758Y-13689571D02*
X23150474Y-16039287D01*
X24877229Y-17822610D02*
X27241087Y-20186468D01*
X20758332Y-13703713D02*
X23122190Y-16067571D01*
X24848944Y-17850895D02*
X27226237Y-20228188D01*
X20716612Y-13718563D02*
X23093905Y-16095856D01*
X24820660Y-17879179D02*
X27210681Y-20269200D01*
X20675600Y-13734119D02*
X23065621Y-16124140D01*
X24792376Y-17907463D02*
X27195125Y-20310212D01*
X20634588Y-13749675D02*
X23037337Y-16152424D01*
X24764091Y-17935748D02*
X27179568Y-20351224D01*
X20593576Y-13765232D02*
X23009052Y-16180709D01*
X24735807Y-17964032D02*
X27163305Y-20391529D01*
X20553271Y-13781495D02*
X22980768Y-16208993D01*
X24707523Y-17992316D02*
X27146334Y-20431127D01*
X20513673Y-13798466D02*
X22952484Y-16237277D01*
X24679239Y-18020600D02*
X27130071Y-20471432D01*
X20473368Y-13814729D02*
X22924200Y-16265561D01*
X24650954Y-18048885D02*
X27113100Y-20511030D01*
X20433770Y-13831700D02*
X22895915Y-16293846D01*
X24622670Y-18077169D02*
X27095423Y-20549921D01*
X20394879Y-13849377D02*
X22867631Y-16322130D01*
X24594386Y-18105453D02*
X27078452Y-20589519D01*
X20355281Y-13866348D02*
X22839347Y-16350414D01*
X24566102Y-18133737D02*
X27060067Y-20627703D01*
X20317097Y-13884733D02*
X22811063Y-16378698D01*
X24537817Y-18162022D02*
X27042390Y-20666594D01*
X20278206Y-13902410D02*
X22782778Y-16406983D01*
X24509533Y-18190306D02*
X27024005Y-20704778D01*
X20240022Y-13920795D02*
X22754494Y-16435267D01*
X24481249Y-18218590D02*
X27005620Y-20742961D01*
X20201839Y-13939180D02*
X22726210Y-16463551D01*
X24452964Y-18246875D02*
X26986528Y-20780438D01*
X20164362Y-13958272D02*
X22697925Y-16491836D01*
X24424680Y-18275159D02*
X26967436Y-20817915D01*
X20126885Y-13977364D02*
X22669641Y-16520120D01*
X24396396Y-18303443D02*
X26948344Y-20855391D01*
X20089409Y-13996456D02*
X22641357Y-16548404D01*
X24368112Y-18331727D02*
X26928545Y-20892161D01*
X20052639Y-14016255D02*
X22613073Y-16576688D01*
X24339827Y-18360012D02*
X26908746Y-20928931D01*
X20015869Y-14036054D02*
X22584788Y-16604973D01*
X24311543Y-18388296D02*
X26888240Y-20964993D01*
X19979807Y-14056560D02*
X22556504Y-16633257D01*
X24283259Y-18416580D02*
X26868441Y-21001763D01*
X19943037Y-14076359D02*
X22528220Y-16661541D01*
X24254975Y-18444864D02*
X26847228Y-21037118D01*
X19907682Y-14097572D02*
X22499936Y-16689825D01*
X24226690Y-18473149D02*
X26826722Y-21073180D01*
X19871620Y-14118078D02*
X22471651Y-16718110D01*
X19836264Y-14139291D02*
X26805509Y-21108536D01*
X19800909Y-14160504D02*
X26784296Y-21143891D01*
X19766261Y-14182425D02*
X26762375Y-21178539D01*
X19731612Y-14204345D02*
X26740455Y-21213188D01*
X19696964Y-14226265D02*
X26718535Y-21247836D01*
X19662316Y-14248186D02*
X26696614Y-21282484D01*
X19628375Y-14270813D02*
X26673987Y-21316425D01*
X19594434Y-14293441D02*
X26651359Y-21350366D01*
X19561200Y-14316775D02*
X26628025Y-21383600D01*
X19527966Y-14340110D02*
X26604690Y-21416834D01*
X19494732Y-14363444D02*
X26581356Y-21450068D01*
X19461498Y-14386779D02*
X26558021Y-21483302D01*
X19428971Y-14410820D02*
X26533980Y-21515829D01*
X19396444Y-14434862D02*
X26509938Y-21548356D01*
X19363917Y-14460318D02*
X26484482Y-21580883D01*
X19332097Y-14485066D02*
X26459734Y-21612703D01*
X19300277Y-14509815D02*
X26434985Y-21644523D01*
X19268458Y-14534564D02*
X26410236Y-21676342D01*
X19237345Y-14560020D02*
X26384780Y-21707455D01*
X19206232Y-14585476D02*
X26359324Y-21738568D01*
X19175119Y-14610931D02*
X26333869Y-21769681D01*
X19144714Y-14637094D02*
X26307706Y-21800086D01*
X19114308Y-14663257D02*
X26281543Y-21830492D01*
X19084610Y-14690127D02*
X26254673Y-21860190D01*
X19054204Y-14716290D02*
X26228510Y-21890596D01*
X19024506Y-14743160D02*
X26201640Y-21920294D01*
X18994807Y-14770031D02*
X26174769Y-21949993D01*
X18965816Y-14797608D02*
X26147192Y-21978984D01*
X18936824Y-14825185D02*
X26119615Y-22007976D01*
X18907833Y-14852762D02*
X26092038Y-22036967D01*
X18879549Y-14881046D02*
X26063754Y-22065251D01*
X18851265Y-14909331D02*
X26035469Y-22093535D01*
X27563367Y-18501433D02*
G75*
G03X27563367Y-18501433I-5120000J0D01*
G01*
X69459800Y-25746400D02*
X74659800Y-25746400D01*
X69459800Y-33486400D02*
X74659800Y-33486400D01*
X68019800Y-26316400D02*
X69459800Y-26316400D01*
X69459800Y-25746400D02*
X69459800Y-26316400D01*
X74659800Y-25746400D02*
X74659800Y-26316400D01*
X69459800Y-32916400D02*
X69459800Y-33486400D01*
X74659800Y-32916400D02*
X74659800Y-33486400D01*
X69459800Y-27836400D02*
X69459800Y-28856400D01*
X74659800Y-27836400D02*
X74659800Y-28856400D01*
X69459800Y-30376400D02*
X69459800Y-31396400D01*
X74659800Y-30376400D02*
X74659800Y-31396400D01*
X25186400Y-10826000D02*
X27136400Y-10826000D01*
X25186400Y-10826000D02*
X23236400Y-10826000D01*
X25186400Y-5706000D02*
X27136400Y-5706000D01*
X25186400Y-5706000D02*
X21736400Y-5706000D01*
X36341200Y-5680600D02*
X32891200Y-5680600D01*
X36341200Y-5680600D02*
X38291200Y-5680600D01*
X36341200Y-10800600D02*
X34391200Y-10800600D01*
X36341200Y-10800600D02*
X38291200Y-10800600D01*
X58769000Y-2935200D02*
X58769000Y-4195200D01*
X58769000Y-9755200D02*
X58769000Y-8495200D01*
X62529000Y-2935200D02*
X58769000Y-2935200D01*
X64779000Y-9755200D02*
X58769000Y-9755200D01*
D10*
X63670600Y-21659000D02*
X63670600Y-21434000D01*
X56420600Y-21659000D02*
X56420600Y-21334000D01*
X56420600Y-14409000D02*
X56420600Y-14734000D01*
X63670600Y-14409000D02*
X63670600Y-14734000D01*
X63670600Y-21659000D02*
X63345600Y-21659000D01*
X63670600Y-14409000D02*
X63345600Y-14409000D01*
X56420600Y-14409000D02*
X56745600Y-14409000D01*
X56420600Y-21659000D02*
X56745600Y-21659000D01*
X63670600Y-21434000D02*
X65095600Y-21434000D01*
D13*
X11645800Y-5948000D02*
X10145800Y-5948000D01*
X10145800Y-5948000D02*
X10145800Y-6218000D01*
X10145800Y-6218000D02*
X7315800Y-6218000D01*
X11645800Y-12848000D02*
X10145800Y-12848000D01*
X10145800Y-12848000D02*
X10145800Y-12578000D01*
X10145800Y-12578000D02*
X9045800Y-12578000D01*
X43953200Y-35031600D02*
X42853200Y-35031600D01*
X43953200Y-35301600D02*
X43953200Y-35031600D01*
X45453200Y-35301600D02*
X43953200Y-35301600D01*
X43953200Y-28671600D02*
X41123200Y-28671600D01*
X43953200Y-28401600D02*
X43953200Y-28671600D01*
X45453200Y-28401600D02*
X43953200Y-28401600D01*
X37080600Y-31312200D02*
X38180600Y-31312200D01*
X37080600Y-31042200D02*
X37080600Y-31312200D01*
X35580600Y-31042200D02*
X37080600Y-31042200D01*
X37080600Y-37672200D02*
X39910600Y-37672200D01*
X37080600Y-37942200D02*
X37080600Y-37672200D01*
X35580600Y-37942200D02*
X37080600Y-37942200D01*
X23694800Y-31261400D02*
X24794800Y-31261400D01*
X23694800Y-30991400D02*
X23694800Y-31261400D01*
X22194800Y-30991400D02*
X23694800Y-30991400D01*
X23694800Y-37621400D02*
X26524800Y-37621400D01*
X23694800Y-37891400D02*
X23694800Y-37621400D01*
X22194800Y-37891400D02*
X23694800Y-37891400D01*
X47681800Y-24993000D02*
X47681800Y-26093000D01*
X47951800Y-24993000D02*
X47681800Y-24993000D01*
X47951800Y-23493000D02*
X47951800Y-24993000D01*
X41321800Y-24993000D02*
X41321800Y-27823000D01*
X41051800Y-24993000D02*
X41321800Y-24993000D01*
X41051800Y-23493000D02*
X41051800Y-24993000D01*
X35361800Y-27573200D02*
X35361800Y-28673200D01*
X35631800Y-27573200D02*
X35361800Y-27573200D01*
X35631800Y-26073200D02*
X35631800Y-27573200D01*
X29001800Y-27573200D02*
X29001800Y-30403200D01*
X28731800Y-27573200D02*
X29001800Y-27573200D01*
X28731800Y-26073200D02*
X28731800Y-27573200D01*
D14*
X11850000Y-32251260D02*
X11850000Y-32454460D01*
X9945000Y-33775260D02*
X9945000Y-29203260D01*
X9945000Y-29203260D02*
X10580000Y-29203260D01*
X13755000Y-30828860D02*
X9945000Y-30828860D01*
X13755000Y-30498660D02*
X9945000Y-30498660D01*
X13120000Y-33775260D02*
X13755000Y-33775260D01*
X13755000Y-33775260D02*
X13755000Y-29203260D01*
X13755000Y-29203260D02*
X13120000Y-29203260D01*
X10580000Y-33775260D02*
X9945000Y-33775260D01*
X11850000Y-31616260D02*
X11375020Y-32251260D01*
X11375020Y-32251260D02*
X11850000Y-32251260D01*
X11850000Y-32251260D02*
X12324980Y-32251260D01*
X12324980Y-32251260D02*
X11850000Y-31616260D01*
X11850000Y-31616260D02*
X11532500Y-31616260D01*
X11532500Y-31616260D02*
X11375020Y-31773740D01*
X11850000Y-31616260D02*
X12167500Y-31616260D01*
X12167500Y-31616260D02*
X12324980Y-31458780D01*
X11850000Y-31616260D02*
X11850000Y-30506280D01*
D10*
X47469433Y-11082380D02*
X47136100Y-10606190D01*
X46898004Y-11082380D02*
X46898004Y-10082380D01*
X47278957Y-10082380D01*
X47374195Y-10130000D01*
X47421814Y-10177619D01*
X47469433Y-10272857D01*
X47469433Y-10415714D01*
X47421814Y-10510952D01*
X47374195Y-10558571D01*
X47278957Y-10606190D01*
X46898004Y-10606190D01*
X48326576Y-10415714D02*
X48326576Y-11082380D01*
X48088480Y-10034761D02*
X47850385Y-10749047D01*
X48469433Y-10749047D01*
X69804542Y-17463142D02*
X69756923Y-17510761D01*
X69614066Y-17558380D01*
X69518828Y-17558380D01*
X69375971Y-17510761D01*
X69280733Y-17415523D01*
X69233114Y-17320285D01*
X69185495Y-17129809D01*
X69185495Y-16986952D01*
X69233114Y-16796476D01*
X69280733Y-16701238D01*
X69375971Y-16606000D01*
X69518828Y-16558380D01*
X69614066Y-16558380D01*
X69756923Y-16606000D01*
X69804542Y-16653619D01*
X70756923Y-17558380D02*
X70185495Y-17558380D01*
X70471209Y-17558380D02*
X70471209Y-16558380D01*
X70375971Y-16701238D01*
X70280733Y-16796476D01*
X70185495Y-16844095D01*
X71614066Y-16558380D02*
X71423590Y-16558380D01*
X71328352Y-16606000D01*
X71280733Y-16653619D01*
X71185495Y-16796476D01*
X71137876Y-16986952D01*
X71137876Y-17367904D01*
X71185495Y-17463142D01*
X71233114Y-17510761D01*
X71328352Y-17558380D01*
X71518828Y-17558380D01*
X71614066Y-17510761D01*
X71661685Y-17463142D01*
X71709304Y-17367904D01*
X71709304Y-17129809D01*
X71661685Y-17034571D01*
X71614066Y-16986952D01*
X71518828Y-16939333D01*
X71328352Y-16939333D01*
X71233114Y-16986952D01*
X71185495Y-17034571D01*
X71137876Y-17129809D01*
X52254542Y-19798666D02*
X52302161Y-19846285D01*
X52349780Y-19989142D01*
X52349780Y-20084380D01*
X52302161Y-20227238D01*
X52206923Y-20322476D01*
X52111685Y-20370095D01*
X51921209Y-20417714D01*
X51778352Y-20417714D01*
X51587876Y-20370095D01*
X51492638Y-20322476D01*
X51397400Y-20227238D01*
X51349780Y-20084380D01*
X51349780Y-19989142D01*
X51397400Y-19846285D01*
X51445019Y-19798666D01*
X51349780Y-19465333D02*
X51349780Y-18846285D01*
X51730733Y-19179619D01*
X51730733Y-19036761D01*
X51778352Y-18941523D01*
X51825971Y-18893904D01*
X51921209Y-18846285D01*
X52159304Y-18846285D01*
X52254542Y-18893904D01*
X52302161Y-18941523D01*
X52349780Y-19036761D01*
X52349780Y-19322476D01*
X52302161Y-19417714D01*
X52254542Y-19465333D01*
X30355342Y-10043566D02*
X30402961Y-10091185D01*
X30450580Y-10234042D01*
X30450580Y-10329280D01*
X30402961Y-10472138D01*
X30307723Y-10567376D01*
X30212485Y-10614995D01*
X30022009Y-10662614D01*
X29879152Y-10662614D01*
X29688676Y-10614995D01*
X29593438Y-10567376D01*
X29498200Y-10472138D01*
X29450580Y-10329280D01*
X29450580Y-10234042D01*
X29498200Y-10091185D01*
X29545819Y-10043566D01*
X29450580Y-9138804D02*
X29450580Y-9614995D01*
X29926771Y-9662614D01*
X29879152Y-9614995D01*
X29831533Y-9519757D01*
X29831533Y-9281661D01*
X29879152Y-9186423D01*
X29926771Y-9138804D01*
X30022009Y-9091185D01*
X30260104Y-9091185D01*
X30355342Y-9138804D01*
X30402961Y-9186423D01*
X30450580Y-9281661D01*
X30450580Y-9519757D01*
X30402961Y-9614995D01*
X30355342Y-9662614D01*
X41784542Y-4713266D02*
X41832161Y-4760885D01*
X41879780Y-4903742D01*
X41879780Y-4998980D01*
X41832161Y-5141838D01*
X41736923Y-5237076D01*
X41641685Y-5284695D01*
X41451209Y-5332314D01*
X41308352Y-5332314D01*
X41117876Y-5284695D01*
X41022638Y-5237076D01*
X40927400Y-5141838D01*
X40879780Y-4998980D01*
X40879780Y-4903742D01*
X40927400Y-4760885D01*
X40975019Y-4713266D01*
X40879780Y-3856123D02*
X40879780Y-4046600D01*
X40927400Y-4141838D01*
X40975019Y-4189457D01*
X41117876Y-4284695D01*
X41308352Y-4332314D01*
X41689304Y-4332314D01*
X41784542Y-4284695D01*
X41832161Y-4237076D01*
X41879780Y-4141838D01*
X41879780Y-3951361D01*
X41832161Y-3856123D01*
X41784542Y-3808504D01*
X41689304Y-3760885D01*
X41451209Y-3760885D01*
X41355971Y-3808504D01*
X41308352Y-3856123D01*
X41260733Y-3951361D01*
X41260733Y-4141838D01*
X41308352Y-4237076D01*
X41355971Y-4284695D01*
X41451209Y-4332314D01*
X39654742Y-21291266D02*
X39702361Y-21338885D01*
X39749980Y-21481742D01*
X39749980Y-21576980D01*
X39702361Y-21719838D01*
X39607123Y-21815076D01*
X39511885Y-21862695D01*
X39321409Y-21910314D01*
X39178552Y-21910314D01*
X38988076Y-21862695D01*
X38892838Y-21815076D01*
X38797600Y-21719838D01*
X38749980Y-21576980D01*
X38749980Y-21481742D01*
X38797600Y-21338885D01*
X38845219Y-21291266D01*
X38749980Y-20957933D02*
X38749980Y-20291266D01*
X39749980Y-20719838D01*
X37554742Y-21316266D02*
X37602361Y-21363885D01*
X37649980Y-21506742D01*
X37649980Y-21601980D01*
X37602361Y-21744838D01*
X37507123Y-21840076D01*
X37411885Y-21887695D01*
X37221409Y-21935314D01*
X37078552Y-21935314D01*
X36888076Y-21887695D01*
X36792838Y-21840076D01*
X36697600Y-21744838D01*
X36649980Y-21601980D01*
X36649980Y-21506742D01*
X36697600Y-21363885D01*
X36745219Y-21316266D01*
X37078552Y-20744838D02*
X37030933Y-20840076D01*
X36983314Y-20887695D01*
X36888076Y-20935314D01*
X36840457Y-20935314D01*
X36745219Y-20887695D01*
X36697600Y-20840076D01*
X36649980Y-20744838D01*
X36649980Y-20554361D01*
X36697600Y-20459123D01*
X36745219Y-20411504D01*
X36840457Y-20363885D01*
X36888076Y-20363885D01*
X36983314Y-20411504D01*
X37030933Y-20459123D01*
X37078552Y-20554361D01*
X37078552Y-20744838D01*
X37126171Y-20840076D01*
X37173790Y-20887695D01*
X37269028Y-20935314D01*
X37459504Y-20935314D01*
X37554742Y-20887695D01*
X37602361Y-20840076D01*
X37649980Y-20744838D01*
X37649980Y-20554361D01*
X37602361Y-20459123D01*
X37554742Y-20411504D01*
X37459504Y-20363885D01*
X37269028Y-20363885D01*
X37173790Y-20411504D01*
X37126171Y-20459123D01*
X37078552Y-20554361D01*
X68225742Y-4085557D02*
X68273361Y-4133176D01*
X68320980Y-4276033D01*
X68320980Y-4371271D01*
X68273361Y-4514128D01*
X68178123Y-4609366D01*
X68082885Y-4656985D01*
X67892409Y-4704604D01*
X67749552Y-4704604D01*
X67559076Y-4656985D01*
X67463838Y-4609366D01*
X67368600Y-4514128D01*
X67320980Y-4371271D01*
X67320980Y-4276033D01*
X67368600Y-4133176D01*
X67416219Y-4085557D01*
X68320980Y-3133176D02*
X68320980Y-3704604D01*
X68320980Y-3418890D02*
X67320980Y-3418890D01*
X67463838Y-3514128D01*
X67559076Y-3609366D01*
X67606695Y-3704604D01*
X67416219Y-2752223D02*
X67368600Y-2704604D01*
X67320980Y-2609366D01*
X67320980Y-2371271D01*
X67368600Y-2276033D01*
X67416219Y-2228414D01*
X67511457Y-2180795D01*
X67606695Y-2180795D01*
X67749552Y-2228414D01*
X68320980Y-2799842D01*
X68320980Y-2180795D01*
X68601942Y-7562057D02*
X68649561Y-7609676D01*
X68697180Y-7752533D01*
X68697180Y-7847771D01*
X68649561Y-7990628D01*
X68554323Y-8085866D01*
X68459085Y-8133485D01*
X68268609Y-8181104D01*
X68125752Y-8181104D01*
X67935276Y-8133485D01*
X67840038Y-8085866D01*
X67744800Y-7990628D01*
X67697180Y-7847771D01*
X67697180Y-7752533D01*
X67744800Y-7609676D01*
X67792419Y-7562057D01*
X68697180Y-6609676D02*
X68697180Y-7181104D01*
X68697180Y-6895390D02*
X67697180Y-6895390D01*
X67840038Y-6990628D01*
X67935276Y-7085866D01*
X67982895Y-7181104D01*
X68030514Y-5752533D02*
X68697180Y-5752533D01*
X67649561Y-5990628D02*
X68363847Y-6228723D01*
X68363847Y-5609676D01*
X50154542Y-17249857D02*
X50202161Y-17297476D01*
X50249780Y-17440333D01*
X50249780Y-17535571D01*
X50202161Y-17678428D01*
X50106923Y-17773666D01*
X50011685Y-17821285D01*
X49821209Y-17868904D01*
X49678352Y-17868904D01*
X49487876Y-17821285D01*
X49392638Y-17773666D01*
X49297400Y-17678428D01*
X49249780Y-17535571D01*
X49249780Y-17440333D01*
X49297400Y-17297476D01*
X49345019Y-17249857D01*
X50249780Y-16297476D02*
X50249780Y-16868904D01*
X50249780Y-16583190D02*
X49249780Y-16583190D01*
X49392638Y-16678428D01*
X49487876Y-16773666D01*
X49535495Y-16868904D01*
X49249780Y-15392714D02*
X49249780Y-15868904D01*
X49725971Y-15916523D01*
X49678352Y-15868904D01*
X49630733Y-15773666D01*
X49630733Y-15535571D01*
X49678352Y-15440333D01*
X49725971Y-15392714D01*
X49821209Y-15345095D01*
X50059304Y-15345095D01*
X50154542Y-15392714D01*
X50202161Y-15440333D01*
X50249780Y-15535571D01*
X50249780Y-15773666D01*
X50202161Y-15868904D01*
X50154542Y-15916523D01*
X69540542Y-11582142D02*
X69492923Y-11629761D01*
X69350066Y-11677380D01*
X69254828Y-11677380D01*
X69111971Y-11629761D01*
X69016733Y-11534523D01*
X68969114Y-11439285D01*
X68921495Y-11248809D01*
X68921495Y-11105952D01*
X68969114Y-10915476D01*
X69016733Y-10820238D01*
X69111971Y-10725000D01*
X69254828Y-10677380D01*
X69350066Y-10677380D01*
X69492923Y-10725000D01*
X69540542Y-10772619D01*
X70492923Y-11677380D02*
X69921495Y-11677380D01*
X70207209Y-11677380D02*
X70207209Y-10677380D01*
X70111971Y-10820238D01*
X70016733Y-10915476D01*
X69921495Y-10963095D01*
X70826257Y-10677380D02*
X71492923Y-10677380D01*
X71064352Y-11677380D01*
X4578571Y-30303333D02*
X4578571Y-30636666D01*
X5102380Y-30636666D02*
X4102380Y-30636666D01*
X4102380Y-30160476D01*
X5102380Y-29255714D02*
X5102380Y-29827142D01*
X5102380Y-29541428D02*
X4102380Y-29541428D01*
X4245238Y-29636666D01*
X4340476Y-29731904D01*
X4388095Y-29827142D01*
X73223666Y-25423580D02*
X73223666Y-26137866D01*
X73176047Y-26280723D01*
X73080809Y-26375961D01*
X72937952Y-26423580D01*
X72842714Y-26423580D01*
X74128428Y-25423580D02*
X73937952Y-25423580D01*
X73842714Y-25471200D01*
X73795095Y-25518819D01*
X73699857Y-25661676D01*
X73652238Y-25852152D01*
X73652238Y-26233104D01*
X73699857Y-26328342D01*
X73747476Y-26375961D01*
X73842714Y-26423580D01*
X74033190Y-26423580D01*
X74128428Y-26375961D01*
X74176047Y-26328342D01*
X74223666Y-26233104D01*
X74223666Y-25995009D01*
X74176047Y-25899771D01*
X74128428Y-25852152D01*
X74033190Y-25804533D01*
X73842714Y-25804533D01*
X73747476Y-25852152D01*
X73699857Y-25899771D01*
X73652238Y-25995009D01*
X76755666Y-6488180D02*
X76755666Y-7202466D01*
X76708047Y-7345323D01*
X76612809Y-7440561D01*
X76469952Y-7488180D01*
X76374714Y-7488180D01*
X77136619Y-6488180D02*
X77803285Y-6488180D01*
X77374714Y-7488180D01*
X69736466Y-8001180D02*
X69736466Y-8715466D01*
X69688847Y-8858323D01*
X69593609Y-8953561D01*
X69450752Y-9001180D01*
X69355514Y-9001180D01*
X70355514Y-8429752D02*
X70260276Y-8382133D01*
X70212657Y-8334514D01*
X70165038Y-8239276D01*
X70165038Y-8191657D01*
X70212657Y-8096419D01*
X70260276Y-8048800D01*
X70355514Y-8001180D01*
X70545990Y-8001180D01*
X70641228Y-8048800D01*
X70688847Y-8096419D01*
X70736466Y-8191657D01*
X70736466Y-8239276D01*
X70688847Y-8334514D01*
X70641228Y-8382133D01*
X70545990Y-8429752D01*
X70355514Y-8429752D01*
X70260276Y-8477371D01*
X70212657Y-8524990D01*
X70165038Y-8620228D01*
X70165038Y-8810704D01*
X70212657Y-8905942D01*
X70260276Y-8953561D01*
X70355514Y-9001180D01*
X70545990Y-9001180D01*
X70641228Y-8953561D01*
X70688847Y-8905942D01*
X70736466Y-8810704D01*
X70736466Y-8620228D01*
X70688847Y-8524990D01*
X70641228Y-8477371D01*
X70545990Y-8429752D01*
X50829752Y-2180280D02*
X50353561Y-2180280D01*
X50353561Y-1180280D01*
X51163085Y-1656471D02*
X51496419Y-1656471D01*
X51639276Y-2180280D02*
X51163085Y-2180280D01*
X51163085Y-1180280D01*
X51639276Y-1180280D01*
X52067847Y-2180280D02*
X52067847Y-1180280D01*
X52305942Y-1180280D01*
X52448800Y-1227900D01*
X52544038Y-1323138D01*
X52591657Y-1418376D01*
X52639276Y-1608852D01*
X52639276Y-1751709D01*
X52591657Y-1942185D01*
X52544038Y-2037423D01*
X52448800Y-2132661D01*
X52305942Y-2180280D01*
X52067847Y-2180280D01*
X53591657Y-2180280D02*
X53020228Y-2180280D01*
X53305942Y-2180280D02*
X53305942Y-1180280D01*
X53210704Y-1323138D01*
X53115466Y-1418376D01*
X53020228Y-1465995D01*
X11191933Y-3245780D02*
X10858600Y-2769590D01*
X10620504Y-3245780D02*
X10620504Y-2245780D01*
X11001457Y-2245780D01*
X11096695Y-2293400D01*
X11144314Y-2341019D01*
X11191933Y-2436257D01*
X11191933Y-2579114D01*
X11144314Y-2674352D01*
X11096695Y-2721971D01*
X11001457Y-2769590D01*
X10620504Y-2769590D01*
X12144314Y-3245780D02*
X11572885Y-3245780D01*
X11858600Y-3245780D02*
X11858600Y-2245780D01*
X11763361Y-2388638D01*
X11668123Y-2483876D01*
X11572885Y-2531495D01*
X49456733Y-24024380D02*
X49123400Y-23548190D01*
X48885304Y-24024380D02*
X48885304Y-23024380D01*
X49266257Y-23024380D01*
X49361495Y-23072000D01*
X49409114Y-23119619D01*
X49456733Y-23214857D01*
X49456733Y-23357714D01*
X49409114Y-23452952D01*
X49361495Y-23500571D01*
X49266257Y-23548190D01*
X48885304Y-23548190D01*
X49837685Y-23119619D02*
X49885304Y-23072000D01*
X49980542Y-23024380D01*
X50218638Y-23024380D01*
X50313876Y-23072000D01*
X50361495Y-23119619D01*
X50409114Y-23214857D01*
X50409114Y-23310095D01*
X50361495Y-23452952D01*
X49790066Y-24024380D01*
X50409114Y-24024380D01*
X69034880Y-9740866D02*
X68558690Y-10074200D01*
X69034880Y-10312295D02*
X68034880Y-10312295D01*
X68034880Y-9931342D01*
X68082500Y-9836104D01*
X68130119Y-9788485D01*
X68225357Y-9740866D01*
X68368214Y-9740866D01*
X68463452Y-9788485D01*
X68511071Y-9836104D01*
X68558690Y-9931342D01*
X68558690Y-10312295D01*
X68034880Y-8836104D02*
X68034880Y-9312295D01*
X68511071Y-9359914D01*
X68463452Y-9312295D01*
X68415833Y-9217057D01*
X68415833Y-8978961D01*
X68463452Y-8883723D01*
X68511071Y-8836104D01*
X68606309Y-8788485D01*
X68844404Y-8788485D01*
X68939642Y-8836104D01*
X68987261Y-8883723D01*
X69034880Y-8978961D01*
X69034880Y-9217057D01*
X68987261Y-9312295D01*
X68939642Y-9359914D01*
X54039233Y-27756380D02*
X53705900Y-27280190D01*
X53467804Y-27756380D02*
X53467804Y-26756380D01*
X53848757Y-26756380D01*
X53943995Y-26804000D01*
X53991614Y-26851619D01*
X54039233Y-26946857D01*
X54039233Y-27089714D01*
X53991614Y-27184952D01*
X53943995Y-27232571D01*
X53848757Y-27280190D01*
X53467804Y-27280190D01*
X54896376Y-26756380D02*
X54705900Y-26756380D01*
X54610661Y-26804000D01*
X54563042Y-26851619D01*
X54467804Y-26994476D01*
X54420185Y-27184952D01*
X54420185Y-27565904D01*
X54467804Y-27661142D01*
X54515423Y-27708761D01*
X54610661Y-27756380D01*
X54801138Y-27756380D01*
X54896376Y-27708761D01*
X54943995Y-27661142D01*
X54991614Y-27565904D01*
X54991614Y-27327809D01*
X54943995Y-27232571D01*
X54896376Y-27184952D01*
X54801138Y-27137333D01*
X54610661Y-27137333D01*
X54515423Y-27184952D01*
X54467804Y-27232571D01*
X54420185Y-27327809D01*
X73668833Y-24429980D02*
X73335500Y-23953790D01*
X73097404Y-24429980D02*
X73097404Y-23429980D01*
X73478357Y-23429980D01*
X73573595Y-23477600D01*
X73621214Y-23525219D01*
X73668833Y-23620457D01*
X73668833Y-23763314D01*
X73621214Y-23858552D01*
X73573595Y-23906171D01*
X73478357Y-23953790D01*
X73097404Y-23953790D01*
X74240261Y-23858552D02*
X74145023Y-23810933D01*
X74097404Y-23763314D01*
X74049785Y-23668076D01*
X74049785Y-23620457D01*
X74097404Y-23525219D01*
X74145023Y-23477600D01*
X74240261Y-23429980D01*
X74430738Y-23429980D01*
X74525976Y-23477600D01*
X74573595Y-23525219D01*
X74621214Y-23620457D01*
X74621214Y-23668076D01*
X74573595Y-23763314D01*
X74525976Y-23810933D01*
X74430738Y-23858552D01*
X74240261Y-23858552D01*
X74145023Y-23906171D01*
X74097404Y-23953790D01*
X74049785Y-24049028D01*
X74049785Y-24239504D01*
X74097404Y-24334742D01*
X74145023Y-24382361D01*
X74240261Y-24429980D01*
X74430738Y-24429980D01*
X74525976Y-24382361D01*
X74573595Y-24334742D01*
X74621214Y-24239504D01*
X74621214Y-24049028D01*
X74573595Y-23953790D01*
X74525976Y-23906171D01*
X74430738Y-23858552D01*
X56684942Y-24582380D02*
X56351609Y-24106190D01*
X56113514Y-24582380D02*
X56113514Y-23582380D01*
X56494466Y-23582380D01*
X56589704Y-23630000D01*
X56637323Y-23677619D01*
X56684942Y-23772857D01*
X56684942Y-23915714D01*
X56637323Y-24010952D01*
X56589704Y-24058571D01*
X56494466Y-24106190D01*
X56113514Y-24106190D01*
X57637323Y-24582380D02*
X57065895Y-24582380D01*
X57351609Y-24582380D02*
X57351609Y-23582380D01*
X57256371Y-23725238D01*
X57161133Y-23820476D01*
X57065895Y-23868095D01*
X58018276Y-23677619D02*
X58065895Y-23630000D01*
X58161133Y-23582380D01*
X58399228Y-23582380D01*
X58494466Y-23630000D01*
X58542085Y-23677619D01*
X58589704Y-23772857D01*
X58589704Y-23868095D01*
X58542085Y-24010952D01*
X57970657Y-24582380D01*
X58589704Y-24582380D01*
X27830542Y-14116580D02*
X27497209Y-13640390D01*
X27259114Y-14116580D02*
X27259114Y-13116580D01*
X27640066Y-13116580D01*
X27735304Y-13164200D01*
X27782923Y-13211819D01*
X27830542Y-13307057D01*
X27830542Y-13449914D01*
X27782923Y-13545152D01*
X27735304Y-13592771D01*
X27640066Y-13640390D01*
X27259114Y-13640390D01*
X28782923Y-14116580D02*
X28211495Y-14116580D01*
X28497209Y-14116580D02*
X28497209Y-13116580D01*
X28401971Y-13259438D01*
X28306733Y-13354676D01*
X28211495Y-13402295D01*
X29640066Y-13116580D02*
X29449590Y-13116580D01*
X29354352Y-13164200D01*
X29306733Y-13211819D01*
X29211495Y-13354676D01*
X29163876Y-13545152D01*
X29163876Y-13926104D01*
X29211495Y-14021342D01*
X29259114Y-14068961D01*
X29354352Y-14116580D01*
X29544828Y-14116580D01*
X29640066Y-14068961D01*
X29687685Y-14021342D01*
X29735304Y-13926104D01*
X29735304Y-13688009D01*
X29687685Y-13592771D01*
X29640066Y-13545152D01*
X29544828Y-13497533D01*
X29354352Y-13497533D01*
X29259114Y-13545152D01*
X29211495Y-13592771D01*
X29163876Y-13688009D01*
X24096742Y-10791180D02*
X23763409Y-10314990D01*
X23525314Y-10791180D02*
X23525314Y-9791180D01*
X23906266Y-9791180D01*
X24001504Y-9838800D01*
X24049123Y-9886419D01*
X24096742Y-9981657D01*
X24096742Y-10124514D01*
X24049123Y-10219752D01*
X24001504Y-10267371D01*
X23906266Y-10314990D01*
X23525314Y-10314990D01*
X25049123Y-10791180D02*
X24477695Y-10791180D01*
X24763409Y-10791180D02*
X24763409Y-9791180D01*
X24668171Y-9934038D01*
X24572933Y-10029276D01*
X24477695Y-10076895D01*
X25382457Y-9791180D02*
X26049123Y-9791180D01*
X25620552Y-10791180D01*
X40229780Y-12479257D02*
X39753590Y-12812590D01*
X40229780Y-13050685D02*
X39229780Y-13050685D01*
X39229780Y-12669733D01*
X39277400Y-12574495D01*
X39325019Y-12526876D01*
X39420257Y-12479257D01*
X39563114Y-12479257D01*
X39658352Y-12526876D01*
X39705971Y-12574495D01*
X39753590Y-12669733D01*
X39753590Y-13050685D01*
X40229780Y-11526876D02*
X40229780Y-12098304D01*
X40229780Y-11812590D02*
X39229780Y-11812590D01*
X39372638Y-11907828D01*
X39467876Y-12003066D01*
X39515495Y-12098304D01*
X39658352Y-10955447D02*
X39610733Y-11050685D01*
X39563114Y-11098304D01*
X39467876Y-11145923D01*
X39420257Y-11145923D01*
X39325019Y-11098304D01*
X39277400Y-11050685D01*
X39229780Y-10955447D01*
X39229780Y-10764971D01*
X39277400Y-10669733D01*
X39325019Y-10622114D01*
X39420257Y-10574495D01*
X39467876Y-10574495D01*
X39563114Y-10622114D01*
X39610733Y-10669733D01*
X39658352Y-10764971D01*
X39658352Y-10955447D01*
X39705971Y-11050685D01*
X39753590Y-11098304D01*
X39848828Y-11145923D01*
X40039304Y-11145923D01*
X40134542Y-11098304D01*
X40182161Y-11050685D01*
X40229780Y-10955447D01*
X40229780Y-10764971D01*
X40182161Y-10669733D01*
X40134542Y-10622114D01*
X40039304Y-10574495D01*
X39848828Y-10574495D01*
X39753590Y-10622114D01*
X39705971Y-10669733D01*
X39658352Y-10764971D01*
X37025342Y-14345180D02*
X36692009Y-13868990D01*
X36453914Y-14345180D02*
X36453914Y-13345180D01*
X36834866Y-13345180D01*
X36930104Y-13392800D01*
X36977723Y-13440419D01*
X37025342Y-13535657D01*
X37025342Y-13678514D01*
X36977723Y-13773752D01*
X36930104Y-13821371D01*
X36834866Y-13868990D01*
X36453914Y-13868990D01*
X37977723Y-14345180D02*
X37406295Y-14345180D01*
X37692009Y-14345180D02*
X37692009Y-13345180D01*
X37596771Y-13488038D01*
X37501533Y-13583276D01*
X37406295Y-13630895D01*
X38453914Y-14345180D02*
X38644390Y-14345180D01*
X38739628Y-14297561D01*
X38787247Y-14249942D01*
X38882485Y-14107085D01*
X38930104Y-13916609D01*
X38930104Y-13535657D01*
X38882485Y-13440419D01*
X38834866Y-13392800D01*
X38739628Y-13345180D01*
X38549152Y-13345180D01*
X38453914Y-13392800D01*
X38406295Y-13440419D01*
X38358676Y-13535657D01*
X38358676Y-13773752D01*
X38406295Y-13868990D01*
X38453914Y-13916609D01*
X38549152Y-13964228D01*
X38739628Y-13964228D01*
X38834866Y-13916609D01*
X38882485Y-13868990D01*
X38930104Y-13773752D01*
X51938180Y-11183857D02*
X51461990Y-11517190D01*
X51938180Y-11755285D02*
X50938180Y-11755285D01*
X50938180Y-11374333D01*
X50985800Y-11279095D01*
X51033419Y-11231476D01*
X51128657Y-11183857D01*
X51271514Y-11183857D01*
X51366752Y-11231476D01*
X51414371Y-11279095D01*
X51461990Y-11374333D01*
X51461990Y-11755285D01*
X51033419Y-10802904D02*
X50985800Y-10755285D01*
X50938180Y-10660047D01*
X50938180Y-10421952D01*
X50985800Y-10326714D01*
X51033419Y-10279095D01*
X51128657Y-10231476D01*
X51223895Y-10231476D01*
X51366752Y-10279095D01*
X51938180Y-10850523D01*
X51938180Y-10231476D01*
X51938180Y-9279095D02*
X51938180Y-9850523D01*
X51938180Y-9564809D02*
X50938180Y-9564809D01*
X51081038Y-9660047D01*
X51176276Y-9755285D01*
X51223895Y-9850523D01*
X44162742Y-10637780D02*
X43829409Y-10161590D01*
X43591314Y-10637780D02*
X43591314Y-9637780D01*
X43972266Y-9637780D01*
X44067504Y-9685400D01*
X44115123Y-9733019D01*
X44162742Y-9828257D01*
X44162742Y-9971114D01*
X44115123Y-10066352D01*
X44067504Y-10113971D01*
X43972266Y-10161590D01*
X43591314Y-10161590D01*
X44543695Y-9733019D02*
X44591314Y-9685400D01*
X44686552Y-9637780D01*
X44924647Y-9637780D01*
X45019885Y-9685400D01*
X45067504Y-9733019D01*
X45115123Y-9828257D01*
X45115123Y-9923495D01*
X45067504Y-10066352D01*
X44496076Y-10637780D01*
X45115123Y-10637780D01*
X45496076Y-9733019D02*
X45543695Y-9685400D01*
X45638933Y-9637780D01*
X45877028Y-9637780D01*
X45972266Y-9685400D01*
X46019885Y-9733019D01*
X46067504Y-9828257D01*
X46067504Y-9923495D01*
X46019885Y-10066352D01*
X45448457Y-10637780D01*
X46067504Y-10637780D01*
X22314285Y-26102380D02*
X22885714Y-26102380D01*
X22600000Y-27102380D02*
X22600000Y-26102380D01*
X23219047Y-27102380D02*
X23219047Y-26102380D01*
X23219047Y-26578571D02*
X23790476Y-26578571D01*
X23790476Y-27102380D02*
X23790476Y-26102380D01*
X24790476Y-27102380D02*
X24219047Y-27102380D01*
X24504761Y-27102380D02*
X24504761Y-26102380D01*
X24409523Y-26245238D01*
X24314285Y-26340476D01*
X24219047Y-26388095D01*
D17*
X43499666Y-39861027D02*
X43670935Y-39861027D01*
X43585300Y-40160747D02*
X43585300Y-39861027D01*
X43728024Y-39861027D02*
X43827931Y-40160747D01*
X43927838Y-39861027D01*
X44013472Y-40146475D02*
X44056289Y-40160747D01*
X44127651Y-40160747D01*
X44156196Y-40146475D01*
X44170468Y-40132202D01*
X44184740Y-40103658D01*
X44184740Y-40075113D01*
X44170468Y-40046568D01*
X44156196Y-40032296D01*
X44127651Y-40018023D01*
X44070561Y-40003751D01*
X44042017Y-39989479D01*
X44027744Y-39975206D01*
X44013472Y-39946661D01*
X44013472Y-39918117D01*
X44027744Y-39889572D01*
X44042017Y-39875300D01*
X44070561Y-39861027D01*
X44141923Y-39861027D01*
X44184740Y-39875300D01*
X44470188Y-40160747D02*
X44298920Y-40160747D01*
X44384554Y-40160747D02*
X44384554Y-39861027D01*
X44356009Y-39903844D01*
X44327464Y-39932389D01*
X44298920Y-39946661D01*
D18*
D17*
X43642390Y-35761467D02*
X43813659Y-35761467D01*
X43728024Y-36061187D02*
X43728024Y-35761467D01*
X43870748Y-35761467D02*
X43970655Y-36061187D01*
X44070561Y-35761467D01*
X44156196Y-36046915D02*
X44199013Y-36061187D01*
X44270375Y-36061187D01*
X44298920Y-36046915D01*
X44313192Y-36032642D01*
X44327464Y-36004098D01*
X44327464Y-35975553D01*
X44313192Y-35947008D01*
X44298920Y-35932736D01*
X44270375Y-35918463D01*
X44213285Y-35904191D01*
X44184740Y-35889919D01*
X44170468Y-35875646D01*
X44156196Y-35847101D01*
X44156196Y-35818557D01*
X44170468Y-35790012D01*
X44184740Y-35775740D01*
X44213285Y-35761467D01*
X44284647Y-35761467D01*
X44327464Y-35775740D01*
D18*
D10*
X66811590Y-16042190D02*
X67287780Y-16042190D01*
X66287780Y-16375523D02*
X66811590Y-16042190D01*
X66287780Y-15708857D01*
X67287780Y-14851714D02*
X67287780Y-15423142D01*
X67287780Y-15137428D02*
X66287780Y-15137428D01*
X66430638Y-15232666D01*
X66525876Y-15327904D01*
X66573495Y-15423142D01*
X72312733Y-19479280D02*
X71979400Y-19003090D01*
X71741304Y-19479280D02*
X71741304Y-18479280D01*
X72122257Y-18479280D01*
X72217495Y-18526900D01*
X72265114Y-18574519D01*
X72312733Y-18669757D01*
X72312733Y-18812614D01*
X72265114Y-18907852D01*
X72217495Y-18955471D01*
X72122257Y-19003090D01*
X71741304Y-19003090D01*
X72788923Y-19479280D02*
X72979400Y-19479280D01*
X73074638Y-19431661D01*
X73122257Y-19384042D01*
X73217495Y-19241185D01*
X73265114Y-19050709D01*
X73265114Y-18669757D01*
X73217495Y-18574519D01*
X73169876Y-18526900D01*
X73074638Y-18479280D01*
X72884161Y-18479280D01*
X72788923Y-18526900D01*
X72741304Y-18574519D01*
X72693685Y-18669757D01*
X72693685Y-18907852D01*
X72741304Y-19003090D01*
X72788923Y-19050709D01*
X72884161Y-19098328D01*
X73074638Y-19098328D01*
X73169876Y-19050709D01*
X73217495Y-19003090D01*
X73265114Y-18907852D01*
X24023304Y-2163380D02*
X24023304Y-1163380D01*
X24261400Y-1163380D01*
X24404257Y-1211000D01*
X24499495Y-1306238D01*
X24547114Y-1401476D01*
X24594733Y-1591952D01*
X24594733Y-1734809D01*
X24547114Y-1925285D01*
X24499495Y-2020523D01*
X24404257Y-2115761D01*
X24261400Y-2163380D01*
X24023304Y-2163380D01*
X25547114Y-2163380D02*
X24975685Y-2163380D01*
X25261400Y-2163380D02*
X25261400Y-1163380D01*
X25166161Y-1306238D01*
X25070923Y-1401476D01*
X24975685Y-1449095D01*
X38296104Y-2187780D02*
X38296104Y-1187780D01*
X38534200Y-1187780D01*
X38677057Y-1235400D01*
X38772295Y-1330638D01*
X38819914Y-1425876D01*
X38867533Y-1616352D01*
X38867533Y-1759209D01*
X38819914Y-1949685D01*
X38772295Y-2044923D01*
X38677057Y-2140161D01*
X38534200Y-2187780D01*
X38296104Y-2187780D01*
X39248485Y-1283019D02*
X39296104Y-1235400D01*
X39391342Y-1187780D01*
X39629438Y-1187780D01*
X39724676Y-1235400D01*
X39772295Y-1283019D01*
X39819914Y-1378257D01*
X39819914Y-1473495D01*
X39772295Y-1616352D01*
X39200866Y-2187780D01*
X39819914Y-2187780D01*
X46179752Y-2230280D02*
X45703561Y-2230280D01*
X45703561Y-1230280D01*
X46513085Y-1706471D02*
X46846419Y-1706471D01*
X46989276Y-2230280D02*
X46513085Y-2230280D01*
X46513085Y-1230280D01*
X46989276Y-1230280D01*
X47417847Y-2230280D02*
X47417847Y-1230280D01*
X47655942Y-1230280D01*
X47798800Y-1277900D01*
X47894038Y-1373138D01*
X47941657Y-1468376D01*
X47989276Y-1658852D01*
X47989276Y-1801709D01*
X47941657Y-1992185D01*
X47894038Y-2087423D01*
X47798800Y-2182661D01*
X47655942Y-2230280D01*
X47417847Y-2230280D01*
X48322609Y-1230280D02*
X48941657Y-1230280D01*
X48608323Y-1611233D01*
X48751180Y-1611233D01*
X48846419Y-1658852D01*
X48894038Y-1706471D01*
X48941657Y-1801709D01*
X48941657Y-2039804D01*
X48894038Y-2135042D01*
X48846419Y-2182661D01*
X48751180Y-2230280D01*
X48465466Y-2230280D01*
X48370228Y-2182661D01*
X48322609Y-2135042D01*
X51269433Y-14432380D02*
X50936100Y-13956190D01*
X50698004Y-14432380D02*
X50698004Y-13432380D01*
X51078957Y-13432380D01*
X51174195Y-13480000D01*
X51221814Y-13527619D01*
X51269433Y-13622857D01*
X51269433Y-13765714D01*
X51221814Y-13860952D01*
X51174195Y-13908571D01*
X51078957Y-13956190D01*
X50698004Y-13956190D01*
X51602766Y-13432380D02*
X52221814Y-13432380D01*
X51888480Y-13813333D01*
X52031338Y-13813333D01*
X52126576Y-13860952D01*
X52174195Y-13908571D01*
X52221814Y-14003809D01*
X52221814Y-14241904D01*
X52174195Y-14337142D01*
X52126576Y-14384761D01*
X52031338Y-14432380D01*
X51745623Y-14432380D01*
X51650385Y-14384761D01*
X51602766Y-14337142D01*
X48334752Y-2128780D02*
X47858561Y-2128780D01*
X47858561Y-1128780D01*
X48668085Y-1604971D02*
X49001419Y-1604971D01*
X49144276Y-2128780D02*
X48668085Y-2128780D01*
X48668085Y-1128780D01*
X49144276Y-1128780D01*
X49572847Y-2128780D02*
X49572847Y-1128780D01*
X49810942Y-1128780D01*
X49953800Y-1176400D01*
X50049038Y-1271638D01*
X50096657Y-1366876D01*
X50144276Y-1557352D01*
X50144276Y-1700209D01*
X50096657Y-1890685D01*
X50049038Y-1985923D01*
X49953800Y-2081161D01*
X49810942Y-2128780D01*
X49572847Y-2128780D01*
X51001419Y-1462114D02*
X51001419Y-2128780D01*
X50763323Y-1081161D02*
X50525228Y-1795447D01*
X51144276Y-1795447D01*
X47721780Y-11412457D02*
X47245590Y-11745790D01*
X47721780Y-11983885D02*
X46721780Y-11983885D01*
X46721780Y-11602933D01*
X46769400Y-11507695D01*
X46817019Y-11460076D01*
X46912257Y-11412457D01*
X47055114Y-11412457D01*
X47150352Y-11460076D01*
X47197971Y-11507695D01*
X47245590Y-11602933D01*
X47245590Y-11983885D01*
X47721780Y-10460076D02*
X47721780Y-11031504D01*
X47721780Y-10745790D02*
X46721780Y-10745790D01*
X46864638Y-10841028D01*
X46959876Y-10936266D01*
X47007495Y-11031504D01*
X47055114Y-9602933D02*
X47721780Y-9602933D01*
X46674161Y-9841028D02*
X47388447Y-10079123D01*
X47388447Y-9460076D01*
X49677580Y-11437857D02*
X49201390Y-11771190D01*
X49677580Y-12009285D02*
X48677580Y-12009285D01*
X48677580Y-11628333D01*
X48725200Y-11533095D01*
X48772819Y-11485476D01*
X48868057Y-11437857D01*
X49010914Y-11437857D01*
X49106152Y-11485476D01*
X49153771Y-11533095D01*
X49201390Y-11628333D01*
X49201390Y-12009285D01*
X49677580Y-10485476D02*
X49677580Y-11056904D01*
X49677580Y-10771190D02*
X48677580Y-10771190D01*
X48820438Y-10866428D01*
X48915676Y-10961666D01*
X48963295Y-11056904D01*
X48677580Y-9580714D02*
X48677580Y-10056904D01*
X49153771Y-10104523D01*
X49106152Y-10056904D01*
X49058533Y-9961666D01*
X49058533Y-9723571D01*
X49106152Y-9628333D01*
X49153771Y-9580714D01*
X49249009Y-9533095D01*
X49487104Y-9533095D01*
X49582342Y-9580714D01*
X49629961Y-9628333D01*
X49677580Y-9723571D01*
X49677580Y-9961666D01*
X49629961Y-10056904D01*
X49582342Y-10104523D01*
X18178542Y-6037942D02*
X18130923Y-6085561D01*
X17988066Y-6133180D01*
X17892828Y-6133180D01*
X17749971Y-6085561D01*
X17654733Y-5990323D01*
X17607114Y-5895085D01*
X17559495Y-5704609D01*
X17559495Y-5561752D01*
X17607114Y-5371276D01*
X17654733Y-5276038D01*
X17749971Y-5180800D01*
X17892828Y-5133180D01*
X17988066Y-5133180D01*
X18130923Y-5180800D01*
X18178542Y-5228419D01*
X19130923Y-6133180D02*
X18559495Y-6133180D01*
X18845209Y-6133180D02*
X18845209Y-5133180D01*
X18749971Y-5276038D01*
X18654733Y-5371276D01*
X18559495Y-5418895D01*
X19702352Y-5561752D02*
X19607114Y-5514133D01*
X19559495Y-5466514D01*
X19511876Y-5371276D01*
X19511876Y-5323657D01*
X19559495Y-5228419D01*
X19607114Y-5180800D01*
X19702352Y-5133180D01*
X19892828Y-5133180D01*
X19988066Y-5180800D01*
X20035685Y-5228419D01*
X20083304Y-5323657D01*
X20083304Y-5371276D01*
X20035685Y-5466514D01*
X19988066Y-5514133D01*
X19892828Y-5561752D01*
X19702352Y-5561752D01*
X19607114Y-5609371D01*
X19559495Y-5656990D01*
X19511876Y-5752228D01*
X19511876Y-5942704D01*
X19559495Y-6037942D01*
X19607114Y-6085561D01*
X19702352Y-6133180D01*
X19892828Y-6133180D01*
X19988066Y-6085561D01*
X20035685Y-6037942D01*
X20083304Y-5942704D01*
X20083304Y-5752228D01*
X20035685Y-5656990D01*
X19988066Y-5609371D01*
X19892828Y-5561752D01*
X31185742Y-2139342D02*
X31138123Y-2186961D01*
X30995266Y-2234580D01*
X30900028Y-2234580D01*
X30757171Y-2186961D01*
X30661933Y-2091723D01*
X30614314Y-1996485D01*
X30566695Y-1806009D01*
X30566695Y-1663152D01*
X30614314Y-1472676D01*
X30661933Y-1377438D01*
X30757171Y-1282200D01*
X30900028Y-1234580D01*
X30995266Y-1234580D01*
X31138123Y-1282200D01*
X31185742Y-1329819D01*
X32138123Y-2234580D02*
X31566695Y-2234580D01*
X31852409Y-2234580D02*
X31852409Y-1234580D01*
X31757171Y-1377438D01*
X31661933Y-1472676D01*
X31566695Y-1520295D01*
X32614314Y-2234580D02*
X32804790Y-2234580D01*
X32900028Y-2186961D01*
X32947647Y-2139342D01*
X33042885Y-1996485D01*
X33090504Y-1806009D01*
X33090504Y-1425057D01*
X33042885Y-1329819D01*
X32995266Y-1282200D01*
X32900028Y-1234580D01*
X32709552Y-1234580D01*
X32614314Y-1282200D01*
X32566695Y-1329819D01*
X32519076Y-1425057D01*
X32519076Y-1663152D01*
X32566695Y-1758390D01*
X32614314Y-1806009D01*
X32709552Y-1853628D01*
X32900028Y-1853628D01*
X32995266Y-1806009D01*
X33042885Y-1758390D01*
X33090504Y-1663152D01*
X17957142Y-27187142D02*
X17909523Y-27234761D01*
X17766666Y-27282380D01*
X17671428Y-27282380D01*
X17528571Y-27234761D01*
X17433333Y-27139523D01*
X17385714Y-27044285D01*
X17338095Y-26853809D01*
X17338095Y-26710952D01*
X17385714Y-26520476D01*
X17433333Y-26425238D01*
X17528571Y-26330000D01*
X17671428Y-26282380D01*
X17766666Y-26282380D01*
X17909523Y-26330000D01*
X17957142Y-26377619D01*
X18909523Y-27282380D02*
X18338095Y-27282380D01*
X18623809Y-27282380D02*
X18623809Y-26282380D01*
X18528571Y-26425238D01*
X18433333Y-26520476D01*
X18338095Y-26568095D01*
X19861904Y-27282380D02*
X19290476Y-27282380D01*
X19576190Y-27282380D02*
X19576190Y-26282380D01*
X19480952Y-26425238D01*
X19385714Y-26520476D01*
X19290476Y-26568095D01*
X52769233Y-23597142D02*
X52721614Y-23644761D01*
X52578757Y-23692380D01*
X52483519Y-23692380D01*
X52340661Y-23644761D01*
X52245423Y-23549523D01*
X52197804Y-23454285D01*
X52150185Y-23263809D01*
X52150185Y-23120952D01*
X52197804Y-22930476D01*
X52245423Y-22835238D01*
X52340661Y-22740000D01*
X52483519Y-22692380D01*
X52578757Y-22692380D01*
X52721614Y-22740000D01*
X52769233Y-22787619D01*
X53626376Y-23025714D02*
X53626376Y-23692380D01*
X53388280Y-22644761D02*
X53150185Y-23359047D01*
X53769233Y-23359047D01*
X66868042Y-18519142D02*
X66820423Y-18566761D01*
X66677566Y-18614380D01*
X66582328Y-18614380D01*
X66439471Y-18566761D01*
X66344233Y-18471523D01*
X66296614Y-18376285D01*
X66248995Y-18185809D01*
X66248995Y-18042952D01*
X66296614Y-17852476D01*
X66344233Y-17757238D01*
X66439471Y-17662000D01*
X66582328Y-17614380D01*
X66677566Y-17614380D01*
X66820423Y-17662000D01*
X66868042Y-17709619D01*
X67820423Y-18614380D02*
X67248995Y-18614380D01*
X67534709Y-18614380D02*
X67534709Y-17614380D01*
X67439471Y-17757238D01*
X67344233Y-17852476D01*
X67248995Y-17900095D01*
X68153757Y-17614380D02*
X68772804Y-17614380D01*
X68439471Y-17995333D01*
X68582328Y-17995333D01*
X68677566Y-18042952D01*
X68725185Y-18090571D01*
X68772804Y-18185809D01*
X68772804Y-18423904D01*
X68725185Y-18519142D01*
X68677566Y-18566761D01*
X68582328Y-18614380D01*
X68296614Y-18614380D01*
X68201376Y-18566761D01*
X68153757Y-18519142D01*
X44421180Y-5096947D02*
X44421180Y-5573138D01*
X43421180Y-5573138D01*
X43897371Y-4763614D02*
X43897371Y-4430280D01*
X44421180Y-4287423D02*
X44421180Y-4763614D01*
X43421180Y-4763614D01*
X43421180Y-4287423D01*
X44421180Y-3858852D02*
X43421180Y-3858852D01*
X43421180Y-3620757D01*
X43468800Y-3477900D01*
X43564038Y-3382661D01*
X43659276Y-3335042D01*
X43849752Y-3287423D01*
X43992609Y-3287423D01*
X44183085Y-3335042D01*
X44278323Y-3382661D01*
X44373561Y-3477900D01*
X44421180Y-3620757D01*
X44421180Y-3858852D01*
X43516419Y-2906471D02*
X43468800Y-2858852D01*
X43421180Y-2763614D01*
X43421180Y-2525519D01*
X43468800Y-2430280D01*
X43516419Y-2382661D01*
X43611657Y-2335042D01*
X43706895Y-2335042D01*
X43849752Y-2382661D01*
X44421180Y-2954090D01*
X44421180Y-2335042D01*
X56516542Y-43905466D02*
X56564161Y-43953085D01*
X56611780Y-44095942D01*
X56611780Y-44191180D01*
X56564161Y-44334038D01*
X56468923Y-44429276D01*
X56373685Y-44476895D01*
X56183209Y-44524514D01*
X56040352Y-44524514D01*
X55849876Y-44476895D01*
X55754638Y-44429276D01*
X55659400Y-44334038D01*
X55611780Y-44191180D01*
X55611780Y-44095942D01*
X55659400Y-43953085D01*
X55707019Y-43905466D01*
X56611780Y-42953085D02*
X56611780Y-43524514D01*
X56611780Y-43238800D02*
X55611780Y-43238800D01*
X55754638Y-43334038D01*
X55849876Y-43429276D01*
X55897495Y-43524514D01*
X71179633Y-49175942D02*
X71132014Y-49223561D01*
X70989157Y-49271180D01*
X70893919Y-49271180D01*
X70751061Y-49223561D01*
X70655823Y-49128323D01*
X70608204Y-49033085D01*
X70560585Y-48842609D01*
X70560585Y-48699752D01*
X70608204Y-48509276D01*
X70655823Y-48414038D01*
X70751061Y-48318800D01*
X70893919Y-48271180D01*
X70989157Y-48271180D01*
X71132014Y-48318800D01*
X71179633Y-48366419D01*
X71560585Y-48366419D02*
X71608204Y-48318800D01*
X71703442Y-48271180D01*
X71941538Y-48271180D01*
X72036776Y-48318800D01*
X72084395Y-48366419D01*
X72132014Y-48461657D01*
X72132014Y-48556895D01*
X72084395Y-48699752D01*
X71512966Y-49271180D01*
X72132014Y-49271180D01*
X62790342Y-40343057D02*
X62837961Y-40390676D01*
X62885580Y-40533533D01*
X62885580Y-40628771D01*
X62837961Y-40771628D01*
X62742723Y-40866866D01*
X62647485Y-40914485D01*
X62457009Y-40962104D01*
X62314152Y-40962104D01*
X62123676Y-40914485D01*
X62028438Y-40866866D01*
X61933200Y-40771628D01*
X61885580Y-40628771D01*
X61885580Y-40533533D01*
X61933200Y-40390676D01*
X61980819Y-40343057D01*
X61980819Y-39962104D02*
X61933200Y-39914485D01*
X61885580Y-39819247D01*
X61885580Y-39581152D01*
X61933200Y-39485914D01*
X61980819Y-39438295D01*
X62076057Y-39390676D01*
X62171295Y-39390676D01*
X62314152Y-39438295D01*
X62885580Y-40009723D01*
X62885580Y-39390676D01*
X61885580Y-38771628D02*
X61885580Y-38676390D01*
X61933200Y-38581152D01*
X61980819Y-38533533D01*
X62076057Y-38485914D01*
X62266533Y-38438295D01*
X62504628Y-38438295D01*
X62695104Y-38485914D01*
X62790342Y-38533533D01*
X62837961Y-38581152D01*
X62885580Y-38676390D01*
X62885580Y-38771628D01*
X62837961Y-38866866D01*
X62790342Y-38914485D01*
X62695104Y-38962104D01*
X62504628Y-39009723D01*
X62266533Y-39009723D01*
X62076057Y-38962104D01*
X61980819Y-38914485D01*
X61933200Y-38866866D01*
X61885580Y-38771628D01*
X56585942Y-41427257D02*
X56633561Y-41474876D01*
X56681180Y-41617733D01*
X56681180Y-41712971D01*
X56633561Y-41855828D01*
X56538323Y-41951066D01*
X56443085Y-41998685D01*
X56252609Y-42046304D01*
X56109752Y-42046304D01*
X55919276Y-41998685D01*
X55824038Y-41951066D01*
X55728800Y-41855828D01*
X55681180Y-41712971D01*
X55681180Y-41617733D01*
X55728800Y-41474876D01*
X55776419Y-41427257D01*
X55776419Y-41046304D02*
X55728800Y-40998685D01*
X55681180Y-40903447D01*
X55681180Y-40665352D01*
X55728800Y-40570114D01*
X55776419Y-40522495D01*
X55871657Y-40474876D01*
X55966895Y-40474876D01*
X56109752Y-40522495D01*
X56681180Y-41093923D01*
X56681180Y-40474876D01*
X56681180Y-39522495D02*
X56681180Y-40093923D01*
X56681180Y-39808209D02*
X55681180Y-39808209D01*
X55824038Y-39903447D01*
X55919276Y-39998685D01*
X55966895Y-40093923D01*
X62857142Y-27790142D02*
X62809523Y-27837761D01*
X62666666Y-27885380D01*
X62571428Y-27885380D01*
X62428571Y-27837761D01*
X62333333Y-27742523D01*
X62285714Y-27647285D01*
X62238095Y-27456809D01*
X62238095Y-27313952D01*
X62285714Y-27123476D01*
X62333333Y-27028238D01*
X62428571Y-26933000D01*
X62571428Y-26885380D01*
X62666666Y-26885380D01*
X62809523Y-26933000D01*
X62857142Y-26980619D01*
X63238095Y-26980619D02*
X63285714Y-26933000D01*
X63380952Y-26885380D01*
X63619047Y-26885380D01*
X63714285Y-26933000D01*
X63761904Y-26980619D01*
X63809523Y-27075857D01*
X63809523Y-27171095D01*
X63761904Y-27313952D01*
X63190476Y-27885380D01*
X63809523Y-27885380D01*
X64190476Y-26980619D02*
X64238095Y-26933000D01*
X64333333Y-26885380D01*
X64571428Y-26885380D01*
X64666666Y-26933000D01*
X64714285Y-26980619D01*
X64761904Y-27075857D01*
X64761904Y-27171095D01*
X64714285Y-27313952D01*
X64142857Y-27885380D01*
X64761904Y-27885380D01*
D13*
X58208466Y-50470400D02*
X58141800Y-50437066D01*
X58041800Y-50437066D01*
X57941800Y-50470400D01*
X57875133Y-50537066D01*
X57841800Y-50603733D01*
X57808466Y-50737066D01*
X57808466Y-50837066D01*
X57841800Y-50970400D01*
X57875133Y-51037066D01*
X57941800Y-51103733D01*
X58041800Y-51137066D01*
X58108466Y-51137066D01*
X58208466Y-51103733D01*
X58241800Y-51070400D01*
X58241800Y-50837066D01*
X58108466Y-50837066D01*
X58541800Y-51137066D02*
X58541800Y-50437066D01*
X58941800Y-51137066D01*
X58941800Y-50437066D01*
X59275133Y-51137066D02*
X59275133Y-50437066D01*
X59441800Y-50437066D01*
X59541800Y-50470400D01*
X59608466Y-50537066D01*
X59641800Y-50603733D01*
X59675133Y-50737066D01*
X59675133Y-50837066D01*
X59641800Y-50970400D01*
X59608466Y-51037066D01*
X59541800Y-51103733D01*
X59441800Y-51137066D01*
X59275133Y-51137066D01*
X64625133Y-51142066D02*
X64391800Y-50808733D01*
X64225133Y-51142066D02*
X64225133Y-50442066D01*
X64491800Y-50442066D01*
X64558466Y-50475400D01*
X64591800Y-50508733D01*
X64625133Y-50575400D01*
X64625133Y-50675400D01*
X64591800Y-50742066D01*
X64558466Y-50775400D01*
X64491800Y-50808733D01*
X64225133Y-50808733D01*
X64858466Y-50442066D02*
X65325133Y-51142066D01*
X65325133Y-50442066D02*
X64858466Y-51142066D01*
X61308466Y-50442066D02*
X61708466Y-50442066D01*
X61508466Y-51142066D02*
X61508466Y-50442066D01*
X61875133Y-50442066D02*
X62341800Y-51142066D01*
X62341800Y-50442066D02*
X61875133Y-51142066D01*
X66908466Y-50437066D02*
X67141800Y-51137066D01*
X67375133Y-50437066D01*
X68008466Y-51070400D02*
X67975133Y-51103733D01*
X67875133Y-51137066D01*
X67808466Y-51137066D01*
X67708466Y-51103733D01*
X67641800Y-51037066D01*
X67608466Y-50970400D01*
X67575133Y-50837066D01*
X67575133Y-50737066D01*
X67608466Y-50603733D01*
X67641800Y-50537066D01*
X67708466Y-50470400D01*
X67808466Y-50437066D01*
X67875133Y-50437066D01*
X67975133Y-50470400D01*
X68008466Y-50503733D01*
X68708466Y-51070400D02*
X68675133Y-51103733D01*
X68575133Y-51137066D01*
X68508466Y-51137066D01*
X68408466Y-51103733D01*
X68341800Y-51037066D01*
X68308466Y-50970400D01*
X68275133Y-50837066D01*
X68275133Y-50737066D01*
X68308466Y-50603733D01*
X68341800Y-50537066D01*
X68408466Y-50470400D01*
X68508466Y-50437066D01*
X68575133Y-50437066D01*
X68675133Y-50470400D01*
X68708466Y-50503733D01*
D10*
X34173742Y-29524580D02*
X33840409Y-29048390D01*
X33602314Y-29524580D02*
X33602314Y-28524580D01*
X33983266Y-28524580D01*
X34078504Y-28572200D01*
X34126123Y-28619819D01*
X34173742Y-28715057D01*
X34173742Y-28857914D01*
X34126123Y-28953152D01*
X34078504Y-29000771D01*
X33983266Y-29048390D01*
X33602314Y-29048390D01*
X34554695Y-28619819D02*
X34602314Y-28572200D01*
X34697552Y-28524580D01*
X34935647Y-28524580D01*
X35030885Y-28572200D01*
X35078504Y-28619819D01*
X35126123Y-28715057D01*
X35126123Y-28810295D01*
X35078504Y-28953152D01*
X34507076Y-29524580D01*
X35126123Y-29524580D01*
X35745171Y-28524580D02*
X35840409Y-28524580D01*
X35935647Y-28572200D01*
X35983266Y-28619819D01*
X36030885Y-28715057D01*
X36078504Y-28905533D01*
X36078504Y-29143628D01*
X36030885Y-29334104D01*
X35983266Y-29429342D01*
X35935647Y-29476961D01*
X35840409Y-29524580D01*
X35745171Y-29524580D01*
X35649933Y-29476961D01*
X35602314Y-29429342D01*
X35554695Y-29334104D01*
X35507076Y-29143628D01*
X35507076Y-28905533D01*
X35554695Y-28715057D01*
X35602314Y-28619819D01*
X35649933Y-28572200D01*
X35745171Y-28524580D01*
X63540980Y-44001304D02*
X64350504Y-44001304D01*
X64445742Y-43953685D01*
X64493361Y-43906066D01*
X64540980Y-43810828D01*
X64540980Y-43620352D01*
X64493361Y-43525114D01*
X64445742Y-43477495D01*
X64350504Y-43429876D01*
X63540980Y-43429876D01*
X64540980Y-42429876D02*
X64540980Y-43001304D01*
X64540980Y-42715590D02*
X63540980Y-42715590D01*
X63683838Y-42810828D01*
X63779076Y-42906066D01*
X63826695Y-43001304D01*
X70307295Y-43292780D02*
X70307295Y-44102304D01*
X70354914Y-44197542D01*
X70402533Y-44245161D01*
X70497771Y-44292780D01*
X70688247Y-44292780D01*
X70783485Y-44245161D01*
X70831104Y-44197542D01*
X70878723Y-44102304D01*
X70878723Y-43292780D01*
X71831104Y-43292780D02*
X71354914Y-43292780D01*
X71307295Y-43768971D01*
X71354914Y-43721352D01*
X71450152Y-43673733D01*
X71688247Y-43673733D01*
X71783485Y-43721352D01*
X71831104Y-43768971D01*
X71878723Y-43864209D01*
X71878723Y-44102304D01*
X71831104Y-44197542D01*
X71783485Y-44245161D01*
X71688247Y-44292780D01*
X71450152Y-44292780D01*
X71354914Y-44245161D01*
X71307295Y-44197542D01*
X66783780Y-41236104D02*
X67593304Y-41236104D01*
X67688542Y-41188485D01*
X67736161Y-41140866D01*
X67783780Y-41045628D01*
X67783780Y-40855152D01*
X67736161Y-40759914D01*
X67688542Y-40712295D01*
X67593304Y-40664676D01*
X66783780Y-40664676D01*
X67212352Y-40045628D02*
X67164733Y-40140866D01*
X67117114Y-40188485D01*
X67021876Y-40236104D01*
X66974257Y-40236104D01*
X66879019Y-40188485D01*
X66831400Y-40140866D01*
X66783780Y-40045628D01*
X66783780Y-39855152D01*
X66831400Y-39759914D01*
X66879019Y-39712295D01*
X66974257Y-39664676D01*
X67021876Y-39664676D01*
X67117114Y-39712295D01*
X67164733Y-39759914D01*
X67212352Y-39855152D01*
X67212352Y-40045628D01*
X67259971Y-40140866D01*
X67307590Y-40188485D01*
X67402828Y-40236104D01*
X67593304Y-40236104D01*
X67688542Y-40188485D01*
X67736161Y-40140866D01*
X67783780Y-40045628D01*
X67783780Y-39855152D01*
X67736161Y-39759914D01*
X67688542Y-39712295D01*
X67593304Y-39664676D01*
X67402828Y-39664676D01*
X67307590Y-39712295D01*
X67259971Y-39759914D01*
X67212352Y-39855152D01*
X55496380Y-35332504D02*
X56305904Y-35332504D01*
X56401142Y-35284885D01*
X56448761Y-35237266D01*
X56496380Y-35142028D01*
X56496380Y-34951552D01*
X56448761Y-34856314D01*
X56401142Y-34808695D01*
X56305904Y-34761076D01*
X55496380Y-34761076D01*
X56496380Y-34237266D02*
X56496380Y-34046790D01*
X56448761Y-33951552D01*
X56401142Y-33903933D01*
X56258285Y-33808695D01*
X56067809Y-33761076D01*
X55686857Y-33761076D01*
X55591619Y-33808695D01*
X55544000Y-33856314D01*
X55496380Y-33951552D01*
X55496380Y-34142028D01*
X55544000Y-34237266D01*
X55591619Y-34284885D01*
X55686857Y-34332504D01*
X55924952Y-34332504D01*
X56020190Y-34284885D01*
X56067809Y-34237266D01*
X56115428Y-34142028D01*
X56115428Y-33951552D01*
X56067809Y-33856314D01*
X56020190Y-33808695D01*
X55924952Y-33761076D01*
X66369780Y-36009095D02*
X67179304Y-36009095D01*
X67274542Y-35961476D01*
X67322161Y-35913857D01*
X67369780Y-35818619D01*
X67369780Y-35628142D01*
X67322161Y-35532904D01*
X67274542Y-35485285D01*
X67179304Y-35437666D01*
X66369780Y-35437666D01*
X67369780Y-34437666D02*
X67369780Y-35009095D01*
X67369780Y-34723380D02*
X66369780Y-34723380D01*
X66512638Y-34818619D01*
X66607876Y-34913857D01*
X66655495Y-35009095D01*
X66369780Y-33818619D02*
X66369780Y-33723380D01*
X66417400Y-33628142D01*
X66465019Y-33580523D01*
X66560257Y-33532904D01*
X66750733Y-33485285D01*
X66988828Y-33485285D01*
X67179304Y-33532904D01*
X67274542Y-33580523D01*
X67322161Y-33628142D01*
X67369780Y-33723380D01*
X67369780Y-33818619D01*
X67322161Y-33913857D01*
X67274542Y-33961476D01*
X67179304Y-34009095D01*
X66988828Y-34056714D01*
X66750733Y-34056714D01*
X66560257Y-34009095D01*
X66465019Y-33961476D01*
X66417400Y-33913857D01*
X66369780Y-33818619D01*
X63877180Y-45886666D02*
X63400990Y-46220000D01*
X63877180Y-46458095D02*
X62877180Y-46458095D01*
X62877180Y-46077142D01*
X62924800Y-45981904D01*
X62972419Y-45934285D01*
X63067657Y-45886666D01*
X63210514Y-45886666D01*
X63305752Y-45934285D01*
X63353371Y-45981904D01*
X63400990Y-46077142D01*
X63400990Y-46458095D01*
X62877180Y-45553333D02*
X62877180Y-44886666D01*
X63877180Y-45315238D01*
X57345342Y-47010580D02*
X57012009Y-46534390D01*
X56773914Y-47010580D02*
X56773914Y-46010580D01*
X57154866Y-46010580D01*
X57250104Y-46058200D01*
X57297723Y-46105819D01*
X57345342Y-46201057D01*
X57345342Y-46343914D01*
X57297723Y-46439152D01*
X57250104Y-46486771D01*
X57154866Y-46534390D01*
X56773914Y-46534390D01*
X58297723Y-47010580D02*
X57726295Y-47010580D01*
X58012009Y-47010580D02*
X58012009Y-46010580D01*
X57916771Y-46153438D01*
X57821533Y-46248676D01*
X57726295Y-46296295D01*
X58916771Y-46010580D02*
X59012009Y-46010580D01*
X59107247Y-46058200D01*
X59154866Y-46105819D01*
X59202485Y-46201057D01*
X59250104Y-46391533D01*
X59250104Y-46629628D01*
X59202485Y-46820104D01*
X59154866Y-46915342D01*
X59107247Y-46962961D01*
X59012009Y-47010580D01*
X58916771Y-47010580D01*
X58821533Y-46962961D01*
X58773914Y-46915342D01*
X58726295Y-46820104D01*
X58678676Y-46629628D01*
X58678676Y-46391533D01*
X58726295Y-46201057D01*
X58773914Y-46105819D01*
X58821533Y-46058200D01*
X58916771Y-46010580D01*
X67178180Y-46134257D02*
X66701990Y-46467590D01*
X67178180Y-46705685D02*
X66178180Y-46705685D01*
X66178180Y-46324733D01*
X66225800Y-46229495D01*
X66273419Y-46181876D01*
X66368657Y-46134257D01*
X66511514Y-46134257D01*
X66606752Y-46181876D01*
X66654371Y-46229495D01*
X66701990Y-46324733D01*
X66701990Y-46705685D01*
X67178180Y-45181876D02*
X67178180Y-45753304D01*
X67178180Y-45467590D02*
X66178180Y-45467590D01*
X66321038Y-45562828D01*
X66416276Y-45658066D01*
X66463895Y-45753304D01*
X67178180Y-44229495D02*
X67178180Y-44800923D01*
X67178180Y-44515209D02*
X66178180Y-44515209D01*
X66321038Y-44610447D01*
X66416276Y-44705685D01*
X66463895Y-44800923D01*
X70578742Y-36800780D02*
X70245409Y-36324590D01*
X70007314Y-36800780D02*
X70007314Y-35800780D01*
X70388266Y-35800780D01*
X70483504Y-35848400D01*
X70531123Y-35896019D01*
X70578742Y-35991257D01*
X70578742Y-36134114D01*
X70531123Y-36229352D01*
X70483504Y-36276971D01*
X70388266Y-36324590D01*
X70007314Y-36324590D01*
X71531123Y-36800780D02*
X70959695Y-36800780D01*
X71245409Y-36800780D02*
X71245409Y-35800780D01*
X71150171Y-35943638D01*
X71054933Y-36038876D01*
X70959695Y-36086495D01*
X71864457Y-35800780D02*
X72483504Y-35800780D01*
X72150171Y-36181733D01*
X72293028Y-36181733D01*
X72388266Y-36229352D01*
X72435885Y-36276971D01*
X72483504Y-36372209D01*
X72483504Y-36610304D01*
X72435885Y-36705542D01*
X72388266Y-36753161D01*
X72293028Y-36800780D01*
X72007314Y-36800780D01*
X71912076Y-36753161D01*
X71864457Y-36705542D01*
X67048142Y-36749980D02*
X66714809Y-36273790D01*
X66476714Y-36749980D02*
X66476714Y-35749980D01*
X66857666Y-35749980D01*
X66952904Y-35797600D01*
X67000523Y-35845219D01*
X67048142Y-35940457D01*
X67048142Y-36083314D01*
X67000523Y-36178552D01*
X66952904Y-36226171D01*
X66857666Y-36273790D01*
X66476714Y-36273790D01*
X67429095Y-35845219D02*
X67476714Y-35797600D01*
X67571952Y-35749980D01*
X67810047Y-35749980D01*
X67905285Y-35797600D01*
X67952904Y-35845219D01*
X68000523Y-35940457D01*
X68000523Y-36035695D01*
X67952904Y-36178552D01*
X67381476Y-36749980D01*
X68000523Y-36749980D01*
X68333857Y-35749980D02*
X68952904Y-35749980D01*
X68619571Y-36130933D01*
X68762428Y-36130933D01*
X68857666Y-36178552D01*
X68905285Y-36226171D01*
X68952904Y-36321409D01*
X68952904Y-36559504D01*
X68905285Y-36654742D01*
X68857666Y-36702361D01*
X68762428Y-36749980D01*
X68476714Y-36749980D01*
X68381476Y-36702361D01*
X68333857Y-36654742D01*
X57065942Y-31159980D02*
X56732609Y-30683790D01*
X56494514Y-31159980D02*
X56494514Y-30159980D01*
X56875466Y-30159980D01*
X56970704Y-30207600D01*
X57018323Y-30255219D01*
X57065942Y-30350457D01*
X57065942Y-30493314D01*
X57018323Y-30588552D01*
X56970704Y-30636171D01*
X56875466Y-30683790D01*
X56494514Y-30683790D01*
X57446895Y-30255219D02*
X57494514Y-30207600D01*
X57589752Y-30159980D01*
X57827847Y-30159980D01*
X57923085Y-30207600D01*
X57970704Y-30255219D01*
X58018323Y-30350457D01*
X58018323Y-30445695D01*
X57970704Y-30588552D01*
X57399276Y-31159980D01*
X58018323Y-31159980D01*
X58875466Y-30493314D02*
X58875466Y-31159980D01*
X58637371Y-30112361D02*
X58399276Y-30826647D01*
X59018323Y-30826647D01*
X61663342Y-25599380D02*
X61330009Y-25123190D01*
X61091914Y-25599380D02*
X61091914Y-24599380D01*
X61472866Y-24599380D01*
X61568104Y-24647000D01*
X61615723Y-24694619D01*
X61663342Y-24789857D01*
X61663342Y-24932714D01*
X61615723Y-25027952D01*
X61568104Y-25075571D01*
X61472866Y-25123190D01*
X61091914Y-25123190D01*
X62044295Y-24694619D02*
X62091914Y-24647000D01*
X62187152Y-24599380D01*
X62425247Y-24599380D01*
X62520485Y-24647000D01*
X62568104Y-24694619D01*
X62615723Y-24789857D01*
X62615723Y-24885095D01*
X62568104Y-25027952D01*
X61996676Y-25599380D01*
X62615723Y-25599380D01*
X63520485Y-24599380D02*
X63044295Y-24599380D01*
X62996676Y-25075571D01*
X63044295Y-25027952D01*
X63139533Y-24980333D01*
X63377628Y-24980333D01*
X63472866Y-25027952D01*
X63520485Y-25075571D01*
X63568104Y-25170809D01*
X63568104Y-25408904D01*
X63520485Y-25504142D01*
X63472866Y-25551761D01*
X63377628Y-25599380D01*
X63139533Y-25599380D01*
X63044295Y-25551761D01*
X62996676Y-25504142D01*
X10470440Y-16623502D02*
X10470440Y-16690845D01*
X10403096Y-16825532D01*
X10335753Y-16892876D01*
X10201065Y-16960219D01*
X10066378Y-16960219D01*
X9965363Y-16926548D01*
X9797004Y-16825532D01*
X9695989Y-16724517D01*
X9594974Y-16556158D01*
X9561302Y-16455143D01*
X9561302Y-16320456D01*
X9628646Y-16185769D01*
X9695989Y-16118425D01*
X9830676Y-16051082D01*
X9898020Y-16051082D01*
X10874501Y-16354128D02*
X11009188Y-16219441D01*
X11042859Y-16118425D01*
X11042859Y-16051082D01*
X11009188Y-15882723D01*
X10908172Y-15714364D01*
X10638798Y-15444990D01*
X10537783Y-15411319D01*
X10470440Y-15411319D01*
X10369424Y-15444990D01*
X10234737Y-15579677D01*
X10201065Y-15680693D01*
X10201065Y-15748036D01*
X10234737Y-15849051D01*
X10403096Y-16017410D01*
X10504111Y-16051082D01*
X10571455Y-16051082D01*
X10672470Y-16017410D01*
X10807157Y-15882723D01*
X10840829Y-15781708D01*
X10840829Y-15714364D01*
X10807157Y-15613349D01*
X20827122Y-17087219D02*
X20827122Y-17154563D01*
X20759778Y-17289250D01*
X20692435Y-17356593D01*
X20557748Y-17423937D01*
X20423061Y-17423937D01*
X20322046Y-17390265D01*
X20153687Y-17289250D01*
X20052672Y-17188235D01*
X19951656Y-17019876D01*
X19917985Y-16918861D01*
X19917985Y-16784174D01*
X19985328Y-16649487D01*
X20052672Y-16582143D01*
X20187359Y-16514800D01*
X20254702Y-16514800D01*
X21567901Y-16481128D02*
X21163840Y-16885189D01*
X21365870Y-16683158D02*
X20658763Y-15976051D01*
X20692435Y-16144410D01*
X20692435Y-16279097D01*
X20658763Y-16380113D01*
X21298527Y-15336288D02*
X21365870Y-15268945D01*
X21466885Y-15235273D01*
X21534229Y-15235273D01*
X21635244Y-15268945D01*
X21803603Y-15369960D01*
X21971962Y-15538319D01*
X22072977Y-15706677D01*
X22106649Y-15807693D01*
X22106649Y-15875036D01*
X22072977Y-15976051D01*
X22005633Y-16043395D01*
X21904618Y-16077067D01*
X21837275Y-16077067D01*
X21736259Y-16043395D01*
X21567901Y-15942380D01*
X21399542Y-15774021D01*
X21298527Y-15605662D01*
X21264855Y-15504647D01*
X21264855Y-15437303D01*
X21298527Y-15336288D01*
X12126980Y-47856733D02*
X12841266Y-47856733D01*
X12984123Y-47904352D01*
X13079361Y-47999590D01*
X13126980Y-48142447D01*
X13126980Y-48237685D01*
X13126980Y-46856733D02*
X13126980Y-47428161D01*
X13126980Y-47142447D02*
X12126980Y-47142447D01*
X12269838Y-47237685D01*
X12365076Y-47332923D01*
X12412695Y-47428161D01*
X22602580Y-48003933D02*
X23316866Y-48003933D01*
X23459723Y-48051552D01*
X23554961Y-48146790D01*
X23602580Y-48289647D01*
X23602580Y-48384885D01*
X22697819Y-47575361D02*
X22650200Y-47527742D01*
X22602580Y-47432504D01*
X22602580Y-47194409D01*
X22650200Y-47099171D01*
X22697819Y-47051552D01*
X22793057Y-47003933D01*
X22888295Y-47003933D01*
X23031152Y-47051552D01*
X23602580Y-47622980D01*
X23602580Y-47003933D01*
X45919780Y-47938133D02*
X46634066Y-47938133D01*
X46776923Y-47985752D01*
X46872161Y-48080990D01*
X46919780Y-48223847D01*
X46919780Y-48319085D01*
X46253114Y-47033371D02*
X46919780Y-47033371D01*
X45872161Y-47271466D02*
X46586447Y-47509561D01*
X46586447Y-46890514D01*
X76382180Y-29949733D02*
X77096466Y-29949733D01*
X77239323Y-29997352D01*
X77334561Y-30092590D01*
X77382180Y-30235447D01*
X77382180Y-30330685D01*
X77382180Y-29425923D02*
X77382180Y-29235447D01*
X77334561Y-29140209D01*
X77286942Y-29092590D01*
X77144085Y-28997352D01*
X76953609Y-28949733D01*
X76572657Y-28949733D01*
X76477419Y-28997352D01*
X76429800Y-29044971D01*
X76382180Y-29140209D01*
X76382180Y-29330685D01*
X76429800Y-29425923D01*
X76477419Y-29473542D01*
X76572657Y-29521161D01*
X76810752Y-29521161D01*
X76905990Y-29473542D01*
X76953609Y-29425923D01*
X77001228Y-29330685D01*
X77001228Y-29140209D01*
X76953609Y-29044971D01*
X76905990Y-28997352D01*
X76810752Y-28949733D01*
X23733780Y-9052904D02*
X24543304Y-9052904D01*
X24638542Y-9005285D01*
X24686161Y-8957666D01*
X24733780Y-8862428D01*
X24733780Y-8671952D01*
X24686161Y-8576714D01*
X24638542Y-8529095D01*
X24543304Y-8481476D01*
X23733780Y-8481476D01*
X23829019Y-8052904D02*
X23781400Y-8005285D01*
X23733780Y-7910047D01*
X23733780Y-7671952D01*
X23781400Y-7576714D01*
X23829019Y-7529095D01*
X23924257Y-7481476D01*
X24019495Y-7481476D01*
X24162352Y-7529095D01*
X24733780Y-8100523D01*
X24733780Y-7481476D01*
X34793580Y-9002504D02*
X35603104Y-9002504D01*
X35698342Y-8954885D01*
X35745961Y-8907266D01*
X35793580Y-8812028D01*
X35793580Y-8621552D01*
X35745961Y-8526314D01*
X35698342Y-8478695D01*
X35603104Y-8431076D01*
X34793580Y-8431076D01*
X34793580Y-8050123D02*
X34793580Y-7431076D01*
X35174533Y-7764409D01*
X35174533Y-7621552D01*
X35222152Y-7526314D01*
X35269771Y-7478695D01*
X35365009Y-7431076D01*
X35603104Y-7431076D01*
X35698342Y-7478695D01*
X35745961Y-7526314D01*
X35793580Y-7621552D01*
X35793580Y-7907266D01*
X35745961Y-8002504D01*
X35698342Y-8050123D01*
X59817095Y-997580D02*
X59817095Y-1807104D01*
X59864714Y-1902342D01*
X59912333Y-1949961D01*
X60007571Y-1997580D01*
X60198047Y-1997580D01*
X60293285Y-1949961D01*
X60340904Y-1902342D01*
X60388523Y-1807104D01*
X60388523Y-997580D01*
X61293285Y-1330914D02*
X61293285Y-1997580D01*
X61055190Y-949961D02*
X60817095Y-1664247D01*
X61436142Y-1664247D01*
X53447980Y-18795904D02*
X54257504Y-18795904D01*
X54352742Y-18748285D01*
X54400361Y-18700666D01*
X54447980Y-18605428D01*
X54447980Y-18414952D01*
X54400361Y-18319714D01*
X54352742Y-18272095D01*
X54257504Y-18224476D01*
X53447980Y-18224476D01*
X53447980Y-17843523D02*
X53447980Y-17176857D01*
X54447980Y-17605428D01*
X35331780Y-47902333D02*
X36046066Y-47902333D01*
X36188923Y-47949952D01*
X36284161Y-48045190D01*
X36331780Y-48188047D01*
X36331780Y-48283285D01*
X35331780Y-47521380D02*
X35331780Y-46902333D01*
X35712733Y-47235666D01*
X35712733Y-47092809D01*
X35760352Y-46997571D01*
X35807971Y-46949952D01*
X35903209Y-46902333D01*
X36141304Y-46902333D01*
X36236542Y-46949952D01*
X36284161Y-46997571D01*
X36331780Y-47092809D01*
X36331780Y-47378523D01*
X36284161Y-47473761D01*
X36236542Y-47521380D01*
X9078895Y-8475380D02*
X9078895Y-9284904D01*
X9126514Y-9380142D01*
X9174133Y-9427761D01*
X9269371Y-9475380D01*
X9459847Y-9475380D01*
X9555085Y-9427761D01*
X9602704Y-9380142D01*
X9650323Y-9284904D01*
X9650323Y-8475380D01*
X10555085Y-8475380D02*
X10364609Y-8475380D01*
X10269371Y-8523000D01*
X10221752Y-8570619D01*
X10126514Y-8713476D01*
X10078895Y-8903952D01*
X10078895Y-9284904D01*
X10126514Y-9380142D01*
X10174133Y-9427761D01*
X10269371Y-9475380D01*
X10459847Y-9475380D01*
X10555085Y-9427761D01*
X10602704Y-9380142D01*
X10650323Y-9284904D01*
X10650323Y-9046809D01*
X10602704Y-8951571D01*
X10555085Y-8903952D01*
X10459847Y-8856333D01*
X10269371Y-8856333D01*
X10174133Y-8903952D01*
X10126514Y-8951571D01*
X10078895Y-9046809D01*
X44570819Y-31946838D02*
X44523200Y-32042076D01*
X44427961Y-32137314D01*
X44285104Y-32280171D01*
X44237485Y-32375409D01*
X44237485Y-32470647D01*
X44475580Y-32423028D02*
X44427961Y-32518266D01*
X44332723Y-32613504D01*
X44142247Y-32661123D01*
X43808914Y-32661123D01*
X43618438Y-32613504D01*
X43523200Y-32518266D01*
X43475580Y-32423028D01*
X43475580Y-32232552D01*
X43523200Y-32137314D01*
X43618438Y-32042076D01*
X43808914Y-31994457D01*
X44142247Y-31994457D01*
X44332723Y-32042076D01*
X44427961Y-32137314D01*
X44475580Y-32232552D01*
X44475580Y-32423028D01*
X43808914Y-31137314D02*
X44475580Y-31137314D01*
X43427961Y-31375409D02*
X44142247Y-31613504D01*
X44142247Y-30994457D01*
X37558219Y-34587438D02*
X37510600Y-34682676D01*
X37415361Y-34777914D01*
X37272504Y-34920771D01*
X37224885Y-35016009D01*
X37224885Y-35111247D01*
X37462980Y-35063628D02*
X37415361Y-35158866D01*
X37320123Y-35254104D01*
X37129647Y-35301723D01*
X36796314Y-35301723D01*
X36605838Y-35254104D01*
X36510600Y-35158866D01*
X36462980Y-35063628D01*
X36462980Y-34873152D01*
X36510600Y-34777914D01*
X36605838Y-34682676D01*
X36796314Y-34635057D01*
X37129647Y-34635057D01*
X37320123Y-34682676D01*
X37415361Y-34777914D01*
X37462980Y-34873152D01*
X37462980Y-35063628D01*
X36558219Y-34254104D02*
X36510600Y-34206485D01*
X36462980Y-34111247D01*
X36462980Y-33873152D01*
X36510600Y-33777914D01*
X36558219Y-33730295D01*
X36653457Y-33682676D01*
X36748695Y-33682676D01*
X36891552Y-33730295D01*
X37462980Y-34301723D01*
X37462980Y-33682676D01*
X24172419Y-34536638D02*
X24124800Y-34631876D01*
X24029561Y-34727114D01*
X23886704Y-34869971D01*
X23839085Y-34965209D01*
X23839085Y-35060447D01*
X24077180Y-35012828D02*
X24029561Y-35108066D01*
X23934323Y-35203304D01*
X23743847Y-35250923D01*
X23410514Y-35250923D01*
X23220038Y-35203304D01*
X23124800Y-35108066D01*
X23077180Y-35012828D01*
X23077180Y-34822352D01*
X23124800Y-34727114D01*
X23220038Y-34631876D01*
X23410514Y-34584257D01*
X23743847Y-34584257D01*
X23934323Y-34631876D01*
X24029561Y-34727114D01*
X24077180Y-34822352D01*
X24077180Y-35012828D01*
X23077180Y-33679495D02*
X23077180Y-34155685D01*
X23553371Y-34203304D01*
X23505752Y-34155685D01*
X23458133Y-34060447D01*
X23458133Y-33822352D01*
X23505752Y-33727114D01*
X23553371Y-33679495D01*
X23648609Y-33631876D01*
X23886704Y-33631876D01*
X23981942Y-33679495D01*
X24029561Y-33727114D01*
X24077180Y-33822352D01*
X24077180Y-34060447D01*
X24029561Y-34155685D01*
X23981942Y-34203304D01*
X44406561Y-25470619D02*
X44311323Y-25423000D01*
X44216085Y-25327761D01*
X44073228Y-25184904D01*
X43977990Y-25137285D01*
X43882752Y-25137285D01*
X43930371Y-25375380D02*
X43835133Y-25327761D01*
X43739895Y-25232523D01*
X43692276Y-25042047D01*
X43692276Y-24708714D01*
X43739895Y-24518238D01*
X43835133Y-24423000D01*
X43930371Y-24375380D01*
X44120847Y-24375380D01*
X44216085Y-24423000D01*
X44311323Y-24518238D01*
X44358942Y-24708714D01*
X44358942Y-25042047D01*
X44311323Y-25232523D01*
X44216085Y-25327761D01*
X44120847Y-25375380D01*
X43930371Y-25375380D01*
X44692276Y-24375380D02*
X45311323Y-24375380D01*
X44977990Y-24756333D01*
X45120847Y-24756333D01*
X45216085Y-24803952D01*
X45263704Y-24851571D01*
X45311323Y-24946809D01*
X45311323Y-25184904D01*
X45263704Y-25280142D01*
X45216085Y-25327761D01*
X45120847Y-25375380D01*
X44835133Y-25375380D01*
X44739895Y-25327761D01*
X44692276Y-25280142D01*
X32086561Y-28050819D02*
X31991323Y-28003200D01*
X31896085Y-27907961D01*
X31753228Y-27765104D01*
X31657990Y-27717485D01*
X31562752Y-27717485D01*
X31610371Y-27955580D02*
X31515133Y-27907961D01*
X31419895Y-27812723D01*
X31372276Y-27622247D01*
X31372276Y-27288914D01*
X31419895Y-27098438D01*
X31515133Y-27003200D01*
X31610371Y-26955580D01*
X31800847Y-26955580D01*
X31896085Y-27003200D01*
X31991323Y-27098438D01*
X32038942Y-27288914D01*
X32038942Y-27622247D01*
X31991323Y-27812723D01*
X31896085Y-27907961D01*
X31800847Y-27955580D01*
X31610371Y-27955580D01*
X32991323Y-27955580D02*
X32419895Y-27955580D01*
X32705609Y-27955580D02*
X32705609Y-26955580D01*
X32610371Y-27098438D01*
X32515133Y-27193676D01*
X32419895Y-27241295D01*
D17*
X9135707Y-31937993D02*
X9135707Y-31766724D01*
X9435427Y-31852359D02*
X9135707Y-31852359D01*
X9135707Y-31709635D02*
X9435427Y-31609728D01*
X9135707Y-31509821D01*
X9421155Y-31424187D02*
X9435427Y-31381370D01*
X9435427Y-31310008D01*
X9421155Y-31281463D01*
X9406882Y-31267191D01*
X9378338Y-31252919D01*
X9349793Y-31252919D01*
X9321248Y-31267191D01*
X9306976Y-31281463D01*
X9292703Y-31310008D01*
X9278431Y-31367098D01*
X9264159Y-31395642D01*
X9249886Y-31409915D01*
X9221341Y-31424187D01*
X9192797Y-31424187D01*
X9164252Y-31409915D01*
X9149980Y-31395642D01*
X9135707Y-31367098D01*
X9135707Y-31295736D01*
X9149980Y-31252919D01*
X9164252Y-31138740D02*
X9149980Y-31124467D01*
X9135707Y-31095922D01*
X9135707Y-31024560D01*
X9149980Y-30996016D01*
X9164252Y-30981743D01*
X9192797Y-30967471D01*
X9221341Y-30967471D01*
X9264159Y-30981743D01*
X9435427Y-31153012D01*
X9435427Y-30967471D01*
D18*
D17*
X13235267Y-31795269D02*
X13235267Y-31624000D01*
X13534987Y-31709635D02*
X13235267Y-31709635D01*
X13235267Y-31566911D02*
X13534987Y-31467004D01*
X13235267Y-31367098D01*
X13520715Y-31281463D02*
X13534987Y-31238646D01*
X13534987Y-31167284D01*
X13520715Y-31138740D01*
X13506442Y-31124467D01*
X13477898Y-31110195D01*
X13449353Y-31110195D01*
X13420808Y-31124467D01*
X13406536Y-31138740D01*
X13392263Y-31167284D01*
X13377991Y-31224374D01*
X13363719Y-31252919D01*
X13349446Y-31267191D01*
X13320901Y-31281463D01*
X13292357Y-31281463D01*
X13263812Y-31267191D01*
X13249540Y-31252919D01*
X13235267Y-31224374D01*
X13235267Y-31153012D01*
X13249540Y-31110195D01*
D18*
M02*
