G04 #@! TF.GenerationSoftware,KiCad,Pcbnew,5.1.5+dfsg1-2build2*
G04 #@! TF.CreationDate,2024-07-20T11:36:23-04:00*
G04 #@! TF.ProjectId,pypilot_controller,70797069-6c6f-4745-9f63-6f6e74726f6c,rev?*
G04 #@! TF.SameCoordinates,Original*
G04 #@! TF.FileFunction,Copper,L2,Inr*
G04 #@! TF.FilePolarity,Positive*
%FSLAX46Y46*%
G04 Gerber Fmt 4.6, Leading zero omitted, Abs format (unit mm)*
G04 Created by KiCad (PCBNEW 5.1.5+dfsg1-2build2) date 2024-07-20 11:36:23*
%MOMM*%
%LPD*%
G04 APERTURE LIST*
%ADD10C,3.540000*%
%ADD11O,1.700000X1.700000*%
%ADD12R,1.700000X1.700000*%
%ADD13C,1.600000*%
%ADD14C,2.100000*%
%ADD15C,0.100000*%
%ADD16C,2.000000*%
%ADD17C,2.800000*%
%ADD18C,3.200000*%
%ADD19C,2.600000*%
%ADD20C,0.800000*%
%ADD21C,1.000000*%
%ADD22C,0.500000*%
%ADD23C,0.800000*%
%ADD24C,0.254000*%
G04 APERTURE END LIST*
D10*
X6150000Y-36470000D03*
X6050000Y-41550000D03*
X6150000Y-32410000D03*
X6150000Y-27330000D03*
D11*
X75057000Y-18491200D03*
X75057000Y-21031200D03*
D12*
X75057000Y-23571200D03*
X75082400Y-14325600D03*
D11*
X75082400Y-11785600D03*
X75082400Y-9245600D03*
D12*
X70169800Y-6448800D03*
D11*
X70169800Y-3908800D03*
D13*
X67741800Y-48920400D03*
X64741800Y-48920400D03*
X61741800Y-48920400D03*
X58741800Y-48920400D03*
D14*
X23616600Y-29032200D03*
X38836600Y-29032200D03*
G04 #@! TA.AperFunction,ViaPad*
D15*
G36*
X9982200Y-21556414D02*
G01*
X8567986Y-20142200D01*
X9982200Y-18727986D01*
X11396414Y-20142200D01*
X9982200Y-21556414D01*
G37*
G04 #@! TD.AperFunction*
D16*
X13517734Y-16606666D03*
X24211134Y-16733666D03*
G04 #@! TA.AperFunction,ViaPad*
D15*
G36*
X20675600Y-21683414D02*
G01*
X19261386Y-20269200D01*
X20675600Y-18854986D01*
X22089814Y-20269200D01*
X20675600Y-21683414D01*
G37*
G04 #@! TD.AperFunction*
D17*
X11444600Y-41483400D03*
X16444600Y-41483400D03*
X11444600Y-48483400D03*
X16444600Y-48483400D03*
X21920200Y-41630600D03*
X26920200Y-41630600D03*
X21920200Y-48630600D03*
X26920200Y-48630600D03*
X50237400Y-48564800D03*
X45237400Y-48564800D03*
X50237400Y-41564800D03*
X45237400Y-41564800D03*
X34649400Y-41529000D03*
X39649400Y-41529000D03*
X34649400Y-48529000D03*
X39649400Y-48529000D03*
D18*
X75000000Y-48100000D03*
X75000000Y-4600000D03*
X5300000Y-48100000D03*
X5300000Y-4600000D03*
D19*
X76047600Y-37084000D03*
X76047600Y-43738800D03*
D20*
X62397400Y-17632000D03*
X26150000Y-33650000D03*
X23650000Y-32650000D03*
X26250000Y-29450000D03*
X26250000Y-28350000D03*
X26250000Y-30500000D03*
X25050000Y-33650000D03*
X65532000Y-27762200D03*
X71882000Y-19456400D03*
X72034400Y-15544800D03*
X54991000Y-4318000D03*
X55041800Y-8890000D03*
X62712341Y-19879014D03*
X16179800Y-3860800D03*
X21031200Y-10565536D03*
X34137600Y-11074400D03*
X29387800Y-3632200D03*
X45212000Y-9956800D03*
X16052800Y-5486400D03*
X60045600Y-18872200D03*
X62047400Y-11455400D03*
X40150000Y-17850000D03*
D21*
X26900000Y-38450000D03*
D20*
X48550000Y-20100000D03*
X48550000Y-18800000D03*
X48550000Y-17550000D03*
X27950000Y-24650000D03*
X37700000Y-17900000D03*
X48550000Y-21500000D03*
X26950000Y-24650000D03*
X25850000Y-24650000D03*
X29133800Y-15748000D03*
X30350000Y-16650000D03*
X30350000Y-14850000D03*
X48500000Y-22900000D03*
X16850000Y-24700000D03*
X16000000Y-26200000D03*
X38950000Y-17850000D03*
X34692388Y-3712412D03*
X61247400Y-15482000D03*
X57297400Y-11832000D03*
X68021200Y-25603200D03*
X55097400Y-14032000D03*
X43916600Y-3505200D03*
X67056000Y-29641800D03*
X67310000Y-32207200D03*
X59563000Y-27076400D03*
X76682600Y-29591000D03*
X58454899Y-15274501D03*
X52047400Y-25107000D03*
X58343800Y-20548600D03*
X59207400Y-23932000D03*
X68224400Y-22174200D03*
X63703200Y-33401000D03*
X61518800Y-24917400D03*
X50750000Y-9950000D03*
X37950000Y-34425000D03*
X35585400Y-14757400D03*
X22504400Y-11988800D03*
X31242000Y-28498800D03*
X43450000Y-26150000D03*
X38582600Y-13817600D03*
X47931200Y-9915000D03*
X57099200Y-27686000D03*
X63195200Y-24714200D03*
X59747400Y-11082000D03*
X20904200Y-7569200D03*
X63797400Y-22832000D03*
X20955000Y-8915400D03*
X28650000Y-36450000D03*
X28600000Y-31600000D03*
X28600000Y-32850000D03*
X28600000Y-34100000D03*
X28600000Y-35300000D03*
X30048200Y-9829800D03*
X48900000Y-26500000D03*
X52650000Y-36750000D03*
X53250000Y-35450000D03*
X52650000Y-34250000D03*
X53250000Y-33075000D03*
X52750000Y-31650000D03*
X48850000Y-25150000D03*
X45350000Y-26050000D03*
X45350000Y-27350000D03*
X43256200Y-14528800D03*
X64797400Y-22232000D03*
X32232600Y-8712200D03*
X58731088Y-12031160D03*
X32054800Y-7620000D03*
X50977800Y-13436600D03*
X57175400Y-20091400D03*
X57683400Y-23876000D03*
X53722400Y-27407000D03*
X27914600Y-27863800D03*
X43700000Y-30845000D03*
X41706800Y-13766800D03*
X10642600Y-2260600D03*
X64693800Y-2159000D03*
X61686508Y-18792892D03*
X64617600Y-26390600D03*
X56616600Y-25933400D03*
X68097400Y-9220200D03*
X59596300Y-17483100D03*
X68859400Y-9372600D03*
X75615800Y-26187400D03*
X52730400Y-3073400D03*
X13550000Y-36850000D03*
X12350000Y-35550000D03*
X14850000Y-31825000D03*
X11950000Y-36950000D03*
X10950000Y-35750000D03*
X14850000Y-33050000D03*
X13250000Y-38150000D03*
X14850000Y-38250000D03*
X73660000Y-43916600D03*
X67081400Y-43842700D03*
X61493400Y-40640000D03*
X59309000Y-36118800D03*
X63169800Y-44602400D03*
X62814200Y-39674800D03*
X58115200Y-45770800D03*
X68402200Y-43281600D03*
X72372400Y-41282800D03*
X64465200Y-43357800D03*
X56792100Y-42420300D03*
X71704200Y-48539400D03*
D22*
X48096800Y-29057600D02*
X38130800Y-29057600D01*
X52047400Y-25107000D02*
X48096800Y-29057600D01*
X48331199Y-10314999D02*
X48331199Y-12731199D01*
X47931200Y-9915000D02*
X48331199Y-10314999D01*
X48331199Y-12731199D02*
X53100000Y-17500000D01*
X53100000Y-17500000D02*
X53100000Y-24750000D01*
X56036000Y-27686000D02*
X57099200Y-27686000D01*
X53100000Y-24750000D02*
X56036000Y-27686000D01*
X27914600Y-27863800D02*
X32308800Y-32258000D01*
X48871400Y-32258000D02*
X53722400Y-27407000D01*
X32308800Y-32258000D02*
X48871400Y-32258000D01*
D23*
X68021200Y-44782500D02*
X67081400Y-43842700D01*
X72669400Y-44780200D02*
X68021200Y-44782500D01*
X73660000Y-43916600D02*
X72669400Y-44780200D01*
X63169800Y-40030400D02*
X62814200Y-39674800D01*
X63169800Y-44602400D02*
X63169800Y-40030400D01*
X59283600Y-44602400D02*
X58115200Y-45770800D01*
X63169800Y-44602400D02*
X59283600Y-44602400D01*
X63169800Y-44602400D02*
X65278000Y-44602400D01*
X67741800Y-47066200D02*
X67741800Y-48920400D01*
X65278000Y-44602400D02*
X67741800Y-47066200D01*
D24*
G36*
X30869235Y-14271005D02*
G01*
X34451154Y-16516011D01*
X34473444Y-16527101D01*
X34497469Y-16533630D01*
X34518824Y-16535400D01*
X48820662Y-16510221D01*
X48921742Y-23365569D01*
X44424804Y-25223000D01*
X43916609Y-25223000D01*
X43751898Y-25154774D01*
X43551939Y-25115000D01*
X43348061Y-25115000D01*
X43148102Y-25154774D01*
X42983391Y-25223000D01*
X18550000Y-25223000D01*
X18525224Y-25225440D01*
X18501399Y-25232667D01*
X18471692Y-25250015D01*
X9283635Y-32446082D01*
X4278235Y-32228456D01*
X4376994Y-22451283D01*
X4376850Y-22443825D01*
X4084864Y-16445633D01*
X11882734Y-16445633D01*
X11882734Y-16767699D01*
X11945566Y-17083578D01*
X12068816Y-17381129D01*
X12247747Y-17648918D01*
X12475482Y-17876653D01*
X12743271Y-18055584D01*
X13040822Y-18178834D01*
X13356701Y-18241666D01*
X13678767Y-18241666D01*
X13994646Y-18178834D01*
X14292197Y-18055584D01*
X14559986Y-17876653D01*
X14787721Y-17648918D01*
X14966652Y-17381129D01*
X15089902Y-17083578D01*
X15152734Y-16767699D01*
X15152734Y-16572633D01*
X22576134Y-16572633D01*
X22576134Y-16894699D01*
X22638966Y-17210578D01*
X22762216Y-17508129D01*
X22941147Y-17775918D01*
X23168882Y-18003653D01*
X23436671Y-18182584D01*
X23734222Y-18305834D01*
X24050101Y-18368666D01*
X24372167Y-18368666D01*
X24688046Y-18305834D01*
X24985597Y-18182584D01*
X25253386Y-18003653D01*
X25481121Y-17775918D01*
X25660052Y-17508129D01*
X25783302Y-17210578D01*
X25846134Y-16894699D01*
X25846134Y-16572633D01*
X25783302Y-16256754D01*
X25660052Y-15959203D01*
X25481121Y-15691414D01*
X25253386Y-15463679D01*
X24985597Y-15284748D01*
X24688046Y-15161498D01*
X24372167Y-15098666D01*
X24050101Y-15098666D01*
X23734222Y-15161498D01*
X23436671Y-15284748D01*
X23168882Y-15463679D01*
X22941147Y-15691414D01*
X22762216Y-15959203D01*
X22638966Y-16256754D01*
X22576134Y-16572633D01*
X15152734Y-16572633D01*
X15152734Y-16445633D01*
X15089902Y-16129754D01*
X14966652Y-15832203D01*
X14787721Y-15564414D01*
X14559986Y-15336679D01*
X14292197Y-15157748D01*
X13994646Y-15034498D01*
X13678767Y-14971666D01*
X13356701Y-14971666D01*
X13040822Y-15034498D01*
X12743271Y-15157748D01*
X12475482Y-15336679D01*
X12247747Y-15564414D01*
X12068816Y-15832203D01*
X11945566Y-16129754D01*
X11882734Y-16445633D01*
X4084864Y-16445633D01*
X3943316Y-13537856D01*
X23463069Y-13487418D01*
X30869235Y-14271005D01*
G37*
X30869235Y-14271005D02*
X34451154Y-16516011D01*
X34473444Y-16527101D01*
X34497469Y-16533630D01*
X34518824Y-16535400D01*
X48820662Y-16510221D01*
X48921742Y-23365569D01*
X44424804Y-25223000D01*
X43916609Y-25223000D01*
X43751898Y-25154774D01*
X43551939Y-25115000D01*
X43348061Y-25115000D01*
X43148102Y-25154774D01*
X42983391Y-25223000D01*
X18550000Y-25223000D01*
X18525224Y-25225440D01*
X18501399Y-25232667D01*
X18471692Y-25250015D01*
X9283635Y-32446082D01*
X4278235Y-32228456D01*
X4376994Y-22451283D01*
X4376850Y-22443825D01*
X4084864Y-16445633D01*
X11882734Y-16445633D01*
X11882734Y-16767699D01*
X11945566Y-17083578D01*
X12068816Y-17381129D01*
X12247747Y-17648918D01*
X12475482Y-17876653D01*
X12743271Y-18055584D01*
X13040822Y-18178834D01*
X13356701Y-18241666D01*
X13678767Y-18241666D01*
X13994646Y-18178834D01*
X14292197Y-18055584D01*
X14559986Y-17876653D01*
X14787721Y-17648918D01*
X14966652Y-17381129D01*
X15089902Y-17083578D01*
X15152734Y-16767699D01*
X15152734Y-16572633D01*
X22576134Y-16572633D01*
X22576134Y-16894699D01*
X22638966Y-17210578D01*
X22762216Y-17508129D01*
X22941147Y-17775918D01*
X23168882Y-18003653D01*
X23436671Y-18182584D01*
X23734222Y-18305834D01*
X24050101Y-18368666D01*
X24372167Y-18368666D01*
X24688046Y-18305834D01*
X24985597Y-18182584D01*
X25253386Y-18003653D01*
X25481121Y-17775918D01*
X25660052Y-17508129D01*
X25783302Y-17210578D01*
X25846134Y-16894699D01*
X25846134Y-16572633D01*
X25783302Y-16256754D01*
X25660052Y-15959203D01*
X25481121Y-15691414D01*
X25253386Y-15463679D01*
X24985597Y-15284748D01*
X24688046Y-15161498D01*
X24372167Y-15098666D01*
X24050101Y-15098666D01*
X23734222Y-15161498D01*
X23436671Y-15284748D01*
X23168882Y-15463679D01*
X22941147Y-15691414D01*
X22762216Y-15959203D01*
X22638966Y-16256754D01*
X22576134Y-16572633D01*
X15152734Y-16572633D01*
X15152734Y-16445633D01*
X15089902Y-16129754D01*
X14966652Y-15832203D01*
X14787721Y-15564414D01*
X14559986Y-15336679D01*
X14292197Y-15157748D01*
X13994646Y-15034498D01*
X13678767Y-14971666D01*
X13356701Y-14971666D01*
X13040822Y-15034498D01*
X12743271Y-15157748D01*
X12475482Y-15336679D01*
X12247747Y-15564414D01*
X12068816Y-15832203D01*
X11945566Y-16129754D01*
X11882734Y-16445633D01*
X4084864Y-16445633D01*
X3943316Y-13537856D01*
X23463069Y-13487418D01*
X30869235Y-14271005D01*
G36*
X63776595Y-2649256D02*
G01*
X63889863Y-2818774D01*
X64034026Y-2962937D01*
X64203544Y-3076205D01*
X64391902Y-3154226D01*
X64591861Y-3194000D01*
X64795739Y-3194000D01*
X64995698Y-3154226D01*
X65184056Y-3076205D01*
X65353574Y-2962937D01*
X65497737Y-2818774D01*
X65611005Y-2649256D01*
X65682356Y-2477000D01*
X71499414Y-2477000D01*
X72476376Y-6629088D01*
X72484426Y-6652647D01*
X72496918Y-6674183D01*
X72513371Y-6692868D01*
X72533153Y-6707984D01*
X72555504Y-6718950D01*
X72576678Y-6724840D01*
X77022317Y-7555344D01*
X76886406Y-28576262D01*
X76784539Y-28556000D01*
X76580661Y-28556000D01*
X76380702Y-28595774D01*
X76192344Y-28673795D01*
X76022826Y-28787063D01*
X75878663Y-28931226D01*
X75765395Y-29100744D01*
X75687374Y-29289102D01*
X75647600Y-29489061D01*
X75647600Y-29692939D01*
X75687374Y-29892898D01*
X75765395Y-30081256D01*
X75878663Y-30250774D01*
X76022826Y-30394937D01*
X76192344Y-30508205D01*
X76380702Y-30586226D01*
X76580661Y-30626000D01*
X76784539Y-30626000D01*
X76806696Y-30621593D01*
X71163404Y-34172975D01*
X64399607Y-34168304D01*
X64507137Y-34060774D01*
X64620405Y-33891256D01*
X64698426Y-33702898D01*
X64738200Y-33502939D01*
X64738200Y-33299061D01*
X64698426Y-33099102D01*
X64620405Y-32910744D01*
X64507137Y-32741226D01*
X64362974Y-32597063D01*
X64193456Y-32483795D01*
X64005098Y-32405774D01*
X63805139Y-32366000D01*
X63601261Y-32366000D01*
X63401302Y-32405774D01*
X63212944Y-32483795D01*
X63043426Y-32597063D01*
X62899263Y-32741226D01*
X62785995Y-32910744D01*
X62707974Y-33099102D01*
X62668200Y-33299061D01*
X62668200Y-33502939D01*
X62707974Y-33702898D01*
X62785995Y-33891256D01*
X62899263Y-34060774D01*
X63005831Y-34167342D01*
X56820625Y-34163071D01*
X56385115Y-32154884D01*
X56377479Y-32131187D01*
X56365367Y-32109436D01*
X56361478Y-32105261D01*
X66275000Y-32105261D01*
X66275000Y-32309139D01*
X66314774Y-32509098D01*
X66392795Y-32697456D01*
X66506063Y-32866974D01*
X66650226Y-33011137D01*
X66819744Y-33124405D01*
X67008102Y-33202426D01*
X67208061Y-33242200D01*
X67411939Y-33242200D01*
X67611898Y-33202426D01*
X67800256Y-33124405D01*
X67969774Y-33011137D01*
X68113937Y-32866974D01*
X68227205Y-32697456D01*
X68305226Y-32509098D01*
X68345000Y-32309139D01*
X68345000Y-32105261D01*
X68305226Y-31905302D01*
X68227205Y-31716944D01*
X68113937Y-31547426D01*
X67969774Y-31403263D01*
X67800256Y-31289995D01*
X67611898Y-31211974D01*
X67411939Y-31172200D01*
X67208061Y-31172200D01*
X67008102Y-31211974D01*
X66819744Y-31289995D01*
X66650226Y-31403263D01*
X66506063Y-31547426D01*
X66392795Y-31716944D01*
X66314774Y-31905302D01*
X66275000Y-32105261D01*
X56361478Y-32105261D01*
X56340552Y-32082802D01*
X53543164Y-29834901D01*
X53542991Y-29539861D01*
X66021000Y-29539861D01*
X66021000Y-29743739D01*
X66060774Y-29943698D01*
X66138795Y-30132056D01*
X66252063Y-30301574D01*
X66396226Y-30445737D01*
X66565744Y-30559005D01*
X66754102Y-30637026D01*
X66954061Y-30676800D01*
X67157939Y-30676800D01*
X67357898Y-30637026D01*
X67546256Y-30559005D01*
X67715774Y-30445737D01*
X67859937Y-30301574D01*
X67973205Y-30132056D01*
X68051226Y-29943698D01*
X68091000Y-29743739D01*
X68091000Y-29539861D01*
X68051226Y-29339902D01*
X67973205Y-29151544D01*
X67859937Y-28982026D01*
X67715774Y-28837863D01*
X67546256Y-28724595D01*
X67357898Y-28646574D01*
X67157939Y-28606800D01*
X66954061Y-28606800D01*
X66754102Y-28646574D01*
X66565744Y-28724595D01*
X66396226Y-28837863D01*
X66252063Y-28982026D01*
X66138795Y-29151544D01*
X66060774Y-29339902D01*
X66021000Y-29539861D01*
X53542991Y-29539861D01*
X53542578Y-28838401D01*
X53967444Y-28413535D01*
X54024298Y-28402226D01*
X54212656Y-28324205D01*
X54382174Y-28210937D01*
X54526337Y-28066774D01*
X54639605Y-27897256D01*
X54717626Y-27708898D01*
X54732507Y-27634086D01*
X55379470Y-28281049D01*
X55407183Y-28314817D01*
X55440951Y-28342530D01*
X55440953Y-28342532D01*
X55512452Y-28401210D01*
X55541941Y-28425411D01*
X55695687Y-28507589D01*
X55862510Y-28558195D01*
X55992523Y-28571000D01*
X55992533Y-28571000D01*
X56035999Y-28575281D01*
X56079466Y-28571000D01*
X56560746Y-28571000D01*
X56608944Y-28603205D01*
X56797302Y-28681226D01*
X56997261Y-28721000D01*
X57201139Y-28721000D01*
X57401098Y-28681226D01*
X57589456Y-28603205D01*
X57758974Y-28489937D01*
X57903137Y-28345774D01*
X58016405Y-28176256D01*
X58094426Y-27987898D01*
X58134200Y-27787939D01*
X58134200Y-27584061D01*
X58094426Y-27384102D01*
X58016405Y-27195744D01*
X57903137Y-27026226D01*
X57851372Y-26974461D01*
X58528000Y-26974461D01*
X58528000Y-27178339D01*
X58567774Y-27378298D01*
X58645795Y-27566656D01*
X58759063Y-27736174D01*
X58903226Y-27880337D01*
X59072744Y-27993605D01*
X59261102Y-28071626D01*
X59461061Y-28111400D01*
X59664939Y-28111400D01*
X59864898Y-28071626D01*
X60053256Y-27993605D01*
X60222774Y-27880337D01*
X60366937Y-27736174D01*
X60480205Y-27566656D01*
X60558226Y-27378298D01*
X60598000Y-27178339D01*
X60598000Y-26974461D01*
X60558226Y-26774502D01*
X60480205Y-26586144D01*
X60366937Y-26416626D01*
X60238972Y-26288661D01*
X63582600Y-26288661D01*
X63582600Y-26492539D01*
X63622374Y-26692498D01*
X63700395Y-26880856D01*
X63813663Y-27050374D01*
X63957826Y-27194537D01*
X64127344Y-27307805D01*
X64315702Y-27385826D01*
X64515661Y-27425600D01*
X64719539Y-27425600D01*
X64919498Y-27385826D01*
X65107856Y-27307805D01*
X65277374Y-27194537D01*
X65421537Y-27050374D01*
X65534805Y-26880856D01*
X65612826Y-26692498D01*
X65652600Y-26492539D01*
X65652600Y-26288661D01*
X65612826Y-26088702D01*
X65534805Y-25900344D01*
X65421537Y-25730826D01*
X65277374Y-25586663D01*
X65149561Y-25501261D01*
X66986200Y-25501261D01*
X66986200Y-25705139D01*
X67025974Y-25905098D01*
X67103995Y-26093456D01*
X67217263Y-26262974D01*
X67361426Y-26407137D01*
X67530944Y-26520405D01*
X67719302Y-26598426D01*
X67919261Y-26638200D01*
X68123139Y-26638200D01*
X68323098Y-26598426D01*
X68511456Y-26520405D01*
X68680974Y-26407137D01*
X68825137Y-26262974D01*
X68938405Y-26093456D01*
X68941716Y-26085461D01*
X74580800Y-26085461D01*
X74580800Y-26289339D01*
X74620574Y-26489298D01*
X74698595Y-26677656D01*
X74811863Y-26847174D01*
X74956026Y-26991337D01*
X75125544Y-27104605D01*
X75313902Y-27182626D01*
X75513861Y-27222400D01*
X75717739Y-27222400D01*
X75917698Y-27182626D01*
X76106056Y-27104605D01*
X76275574Y-26991337D01*
X76419737Y-26847174D01*
X76533005Y-26677656D01*
X76611026Y-26489298D01*
X76650800Y-26289339D01*
X76650800Y-26085461D01*
X76611026Y-25885502D01*
X76533005Y-25697144D01*
X76419737Y-25527626D01*
X76275574Y-25383463D01*
X76106056Y-25270195D01*
X75917698Y-25192174D01*
X75717739Y-25152400D01*
X75513861Y-25152400D01*
X75313902Y-25192174D01*
X75125544Y-25270195D01*
X74956026Y-25383463D01*
X74811863Y-25527626D01*
X74698595Y-25697144D01*
X74620574Y-25885502D01*
X74580800Y-26085461D01*
X68941716Y-26085461D01*
X69016426Y-25905098D01*
X69056200Y-25705139D01*
X69056200Y-25501261D01*
X69016426Y-25301302D01*
X68938405Y-25112944D01*
X68825137Y-24943426D01*
X68680974Y-24799263D01*
X68511456Y-24685995D01*
X68323098Y-24607974D01*
X68123139Y-24568200D01*
X67919261Y-24568200D01*
X67719302Y-24607974D01*
X67530944Y-24685995D01*
X67361426Y-24799263D01*
X67217263Y-24943426D01*
X67103995Y-25112944D01*
X67025974Y-25301302D01*
X66986200Y-25501261D01*
X65149561Y-25501261D01*
X65107856Y-25473395D01*
X64919498Y-25395374D01*
X64719539Y-25355600D01*
X64515661Y-25355600D01*
X64315702Y-25395374D01*
X64127344Y-25473395D01*
X63957826Y-25586663D01*
X63813663Y-25730826D01*
X63700395Y-25900344D01*
X63622374Y-26088702D01*
X63582600Y-26288661D01*
X60238972Y-26288661D01*
X60222774Y-26272463D01*
X60053256Y-26159195D01*
X59864898Y-26081174D01*
X59664939Y-26041400D01*
X59461061Y-26041400D01*
X59261102Y-26081174D01*
X59072744Y-26159195D01*
X58903226Y-26272463D01*
X58759063Y-26416626D01*
X58645795Y-26586144D01*
X58567774Y-26774502D01*
X58528000Y-26974461D01*
X57851372Y-26974461D01*
X57758974Y-26882063D01*
X57589456Y-26768795D01*
X57401098Y-26690774D01*
X57335905Y-26677806D01*
X57420537Y-26593174D01*
X57533805Y-26423656D01*
X57611826Y-26235298D01*
X57651600Y-26035339D01*
X57651600Y-25831461D01*
X57611826Y-25631502D01*
X57533805Y-25443144D01*
X57420537Y-25273626D01*
X57276374Y-25129463D01*
X57106856Y-25016195D01*
X56918498Y-24938174D01*
X56718539Y-24898400D01*
X56514661Y-24898400D01*
X56314702Y-24938174D01*
X56126344Y-25016195D01*
X55956826Y-25129463D01*
X55812663Y-25273626D01*
X55699395Y-25443144D01*
X55621374Y-25631502D01*
X55581600Y-25831461D01*
X55581600Y-25980021D01*
X53985000Y-24383422D01*
X53985000Y-23774061D01*
X56648400Y-23774061D01*
X56648400Y-23977939D01*
X56688174Y-24177898D01*
X56766195Y-24366256D01*
X56879463Y-24535774D01*
X57023626Y-24679937D01*
X57193144Y-24793205D01*
X57381502Y-24871226D01*
X57581461Y-24911000D01*
X57785339Y-24911000D01*
X57985298Y-24871226D01*
X58173656Y-24793205D01*
X58343174Y-24679937D01*
X58417400Y-24605711D01*
X58547626Y-24735937D01*
X58717144Y-24849205D01*
X58905502Y-24927226D01*
X59105461Y-24967000D01*
X59309339Y-24967000D01*
X59509298Y-24927226D01*
X59697656Y-24849205D01*
X59748157Y-24815461D01*
X60483800Y-24815461D01*
X60483800Y-25019339D01*
X60523574Y-25219298D01*
X60601595Y-25407656D01*
X60714863Y-25577174D01*
X60859026Y-25721337D01*
X61028544Y-25834605D01*
X61216902Y-25912626D01*
X61416861Y-25952400D01*
X61620739Y-25952400D01*
X61820698Y-25912626D01*
X62009056Y-25834605D01*
X62178574Y-25721337D01*
X62322737Y-25577174D01*
X62431575Y-25414286D01*
X62535426Y-25518137D01*
X62704944Y-25631405D01*
X62893302Y-25709426D01*
X63093261Y-25749200D01*
X63297139Y-25749200D01*
X63497098Y-25709426D01*
X63685456Y-25631405D01*
X63854974Y-25518137D01*
X63999137Y-25373974D01*
X64112405Y-25204456D01*
X64190426Y-25016098D01*
X64230200Y-24816139D01*
X64230200Y-24612261D01*
X64190426Y-24412302D01*
X64112405Y-24223944D01*
X63999137Y-24054426D01*
X63854974Y-23910263D01*
X63790226Y-23867000D01*
X63899339Y-23867000D01*
X64099298Y-23827226D01*
X64287656Y-23749205D01*
X64457174Y-23635937D01*
X64601337Y-23491774D01*
X64714605Y-23322256D01*
X64737493Y-23267000D01*
X64899339Y-23267000D01*
X65099298Y-23227226D01*
X65287656Y-23149205D01*
X65457174Y-23035937D01*
X65601337Y-22891774D01*
X65714605Y-22722256D01*
X65792626Y-22533898D01*
X65832400Y-22333939D01*
X65832400Y-22130061D01*
X65820903Y-22072261D01*
X67189400Y-22072261D01*
X67189400Y-22276139D01*
X67229174Y-22476098D01*
X67307195Y-22664456D01*
X67420463Y-22833974D01*
X67564626Y-22978137D01*
X67734144Y-23091405D01*
X67922502Y-23169426D01*
X68122461Y-23209200D01*
X68326339Y-23209200D01*
X68526298Y-23169426D01*
X68714656Y-23091405D01*
X68884174Y-22978137D01*
X69028337Y-22833974D01*
X69141605Y-22664456D01*
X69219626Y-22476098D01*
X69259400Y-22276139D01*
X69259400Y-22072261D01*
X69219626Y-21872302D01*
X69141605Y-21683944D01*
X69028337Y-21514426D01*
X68884174Y-21370263D01*
X68714656Y-21256995D01*
X68526298Y-21178974D01*
X68326339Y-21139200D01*
X68122461Y-21139200D01*
X67922502Y-21178974D01*
X67734144Y-21256995D01*
X67564626Y-21370263D01*
X67420463Y-21514426D01*
X67307195Y-21683944D01*
X67229174Y-21872302D01*
X67189400Y-22072261D01*
X65820903Y-22072261D01*
X65792626Y-21930102D01*
X65714605Y-21741744D01*
X65601337Y-21572226D01*
X65457174Y-21428063D01*
X65287656Y-21314795D01*
X65099298Y-21236774D01*
X64899339Y-21197000D01*
X64695461Y-21197000D01*
X64495502Y-21236774D01*
X64307144Y-21314795D01*
X64137626Y-21428063D01*
X63993463Y-21572226D01*
X63880195Y-21741744D01*
X63857307Y-21797000D01*
X63695461Y-21797000D01*
X63495502Y-21836774D01*
X63307144Y-21914795D01*
X63137626Y-22028063D01*
X62993463Y-22172226D01*
X62880195Y-22341744D01*
X62802174Y-22530102D01*
X62762400Y-22730061D01*
X62762400Y-22933939D01*
X62802174Y-23133898D01*
X62880195Y-23322256D01*
X62993463Y-23491774D01*
X63137626Y-23635937D01*
X63202374Y-23679200D01*
X63093261Y-23679200D01*
X62893302Y-23718974D01*
X62704944Y-23796995D01*
X62535426Y-23910263D01*
X62391263Y-24054426D01*
X62282425Y-24217314D01*
X62178574Y-24113463D01*
X62009056Y-24000195D01*
X61820698Y-23922174D01*
X61620739Y-23882400D01*
X61416861Y-23882400D01*
X61216902Y-23922174D01*
X61028544Y-24000195D01*
X60859026Y-24113463D01*
X60714863Y-24257626D01*
X60601595Y-24427144D01*
X60523574Y-24615502D01*
X60483800Y-24815461D01*
X59748157Y-24815461D01*
X59867174Y-24735937D01*
X60011337Y-24591774D01*
X60124605Y-24422256D01*
X60202626Y-24233898D01*
X60242400Y-24033939D01*
X60242400Y-23830061D01*
X60202626Y-23630102D01*
X60124605Y-23441744D01*
X60011337Y-23272226D01*
X59867174Y-23128063D01*
X59697656Y-23014795D01*
X59509298Y-22936774D01*
X59309339Y-22897000D01*
X59105461Y-22897000D01*
X58905502Y-22936774D01*
X58717144Y-23014795D01*
X58547626Y-23128063D01*
X58473400Y-23202289D01*
X58343174Y-23072063D01*
X58173656Y-22958795D01*
X57985298Y-22880774D01*
X57785339Y-22841000D01*
X57581461Y-22841000D01*
X57381502Y-22880774D01*
X57193144Y-22958795D01*
X57023626Y-23072063D01*
X56879463Y-23216226D01*
X56766195Y-23385744D01*
X56688174Y-23574102D01*
X56648400Y-23774061D01*
X53985000Y-23774061D01*
X53985000Y-19989461D01*
X56140400Y-19989461D01*
X56140400Y-20193339D01*
X56180174Y-20393298D01*
X56258195Y-20581656D01*
X56371463Y-20751174D01*
X56515626Y-20895337D01*
X56685144Y-21008605D01*
X56873502Y-21086626D01*
X57073461Y-21126400D01*
X57277339Y-21126400D01*
X57460717Y-21089924D01*
X57539863Y-21208374D01*
X57684026Y-21352537D01*
X57853544Y-21465805D01*
X58041902Y-21543826D01*
X58241861Y-21583600D01*
X58445739Y-21583600D01*
X58645698Y-21543826D01*
X58834056Y-21465805D01*
X59003574Y-21352537D01*
X59147737Y-21208374D01*
X59261005Y-21038856D01*
X59339026Y-20850498D01*
X59378800Y-20650539D01*
X59378800Y-20446661D01*
X59339026Y-20246702D01*
X59261005Y-20058344D01*
X59147737Y-19888826D01*
X59003574Y-19744663D01*
X58834056Y-19631395D01*
X58645698Y-19553374D01*
X58445739Y-19513600D01*
X58241861Y-19513600D01*
X58058483Y-19550076D01*
X57979337Y-19431626D01*
X57835174Y-19287463D01*
X57665656Y-19174195D01*
X57477298Y-19096174D01*
X57277339Y-19056400D01*
X57073461Y-19056400D01*
X56873502Y-19096174D01*
X56685144Y-19174195D01*
X56515626Y-19287463D01*
X56371463Y-19431626D01*
X56258195Y-19601144D01*
X56180174Y-19789502D01*
X56140400Y-19989461D01*
X53985000Y-19989461D01*
X53985000Y-18690953D01*
X60651508Y-18690953D01*
X60651508Y-18894831D01*
X60691282Y-19094790D01*
X60769303Y-19283148D01*
X60882571Y-19452666D01*
X61026734Y-19596829D01*
X61196252Y-19710097D01*
X61384610Y-19788118D01*
X61584569Y-19827892D01*
X61788447Y-19827892D01*
X61988406Y-19788118D01*
X62176764Y-19710097D01*
X62346282Y-19596829D01*
X62490445Y-19452666D01*
X62603713Y-19283148D01*
X62681734Y-19094790D01*
X62721508Y-18894831D01*
X62721508Y-18690953D01*
X62681734Y-18490994D01*
X62621237Y-18344940D01*
X73572000Y-18344940D01*
X73572000Y-18637460D01*
X73629068Y-18924358D01*
X73741010Y-19194611D01*
X73903525Y-19437832D01*
X74110368Y-19644675D01*
X74284760Y-19761200D01*
X74110368Y-19877725D01*
X73903525Y-20084568D01*
X73741010Y-20327789D01*
X73629068Y-20598042D01*
X73572000Y-20884940D01*
X73572000Y-21177460D01*
X73629068Y-21464358D01*
X73741010Y-21734611D01*
X73903525Y-21977832D01*
X74110368Y-22184675D01*
X74353589Y-22347190D01*
X74623842Y-22459132D01*
X74910740Y-22516200D01*
X75203260Y-22516200D01*
X75490158Y-22459132D01*
X75760411Y-22347190D01*
X76003632Y-22184675D01*
X76210475Y-21977832D01*
X76372990Y-21734611D01*
X76484932Y-21464358D01*
X76542000Y-21177460D01*
X76542000Y-20884940D01*
X76484932Y-20598042D01*
X76372990Y-20327789D01*
X76210475Y-20084568D01*
X76003632Y-19877725D01*
X75829240Y-19761200D01*
X76003632Y-19644675D01*
X76210475Y-19437832D01*
X76372990Y-19194611D01*
X76484932Y-18924358D01*
X76542000Y-18637460D01*
X76542000Y-18344940D01*
X76484932Y-18058042D01*
X76372990Y-17787789D01*
X76210475Y-17544568D01*
X76003632Y-17337725D01*
X75760411Y-17175210D01*
X75490158Y-17063268D01*
X75203260Y-17006200D01*
X74910740Y-17006200D01*
X74623842Y-17063268D01*
X74353589Y-17175210D01*
X74110368Y-17337725D01*
X73903525Y-17544568D01*
X73741010Y-17787789D01*
X73629068Y-18058042D01*
X73572000Y-18344940D01*
X62621237Y-18344940D01*
X62603713Y-18302636D01*
X62490445Y-18133118D01*
X62346282Y-17988955D01*
X62176764Y-17875687D01*
X61988406Y-17797666D01*
X61788447Y-17757892D01*
X61584569Y-17757892D01*
X61384610Y-17797666D01*
X61196252Y-17875687D01*
X61026734Y-17988955D01*
X60882571Y-18133118D01*
X60769303Y-18302636D01*
X60691282Y-18490994D01*
X60651508Y-18690953D01*
X53985000Y-18690953D01*
X53985000Y-17543466D01*
X53989281Y-17499999D01*
X53985000Y-17456533D01*
X53985000Y-17456523D01*
X53977578Y-17381161D01*
X58561300Y-17381161D01*
X58561300Y-17585039D01*
X58601074Y-17784998D01*
X58679095Y-17973356D01*
X58792363Y-18142874D01*
X58936526Y-18287037D01*
X59106044Y-18400305D01*
X59294402Y-18478326D01*
X59494361Y-18518100D01*
X59698239Y-18518100D01*
X59898198Y-18478326D01*
X60086556Y-18400305D01*
X60256074Y-18287037D01*
X60400237Y-18142874D01*
X60513505Y-17973356D01*
X60591526Y-17784998D01*
X60631300Y-17585039D01*
X60631300Y-17381161D01*
X60591526Y-17181202D01*
X60513505Y-16992844D01*
X60400237Y-16823326D01*
X60256074Y-16679163D01*
X60086556Y-16565895D01*
X59898198Y-16487874D01*
X59698239Y-16448100D01*
X59494361Y-16448100D01*
X59294402Y-16487874D01*
X59106044Y-16565895D01*
X58936526Y-16679163D01*
X58792363Y-16823326D01*
X58679095Y-16992844D01*
X58601074Y-17181202D01*
X58561300Y-17381161D01*
X53977578Y-17381161D01*
X53972195Y-17326510D01*
X53921589Y-17159687D01*
X53839411Y-17005941D01*
X53728817Y-16871183D01*
X53695051Y-16843472D01*
X53535430Y-16683851D01*
X53534542Y-15172562D01*
X57419899Y-15172562D01*
X57419899Y-15376440D01*
X57459673Y-15576399D01*
X57537694Y-15764757D01*
X57650962Y-15934275D01*
X57795125Y-16078438D01*
X57964643Y-16191706D01*
X58153001Y-16269727D01*
X58352960Y-16309501D01*
X58556838Y-16309501D01*
X58756797Y-16269727D01*
X58945155Y-16191706D01*
X59114673Y-16078438D01*
X59258836Y-15934275D01*
X59372104Y-15764757D01*
X59450125Y-15576399D01*
X59489178Y-15380061D01*
X60212400Y-15380061D01*
X60212400Y-15583939D01*
X60252174Y-15783898D01*
X60330195Y-15972256D01*
X60443463Y-16141774D01*
X60587626Y-16285937D01*
X60757144Y-16399205D01*
X60945502Y-16477226D01*
X61145461Y-16517000D01*
X61349339Y-16517000D01*
X61549298Y-16477226D01*
X61737656Y-16399205D01*
X61907174Y-16285937D01*
X62051337Y-16141774D01*
X62164605Y-15972256D01*
X62242626Y-15783898D01*
X62282400Y-15583939D01*
X62282400Y-15380061D01*
X62242626Y-15180102D01*
X62164605Y-14991744D01*
X62051337Y-14822226D01*
X61907174Y-14678063D01*
X61737656Y-14564795D01*
X61549298Y-14486774D01*
X61349339Y-14447000D01*
X61145461Y-14447000D01*
X60945502Y-14486774D01*
X60757144Y-14564795D01*
X60587626Y-14678063D01*
X60443463Y-14822226D01*
X60330195Y-14991744D01*
X60252174Y-15180102D01*
X60212400Y-15380061D01*
X59489178Y-15380061D01*
X59489899Y-15376440D01*
X59489899Y-15172562D01*
X59450125Y-14972603D01*
X59372104Y-14784245D01*
X59258836Y-14614727D01*
X59114673Y-14470564D01*
X58945155Y-14357296D01*
X58756797Y-14279275D01*
X58556838Y-14239501D01*
X58352960Y-14239501D01*
X58153001Y-14279275D01*
X57964643Y-14357296D01*
X57795125Y-14470564D01*
X57650962Y-14614727D01*
X57537694Y-14784245D01*
X57459673Y-14972603D01*
X57419899Y-15172562D01*
X53534542Y-15172562D01*
X53533811Y-13930061D01*
X54062400Y-13930061D01*
X54062400Y-14133939D01*
X54102174Y-14333898D01*
X54180195Y-14522256D01*
X54293463Y-14691774D01*
X54437626Y-14835937D01*
X54607144Y-14949205D01*
X54795502Y-15027226D01*
X54995461Y-15067000D01*
X55199339Y-15067000D01*
X55399298Y-15027226D01*
X55587656Y-14949205D01*
X55757174Y-14835937D01*
X55901337Y-14691774D01*
X56014605Y-14522256D01*
X56092626Y-14333898D01*
X56132400Y-14133939D01*
X56132400Y-13930061D01*
X56092626Y-13730102D01*
X56014605Y-13541744D01*
X55901337Y-13372226D01*
X55757174Y-13228063D01*
X55587656Y-13114795D01*
X55399298Y-13036774D01*
X55199339Y-12997000D01*
X54995461Y-12997000D01*
X54795502Y-13036774D01*
X54607144Y-13114795D01*
X54437626Y-13228063D01*
X54293463Y-13372226D01*
X54180195Y-13541744D01*
X54102174Y-13730102D01*
X54062400Y-13930061D01*
X53533811Y-13930061D01*
X53532518Y-11730061D01*
X56262400Y-11730061D01*
X56262400Y-11933939D01*
X56302174Y-12133898D01*
X56380195Y-12322256D01*
X56493463Y-12491774D01*
X56637626Y-12635937D01*
X56807144Y-12749205D01*
X56995502Y-12827226D01*
X57195461Y-12867000D01*
X57399339Y-12867000D01*
X57599298Y-12827226D01*
X57787656Y-12749205D01*
X57911013Y-12666781D01*
X57927151Y-12690934D01*
X58071314Y-12835097D01*
X58240832Y-12948365D01*
X58429190Y-13026386D01*
X58629149Y-13066160D01*
X58833027Y-13066160D01*
X59032986Y-13026386D01*
X59221344Y-12948365D01*
X59390862Y-12835097D01*
X59535025Y-12690934D01*
X59648293Y-12521416D01*
X59726314Y-12333058D01*
X59766088Y-12133099D01*
X59766088Y-12117000D01*
X59849339Y-12117000D01*
X60049298Y-12077226D01*
X60237656Y-11999205D01*
X60407174Y-11885937D01*
X60551337Y-11741774D01*
X60664605Y-11572256D01*
X60742626Y-11383898D01*
X60782400Y-11183939D01*
X60782400Y-10980061D01*
X60742626Y-10780102D01*
X60664605Y-10591744D01*
X60551337Y-10422226D01*
X60407174Y-10278063D01*
X60237656Y-10164795D01*
X60049298Y-10086774D01*
X59849339Y-10047000D01*
X59645461Y-10047000D01*
X59445502Y-10086774D01*
X59257144Y-10164795D01*
X59087626Y-10278063D01*
X58943463Y-10422226D01*
X58830195Y-10591744D01*
X58752174Y-10780102D01*
X58712400Y-10980061D01*
X58712400Y-10996160D01*
X58629149Y-10996160D01*
X58429190Y-11035934D01*
X58240832Y-11113955D01*
X58117475Y-11196379D01*
X58101337Y-11172226D01*
X57957174Y-11028063D01*
X57787656Y-10914795D01*
X57599298Y-10836774D01*
X57399339Y-10797000D01*
X57195461Y-10797000D01*
X56995502Y-10836774D01*
X56807144Y-10914795D01*
X56637626Y-11028063D01*
X56493463Y-11172226D01*
X56380195Y-11341744D01*
X56302174Y-11530102D01*
X56262400Y-11730061D01*
X53532518Y-11730061D01*
X53530982Y-9118261D01*
X67062400Y-9118261D01*
X67062400Y-9322139D01*
X67102174Y-9522098D01*
X67180195Y-9710456D01*
X67293463Y-9879974D01*
X67437626Y-10024137D01*
X67607144Y-10137405D01*
X67795502Y-10215426D01*
X67995461Y-10255200D01*
X68199339Y-10255200D01*
X68290281Y-10237111D01*
X68369144Y-10289805D01*
X68557502Y-10367826D01*
X68757461Y-10407600D01*
X68961339Y-10407600D01*
X69161298Y-10367826D01*
X69349656Y-10289805D01*
X69519174Y-10176537D01*
X69663337Y-10032374D01*
X69776605Y-9862856D01*
X69854626Y-9674498D01*
X69894400Y-9474539D01*
X69894400Y-9270661D01*
X69860323Y-9099340D01*
X73597400Y-9099340D01*
X73597400Y-9391860D01*
X73654468Y-9678758D01*
X73766410Y-9949011D01*
X73928925Y-10192232D01*
X74135768Y-10399075D01*
X74310160Y-10515600D01*
X74135768Y-10632125D01*
X73928925Y-10838968D01*
X73766410Y-11082189D01*
X73654468Y-11352442D01*
X73597400Y-11639340D01*
X73597400Y-11931860D01*
X73654468Y-12218758D01*
X73766410Y-12489011D01*
X73928925Y-12732232D01*
X74135768Y-12939075D01*
X74378989Y-13101590D01*
X74649242Y-13213532D01*
X74936140Y-13270600D01*
X75228660Y-13270600D01*
X75515558Y-13213532D01*
X75785811Y-13101590D01*
X76029032Y-12939075D01*
X76235875Y-12732232D01*
X76398390Y-12489011D01*
X76510332Y-12218758D01*
X76567400Y-11931860D01*
X76567400Y-11639340D01*
X76510332Y-11352442D01*
X76398390Y-11082189D01*
X76235875Y-10838968D01*
X76029032Y-10632125D01*
X75854640Y-10515600D01*
X76029032Y-10399075D01*
X76235875Y-10192232D01*
X76398390Y-9949011D01*
X76510332Y-9678758D01*
X76567400Y-9391860D01*
X76567400Y-9099340D01*
X76510332Y-8812442D01*
X76398390Y-8542189D01*
X76235875Y-8298968D01*
X76029032Y-8092125D01*
X75785811Y-7929610D01*
X75515558Y-7817668D01*
X75228660Y-7760600D01*
X74936140Y-7760600D01*
X74649242Y-7817668D01*
X74378989Y-7929610D01*
X74135768Y-8092125D01*
X73928925Y-8298968D01*
X73766410Y-8542189D01*
X73654468Y-8812442D01*
X73597400Y-9099340D01*
X69860323Y-9099340D01*
X69854626Y-9070702D01*
X69776605Y-8882344D01*
X69663337Y-8712826D01*
X69519174Y-8568663D01*
X69349656Y-8455395D01*
X69161298Y-8377374D01*
X68961339Y-8337600D01*
X68757461Y-8337600D01*
X68666519Y-8355689D01*
X68587656Y-8302995D01*
X68399298Y-8224974D01*
X68199339Y-8185200D01*
X67995461Y-8185200D01*
X67795502Y-8224974D01*
X67607144Y-8302995D01*
X67437626Y-8416263D01*
X67293463Y-8560426D01*
X67180195Y-8729944D01*
X67102174Y-8918302D01*
X67062400Y-9118261D01*
X53530982Y-9118261D01*
X53528912Y-5598800D01*
X68681728Y-5598800D01*
X68681728Y-7298800D01*
X68693988Y-7423282D01*
X68730298Y-7542980D01*
X68789263Y-7653294D01*
X68868615Y-7749985D01*
X68965306Y-7829337D01*
X69075620Y-7888302D01*
X69195318Y-7924612D01*
X69319800Y-7936872D01*
X71019800Y-7936872D01*
X71144282Y-7924612D01*
X71263980Y-7888302D01*
X71374294Y-7829337D01*
X71470985Y-7749985D01*
X71550337Y-7653294D01*
X71609302Y-7542980D01*
X71645612Y-7423282D01*
X71657872Y-7298800D01*
X71657872Y-5598800D01*
X71645612Y-5474318D01*
X71609302Y-5354620D01*
X71550337Y-5244306D01*
X71470985Y-5147615D01*
X71374294Y-5068263D01*
X71263980Y-5009298D01*
X71144282Y-4972988D01*
X71019800Y-4960728D01*
X69319800Y-4960728D01*
X69195318Y-4972988D01*
X69075620Y-5009298D01*
X68965306Y-5068263D01*
X68868615Y-5147615D01*
X68789263Y-5244306D01*
X68730298Y-5354620D01*
X68693988Y-5474318D01*
X68681728Y-5598800D01*
X53528912Y-5598800D01*
X53527818Y-3739693D01*
X53534337Y-3733174D01*
X53647605Y-3563656D01*
X53725626Y-3375298D01*
X53765400Y-3175339D01*
X53765400Y-2971461D01*
X53725626Y-2771502D01*
X53647605Y-2583144D01*
X53576682Y-2477000D01*
X63705244Y-2477000D01*
X63776595Y-2649256D01*
G37*
X63776595Y-2649256D02*
X63889863Y-2818774D01*
X64034026Y-2962937D01*
X64203544Y-3076205D01*
X64391902Y-3154226D01*
X64591861Y-3194000D01*
X64795739Y-3194000D01*
X64995698Y-3154226D01*
X65184056Y-3076205D01*
X65353574Y-2962937D01*
X65497737Y-2818774D01*
X65611005Y-2649256D01*
X65682356Y-2477000D01*
X71499414Y-2477000D01*
X72476376Y-6629088D01*
X72484426Y-6652647D01*
X72496918Y-6674183D01*
X72513371Y-6692868D01*
X72533153Y-6707984D01*
X72555504Y-6718950D01*
X72576678Y-6724840D01*
X77022317Y-7555344D01*
X76886406Y-28576262D01*
X76784539Y-28556000D01*
X76580661Y-28556000D01*
X76380702Y-28595774D01*
X76192344Y-28673795D01*
X76022826Y-28787063D01*
X75878663Y-28931226D01*
X75765395Y-29100744D01*
X75687374Y-29289102D01*
X75647600Y-29489061D01*
X75647600Y-29692939D01*
X75687374Y-29892898D01*
X75765395Y-30081256D01*
X75878663Y-30250774D01*
X76022826Y-30394937D01*
X76192344Y-30508205D01*
X76380702Y-30586226D01*
X76580661Y-30626000D01*
X76784539Y-30626000D01*
X76806696Y-30621593D01*
X71163404Y-34172975D01*
X64399607Y-34168304D01*
X64507137Y-34060774D01*
X64620405Y-33891256D01*
X64698426Y-33702898D01*
X64738200Y-33502939D01*
X64738200Y-33299061D01*
X64698426Y-33099102D01*
X64620405Y-32910744D01*
X64507137Y-32741226D01*
X64362974Y-32597063D01*
X64193456Y-32483795D01*
X64005098Y-32405774D01*
X63805139Y-32366000D01*
X63601261Y-32366000D01*
X63401302Y-32405774D01*
X63212944Y-32483795D01*
X63043426Y-32597063D01*
X62899263Y-32741226D01*
X62785995Y-32910744D01*
X62707974Y-33099102D01*
X62668200Y-33299061D01*
X62668200Y-33502939D01*
X62707974Y-33702898D01*
X62785995Y-33891256D01*
X62899263Y-34060774D01*
X63005831Y-34167342D01*
X56820625Y-34163071D01*
X56385115Y-32154884D01*
X56377479Y-32131187D01*
X56365367Y-32109436D01*
X56361478Y-32105261D01*
X66275000Y-32105261D01*
X66275000Y-32309139D01*
X66314774Y-32509098D01*
X66392795Y-32697456D01*
X66506063Y-32866974D01*
X66650226Y-33011137D01*
X66819744Y-33124405D01*
X67008102Y-33202426D01*
X67208061Y-33242200D01*
X67411939Y-33242200D01*
X67611898Y-33202426D01*
X67800256Y-33124405D01*
X67969774Y-33011137D01*
X68113937Y-32866974D01*
X68227205Y-32697456D01*
X68305226Y-32509098D01*
X68345000Y-32309139D01*
X68345000Y-32105261D01*
X68305226Y-31905302D01*
X68227205Y-31716944D01*
X68113937Y-31547426D01*
X67969774Y-31403263D01*
X67800256Y-31289995D01*
X67611898Y-31211974D01*
X67411939Y-31172200D01*
X67208061Y-31172200D01*
X67008102Y-31211974D01*
X66819744Y-31289995D01*
X66650226Y-31403263D01*
X66506063Y-31547426D01*
X66392795Y-31716944D01*
X66314774Y-31905302D01*
X66275000Y-32105261D01*
X56361478Y-32105261D01*
X56340552Y-32082802D01*
X53543164Y-29834901D01*
X53542991Y-29539861D01*
X66021000Y-29539861D01*
X66021000Y-29743739D01*
X66060774Y-29943698D01*
X66138795Y-30132056D01*
X66252063Y-30301574D01*
X66396226Y-30445737D01*
X66565744Y-30559005D01*
X66754102Y-30637026D01*
X66954061Y-30676800D01*
X67157939Y-30676800D01*
X67357898Y-30637026D01*
X67546256Y-30559005D01*
X67715774Y-30445737D01*
X67859937Y-30301574D01*
X67973205Y-30132056D01*
X68051226Y-29943698D01*
X68091000Y-29743739D01*
X68091000Y-29539861D01*
X68051226Y-29339902D01*
X67973205Y-29151544D01*
X67859937Y-28982026D01*
X67715774Y-28837863D01*
X67546256Y-28724595D01*
X67357898Y-28646574D01*
X67157939Y-28606800D01*
X66954061Y-28606800D01*
X66754102Y-28646574D01*
X66565744Y-28724595D01*
X66396226Y-28837863D01*
X66252063Y-28982026D01*
X66138795Y-29151544D01*
X66060774Y-29339902D01*
X66021000Y-29539861D01*
X53542991Y-29539861D01*
X53542578Y-28838401D01*
X53967444Y-28413535D01*
X54024298Y-28402226D01*
X54212656Y-28324205D01*
X54382174Y-28210937D01*
X54526337Y-28066774D01*
X54639605Y-27897256D01*
X54717626Y-27708898D01*
X54732507Y-27634086D01*
X55379470Y-28281049D01*
X55407183Y-28314817D01*
X55440951Y-28342530D01*
X55440953Y-28342532D01*
X55512452Y-28401210D01*
X55541941Y-28425411D01*
X55695687Y-28507589D01*
X55862510Y-28558195D01*
X55992523Y-28571000D01*
X55992533Y-28571000D01*
X56035999Y-28575281D01*
X56079466Y-28571000D01*
X56560746Y-28571000D01*
X56608944Y-28603205D01*
X56797302Y-28681226D01*
X56997261Y-28721000D01*
X57201139Y-28721000D01*
X57401098Y-28681226D01*
X57589456Y-28603205D01*
X57758974Y-28489937D01*
X57903137Y-28345774D01*
X58016405Y-28176256D01*
X58094426Y-27987898D01*
X58134200Y-27787939D01*
X58134200Y-27584061D01*
X58094426Y-27384102D01*
X58016405Y-27195744D01*
X57903137Y-27026226D01*
X57851372Y-26974461D01*
X58528000Y-26974461D01*
X58528000Y-27178339D01*
X58567774Y-27378298D01*
X58645795Y-27566656D01*
X58759063Y-27736174D01*
X58903226Y-27880337D01*
X59072744Y-27993605D01*
X59261102Y-28071626D01*
X59461061Y-28111400D01*
X59664939Y-28111400D01*
X59864898Y-28071626D01*
X60053256Y-27993605D01*
X60222774Y-27880337D01*
X60366937Y-27736174D01*
X60480205Y-27566656D01*
X60558226Y-27378298D01*
X60598000Y-27178339D01*
X60598000Y-26974461D01*
X60558226Y-26774502D01*
X60480205Y-26586144D01*
X60366937Y-26416626D01*
X60238972Y-26288661D01*
X63582600Y-26288661D01*
X63582600Y-26492539D01*
X63622374Y-26692498D01*
X63700395Y-26880856D01*
X63813663Y-27050374D01*
X63957826Y-27194537D01*
X64127344Y-27307805D01*
X64315702Y-27385826D01*
X64515661Y-27425600D01*
X64719539Y-27425600D01*
X64919498Y-27385826D01*
X65107856Y-27307805D01*
X65277374Y-27194537D01*
X65421537Y-27050374D01*
X65534805Y-26880856D01*
X65612826Y-26692498D01*
X65652600Y-26492539D01*
X65652600Y-26288661D01*
X65612826Y-26088702D01*
X65534805Y-25900344D01*
X65421537Y-25730826D01*
X65277374Y-25586663D01*
X65149561Y-25501261D01*
X66986200Y-25501261D01*
X66986200Y-25705139D01*
X67025974Y-25905098D01*
X67103995Y-26093456D01*
X67217263Y-26262974D01*
X67361426Y-26407137D01*
X67530944Y-26520405D01*
X67719302Y-26598426D01*
X67919261Y-26638200D01*
X68123139Y-26638200D01*
X68323098Y-26598426D01*
X68511456Y-26520405D01*
X68680974Y-26407137D01*
X68825137Y-26262974D01*
X68938405Y-26093456D01*
X68941716Y-26085461D01*
X74580800Y-26085461D01*
X74580800Y-26289339D01*
X74620574Y-26489298D01*
X74698595Y-26677656D01*
X74811863Y-26847174D01*
X74956026Y-26991337D01*
X75125544Y-27104605D01*
X75313902Y-27182626D01*
X75513861Y-27222400D01*
X75717739Y-27222400D01*
X75917698Y-27182626D01*
X76106056Y-27104605D01*
X76275574Y-26991337D01*
X76419737Y-26847174D01*
X76533005Y-26677656D01*
X76611026Y-26489298D01*
X76650800Y-26289339D01*
X76650800Y-26085461D01*
X76611026Y-25885502D01*
X76533005Y-25697144D01*
X76419737Y-25527626D01*
X76275574Y-25383463D01*
X76106056Y-25270195D01*
X75917698Y-25192174D01*
X75717739Y-25152400D01*
X75513861Y-25152400D01*
X75313902Y-25192174D01*
X75125544Y-25270195D01*
X74956026Y-25383463D01*
X74811863Y-25527626D01*
X74698595Y-25697144D01*
X74620574Y-25885502D01*
X74580800Y-26085461D01*
X68941716Y-26085461D01*
X69016426Y-25905098D01*
X69056200Y-25705139D01*
X69056200Y-25501261D01*
X69016426Y-25301302D01*
X68938405Y-25112944D01*
X68825137Y-24943426D01*
X68680974Y-24799263D01*
X68511456Y-24685995D01*
X68323098Y-24607974D01*
X68123139Y-24568200D01*
X67919261Y-24568200D01*
X67719302Y-24607974D01*
X67530944Y-24685995D01*
X67361426Y-24799263D01*
X67217263Y-24943426D01*
X67103995Y-25112944D01*
X67025974Y-25301302D01*
X66986200Y-25501261D01*
X65149561Y-25501261D01*
X65107856Y-25473395D01*
X64919498Y-25395374D01*
X64719539Y-25355600D01*
X64515661Y-25355600D01*
X64315702Y-25395374D01*
X64127344Y-25473395D01*
X63957826Y-25586663D01*
X63813663Y-25730826D01*
X63700395Y-25900344D01*
X63622374Y-26088702D01*
X63582600Y-26288661D01*
X60238972Y-26288661D01*
X60222774Y-26272463D01*
X60053256Y-26159195D01*
X59864898Y-26081174D01*
X59664939Y-26041400D01*
X59461061Y-26041400D01*
X59261102Y-26081174D01*
X59072744Y-26159195D01*
X58903226Y-26272463D01*
X58759063Y-26416626D01*
X58645795Y-26586144D01*
X58567774Y-26774502D01*
X58528000Y-26974461D01*
X57851372Y-26974461D01*
X57758974Y-26882063D01*
X57589456Y-26768795D01*
X57401098Y-26690774D01*
X57335905Y-26677806D01*
X57420537Y-26593174D01*
X57533805Y-26423656D01*
X57611826Y-26235298D01*
X57651600Y-26035339D01*
X57651600Y-25831461D01*
X57611826Y-25631502D01*
X57533805Y-25443144D01*
X57420537Y-25273626D01*
X57276374Y-25129463D01*
X57106856Y-25016195D01*
X56918498Y-24938174D01*
X56718539Y-24898400D01*
X56514661Y-24898400D01*
X56314702Y-24938174D01*
X56126344Y-25016195D01*
X55956826Y-25129463D01*
X55812663Y-25273626D01*
X55699395Y-25443144D01*
X55621374Y-25631502D01*
X55581600Y-25831461D01*
X55581600Y-25980021D01*
X53985000Y-24383422D01*
X53985000Y-23774061D01*
X56648400Y-23774061D01*
X56648400Y-23977939D01*
X56688174Y-24177898D01*
X56766195Y-24366256D01*
X56879463Y-24535774D01*
X57023626Y-24679937D01*
X57193144Y-24793205D01*
X57381502Y-24871226D01*
X57581461Y-24911000D01*
X57785339Y-24911000D01*
X57985298Y-24871226D01*
X58173656Y-24793205D01*
X58343174Y-24679937D01*
X58417400Y-24605711D01*
X58547626Y-24735937D01*
X58717144Y-24849205D01*
X58905502Y-24927226D01*
X59105461Y-24967000D01*
X59309339Y-24967000D01*
X59509298Y-24927226D01*
X59697656Y-24849205D01*
X59748157Y-24815461D01*
X60483800Y-24815461D01*
X60483800Y-25019339D01*
X60523574Y-25219298D01*
X60601595Y-25407656D01*
X60714863Y-25577174D01*
X60859026Y-25721337D01*
X61028544Y-25834605D01*
X61216902Y-25912626D01*
X61416861Y-25952400D01*
X61620739Y-25952400D01*
X61820698Y-25912626D01*
X62009056Y-25834605D01*
X62178574Y-25721337D01*
X62322737Y-25577174D01*
X62431575Y-25414286D01*
X62535426Y-25518137D01*
X62704944Y-25631405D01*
X62893302Y-25709426D01*
X63093261Y-25749200D01*
X63297139Y-25749200D01*
X63497098Y-25709426D01*
X63685456Y-25631405D01*
X63854974Y-25518137D01*
X63999137Y-25373974D01*
X64112405Y-25204456D01*
X64190426Y-25016098D01*
X64230200Y-24816139D01*
X64230200Y-24612261D01*
X64190426Y-24412302D01*
X64112405Y-24223944D01*
X63999137Y-24054426D01*
X63854974Y-23910263D01*
X63790226Y-23867000D01*
X63899339Y-23867000D01*
X64099298Y-23827226D01*
X64287656Y-23749205D01*
X64457174Y-23635937D01*
X64601337Y-23491774D01*
X64714605Y-23322256D01*
X64737493Y-23267000D01*
X64899339Y-23267000D01*
X65099298Y-23227226D01*
X65287656Y-23149205D01*
X65457174Y-23035937D01*
X65601337Y-22891774D01*
X65714605Y-22722256D01*
X65792626Y-22533898D01*
X65832400Y-22333939D01*
X65832400Y-22130061D01*
X65820903Y-22072261D01*
X67189400Y-22072261D01*
X67189400Y-22276139D01*
X67229174Y-22476098D01*
X67307195Y-22664456D01*
X67420463Y-22833974D01*
X67564626Y-22978137D01*
X67734144Y-23091405D01*
X67922502Y-23169426D01*
X68122461Y-23209200D01*
X68326339Y-23209200D01*
X68526298Y-23169426D01*
X68714656Y-23091405D01*
X68884174Y-22978137D01*
X69028337Y-22833974D01*
X69141605Y-22664456D01*
X69219626Y-22476098D01*
X69259400Y-22276139D01*
X69259400Y-22072261D01*
X69219626Y-21872302D01*
X69141605Y-21683944D01*
X69028337Y-21514426D01*
X68884174Y-21370263D01*
X68714656Y-21256995D01*
X68526298Y-21178974D01*
X68326339Y-21139200D01*
X68122461Y-21139200D01*
X67922502Y-21178974D01*
X67734144Y-21256995D01*
X67564626Y-21370263D01*
X67420463Y-21514426D01*
X67307195Y-21683944D01*
X67229174Y-21872302D01*
X67189400Y-22072261D01*
X65820903Y-22072261D01*
X65792626Y-21930102D01*
X65714605Y-21741744D01*
X65601337Y-21572226D01*
X65457174Y-21428063D01*
X65287656Y-21314795D01*
X65099298Y-21236774D01*
X64899339Y-21197000D01*
X64695461Y-21197000D01*
X64495502Y-21236774D01*
X64307144Y-21314795D01*
X64137626Y-21428063D01*
X63993463Y-21572226D01*
X63880195Y-21741744D01*
X63857307Y-21797000D01*
X63695461Y-21797000D01*
X63495502Y-21836774D01*
X63307144Y-21914795D01*
X63137626Y-22028063D01*
X62993463Y-22172226D01*
X62880195Y-22341744D01*
X62802174Y-22530102D01*
X62762400Y-22730061D01*
X62762400Y-22933939D01*
X62802174Y-23133898D01*
X62880195Y-23322256D01*
X62993463Y-23491774D01*
X63137626Y-23635937D01*
X63202374Y-23679200D01*
X63093261Y-23679200D01*
X62893302Y-23718974D01*
X62704944Y-23796995D01*
X62535426Y-23910263D01*
X62391263Y-24054426D01*
X62282425Y-24217314D01*
X62178574Y-24113463D01*
X62009056Y-24000195D01*
X61820698Y-23922174D01*
X61620739Y-23882400D01*
X61416861Y-23882400D01*
X61216902Y-23922174D01*
X61028544Y-24000195D01*
X60859026Y-24113463D01*
X60714863Y-24257626D01*
X60601595Y-24427144D01*
X60523574Y-24615502D01*
X60483800Y-24815461D01*
X59748157Y-24815461D01*
X59867174Y-24735937D01*
X60011337Y-24591774D01*
X60124605Y-24422256D01*
X60202626Y-24233898D01*
X60242400Y-24033939D01*
X60242400Y-23830061D01*
X60202626Y-23630102D01*
X60124605Y-23441744D01*
X60011337Y-23272226D01*
X59867174Y-23128063D01*
X59697656Y-23014795D01*
X59509298Y-22936774D01*
X59309339Y-22897000D01*
X59105461Y-22897000D01*
X58905502Y-22936774D01*
X58717144Y-23014795D01*
X58547626Y-23128063D01*
X58473400Y-23202289D01*
X58343174Y-23072063D01*
X58173656Y-22958795D01*
X57985298Y-22880774D01*
X57785339Y-22841000D01*
X57581461Y-22841000D01*
X57381502Y-22880774D01*
X57193144Y-22958795D01*
X57023626Y-23072063D01*
X56879463Y-23216226D01*
X56766195Y-23385744D01*
X56688174Y-23574102D01*
X56648400Y-23774061D01*
X53985000Y-23774061D01*
X53985000Y-19989461D01*
X56140400Y-19989461D01*
X56140400Y-20193339D01*
X56180174Y-20393298D01*
X56258195Y-20581656D01*
X56371463Y-20751174D01*
X56515626Y-20895337D01*
X56685144Y-21008605D01*
X56873502Y-21086626D01*
X57073461Y-21126400D01*
X57277339Y-21126400D01*
X57460717Y-21089924D01*
X57539863Y-21208374D01*
X57684026Y-21352537D01*
X57853544Y-21465805D01*
X58041902Y-21543826D01*
X58241861Y-21583600D01*
X58445739Y-21583600D01*
X58645698Y-21543826D01*
X58834056Y-21465805D01*
X59003574Y-21352537D01*
X59147737Y-21208374D01*
X59261005Y-21038856D01*
X59339026Y-20850498D01*
X59378800Y-20650539D01*
X59378800Y-20446661D01*
X59339026Y-20246702D01*
X59261005Y-20058344D01*
X59147737Y-19888826D01*
X59003574Y-19744663D01*
X58834056Y-19631395D01*
X58645698Y-19553374D01*
X58445739Y-19513600D01*
X58241861Y-19513600D01*
X58058483Y-19550076D01*
X57979337Y-19431626D01*
X57835174Y-19287463D01*
X57665656Y-19174195D01*
X57477298Y-19096174D01*
X57277339Y-19056400D01*
X57073461Y-19056400D01*
X56873502Y-19096174D01*
X56685144Y-19174195D01*
X56515626Y-19287463D01*
X56371463Y-19431626D01*
X56258195Y-19601144D01*
X56180174Y-19789502D01*
X56140400Y-19989461D01*
X53985000Y-19989461D01*
X53985000Y-18690953D01*
X60651508Y-18690953D01*
X60651508Y-18894831D01*
X60691282Y-19094790D01*
X60769303Y-19283148D01*
X60882571Y-19452666D01*
X61026734Y-19596829D01*
X61196252Y-19710097D01*
X61384610Y-19788118D01*
X61584569Y-19827892D01*
X61788447Y-19827892D01*
X61988406Y-19788118D01*
X62176764Y-19710097D01*
X62346282Y-19596829D01*
X62490445Y-19452666D01*
X62603713Y-19283148D01*
X62681734Y-19094790D01*
X62721508Y-18894831D01*
X62721508Y-18690953D01*
X62681734Y-18490994D01*
X62621237Y-18344940D01*
X73572000Y-18344940D01*
X73572000Y-18637460D01*
X73629068Y-18924358D01*
X73741010Y-19194611D01*
X73903525Y-19437832D01*
X74110368Y-19644675D01*
X74284760Y-19761200D01*
X74110368Y-19877725D01*
X73903525Y-20084568D01*
X73741010Y-20327789D01*
X73629068Y-20598042D01*
X73572000Y-20884940D01*
X73572000Y-21177460D01*
X73629068Y-21464358D01*
X73741010Y-21734611D01*
X73903525Y-21977832D01*
X74110368Y-22184675D01*
X74353589Y-22347190D01*
X74623842Y-22459132D01*
X74910740Y-22516200D01*
X75203260Y-22516200D01*
X75490158Y-22459132D01*
X75760411Y-22347190D01*
X76003632Y-22184675D01*
X76210475Y-21977832D01*
X76372990Y-21734611D01*
X76484932Y-21464358D01*
X76542000Y-21177460D01*
X76542000Y-20884940D01*
X76484932Y-20598042D01*
X76372990Y-20327789D01*
X76210475Y-20084568D01*
X76003632Y-19877725D01*
X75829240Y-19761200D01*
X76003632Y-19644675D01*
X76210475Y-19437832D01*
X76372990Y-19194611D01*
X76484932Y-18924358D01*
X76542000Y-18637460D01*
X76542000Y-18344940D01*
X76484932Y-18058042D01*
X76372990Y-17787789D01*
X76210475Y-17544568D01*
X76003632Y-17337725D01*
X75760411Y-17175210D01*
X75490158Y-17063268D01*
X75203260Y-17006200D01*
X74910740Y-17006200D01*
X74623842Y-17063268D01*
X74353589Y-17175210D01*
X74110368Y-17337725D01*
X73903525Y-17544568D01*
X73741010Y-17787789D01*
X73629068Y-18058042D01*
X73572000Y-18344940D01*
X62621237Y-18344940D01*
X62603713Y-18302636D01*
X62490445Y-18133118D01*
X62346282Y-17988955D01*
X62176764Y-17875687D01*
X61988406Y-17797666D01*
X61788447Y-17757892D01*
X61584569Y-17757892D01*
X61384610Y-17797666D01*
X61196252Y-17875687D01*
X61026734Y-17988955D01*
X60882571Y-18133118D01*
X60769303Y-18302636D01*
X60691282Y-18490994D01*
X60651508Y-18690953D01*
X53985000Y-18690953D01*
X53985000Y-17543466D01*
X53989281Y-17499999D01*
X53985000Y-17456533D01*
X53985000Y-17456523D01*
X53977578Y-17381161D01*
X58561300Y-17381161D01*
X58561300Y-17585039D01*
X58601074Y-17784998D01*
X58679095Y-17973356D01*
X58792363Y-18142874D01*
X58936526Y-18287037D01*
X59106044Y-18400305D01*
X59294402Y-18478326D01*
X59494361Y-18518100D01*
X59698239Y-18518100D01*
X59898198Y-18478326D01*
X60086556Y-18400305D01*
X60256074Y-18287037D01*
X60400237Y-18142874D01*
X60513505Y-17973356D01*
X60591526Y-17784998D01*
X60631300Y-17585039D01*
X60631300Y-17381161D01*
X60591526Y-17181202D01*
X60513505Y-16992844D01*
X60400237Y-16823326D01*
X60256074Y-16679163D01*
X60086556Y-16565895D01*
X59898198Y-16487874D01*
X59698239Y-16448100D01*
X59494361Y-16448100D01*
X59294402Y-16487874D01*
X59106044Y-16565895D01*
X58936526Y-16679163D01*
X58792363Y-16823326D01*
X58679095Y-16992844D01*
X58601074Y-17181202D01*
X58561300Y-17381161D01*
X53977578Y-17381161D01*
X53972195Y-17326510D01*
X53921589Y-17159687D01*
X53839411Y-17005941D01*
X53728817Y-16871183D01*
X53695051Y-16843472D01*
X53535430Y-16683851D01*
X53534542Y-15172562D01*
X57419899Y-15172562D01*
X57419899Y-15376440D01*
X57459673Y-15576399D01*
X57537694Y-15764757D01*
X57650962Y-15934275D01*
X57795125Y-16078438D01*
X57964643Y-16191706D01*
X58153001Y-16269727D01*
X58352960Y-16309501D01*
X58556838Y-16309501D01*
X58756797Y-16269727D01*
X58945155Y-16191706D01*
X59114673Y-16078438D01*
X59258836Y-15934275D01*
X59372104Y-15764757D01*
X59450125Y-15576399D01*
X59489178Y-15380061D01*
X60212400Y-15380061D01*
X60212400Y-15583939D01*
X60252174Y-15783898D01*
X60330195Y-15972256D01*
X60443463Y-16141774D01*
X60587626Y-16285937D01*
X60757144Y-16399205D01*
X60945502Y-16477226D01*
X61145461Y-16517000D01*
X61349339Y-16517000D01*
X61549298Y-16477226D01*
X61737656Y-16399205D01*
X61907174Y-16285937D01*
X62051337Y-16141774D01*
X62164605Y-15972256D01*
X62242626Y-15783898D01*
X62282400Y-15583939D01*
X62282400Y-15380061D01*
X62242626Y-15180102D01*
X62164605Y-14991744D01*
X62051337Y-14822226D01*
X61907174Y-14678063D01*
X61737656Y-14564795D01*
X61549298Y-14486774D01*
X61349339Y-14447000D01*
X61145461Y-14447000D01*
X60945502Y-14486774D01*
X60757144Y-14564795D01*
X60587626Y-14678063D01*
X60443463Y-14822226D01*
X60330195Y-14991744D01*
X60252174Y-15180102D01*
X60212400Y-15380061D01*
X59489178Y-15380061D01*
X59489899Y-15376440D01*
X59489899Y-15172562D01*
X59450125Y-14972603D01*
X59372104Y-14784245D01*
X59258836Y-14614727D01*
X59114673Y-14470564D01*
X58945155Y-14357296D01*
X58756797Y-14279275D01*
X58556838Y-14239501D01*
X58352960Y-14239501D01*
X58153001Y-14279275D01*
X57964643Y-14357296D01*
X57795125Y-14470564D01*
X57650962Y-14614727D01*
X57537694Y-14784245D01*
X57459673Y-14972603D01*
X57419899Y-15172562D01*
X53534542Y-15172562D01*
X53533811Y-13930061D01*
X54062400Y-13930061D01*
X54062400Y-14133939D01*
X54102174Y-14333898D01*
X54180195Y-14522256D01*
X54293463Y-14691774D01*
X54437626Y-14835937D01*
X54607144Y-14949205D01*
X54795502Y-15027226D01*
X54995461Y-15067000D01*
X55199339Y-15067000D01*
X55399298Y-15027226D01*
X55587656Y-14949205D01*
X55757174Y-14835937D01*
X55901337Y-14691774D01*
X56014605Y-14522256D01*
X56092626Y-14333898D01*
X56132400Y-14133939D01*
X56132400Y-13930061D01*
X56092626Y-13730102D01*
X56014605Y-13541744D01*
X55901337Y-13372226D01*
X55757174Y-13228063D01*
X55587656Y-13114795D01*
X55399298Y-13036774D01*
X55199339Y-12997000D01*
X54995461Y-12997000D01*
X54795502Y-13036774D01*
X54607144Y-13114795D01*
X54437626Y-13228063D01*
X54293463Y-13372226D01*
X54180195Y-13541744D01*
X54102174Y-13730102D01*
X54062400Y-13930061D01*
X53533811Y-13930061D01*
X53532518Y-11730061D01*
X56262400Y-11730061D01*
X56262400Y-11933939D01*
X56302174Y-12133898D01*
X56380195Y-12322256D01*
X56493463Y-12491774D01*
X56637626Y-12635937D01*
X56807144Y-12749205D01*
X56995502Y-12827226D01*
X57195461Y-12867000D01*
X57399339Y-12867000D01*
X57599298Y-12827226D01*
X57787656Y-12749205D01*
X57911013Y-12666781D01*
X57927151Y-12690934D01*
X58071314Y-12835097D01*
X58240832Y-12948365D01*
X58429190Y-13026386D01*
X58629149Y-13066160D01*
X58833027Y-13066160D01*
X59032986Y-13026386D01*
X59221344Y-12948365D01*
X59390862Y-12835097D01*
X59535025Y-12690934D01*
X59648293Y-12521416D01*
X59726314Y-12333058D01*
X59766088Y-12133099D01*
X59766088Y-12117000D01*
X59849339Y-12117000D01*
X60049298Y-12077226D01*
X60237656Y-11999205D01*
X60407174Y-11885937D01*
X60551337Y-11741774D01*
X60664605Y-11572256D01*
X60742626Y-11383898D01*
X60782400Y-11183939D01*
X60782400Y-10980061D01*
X60742626Y-10780102D01*
X60664605Y-10591744D01*
X60551337Y-10422226D01*
X60407174Y-10278063D01*
X60237656Y-10164795D01*
X60049298Y-10086774D01*
X59849339Y-10047000D01*
X59645461Y-10047000D01*
X59445502Y-10086774D01*
X59257144Y-10164795D01*
X59087626Y-10278063D01*
X58943463Y-10422226D01*
X58830195Y-10591744D01*
X58752174Y-10780102D01*
X58712400Y-10980061D01*
X58712400Y-10996160D01*
X58629149Y-10996160D01*
X58429190Y-11035934D01*
X58240832Y-11113955D01*
X58117475Y-11196379D01*
X58101337Y-11172226D01*
X57957174Y-11028063D01*
X57787656Y-10914795D01*
X57599298Y-10836774D01*
X57399339Y-10797000D01*
X57195461Y-10797000D01*
X56995502Y-10836774D01*
X56807144Y-10914795D01*
X56637626Y-11028063D01*
X56493463Y-11172226D01*
X56380195Y-11341744D01*
X56302174Y-11530102D01*
X56262400Y-11730061D01*
X53532518Y-11730061D01*
X53530982Y-9118261D01*
X67062400Y-9118261D01*
X67062400Y-9322139D01*
X67102174Y-9522098D01*
X67180195Y-9710456D01*
X67293463Y-9879974D01*
X67437626Y-10024137D01*
X67607144Y-10137405D01*
X67795502Y-10215426D01*
X67995461Y-10255200D01*
X68199339Y-10255200D01*
X68290281Y-10237111D01*
X68369144Y-10289805D01*
X68557502Y-10367826D01*
X68757461Y-10407600D01*
X68961339Y-10407600D01*
X69161298Y-10367826D01*
X69349656Y-10289805D01*
X69519174Y-10176537D01*
X69663337Y-10032374D01*
X69776605Y-9862856D01*
X69854626Y-9674498D01*
X69894400Y-9474539D01*
X69894400Y-9270661D01*
X69860323Y-9099340D01*
X73597400Y-9099340D01*
X73597400Y-9391860D01*
X73654468Y-9678758D01*
X73766410Y-9949011D01*
X73928925Y-10192232D01*
X74135768Y-10399075D01*
X74310160Y-10515600D01*
X74135768Y-10632125D01*
X73928925Y-10838968D01*
X73766410Y-11082189D01*
X73654468Y-11352442D01*
X73597400Y-11639340D01*
X73597400Y-11931860D01*
X73654468Y-12218758D01*
X73766410Y-12489011D01*
X73928925Y-12732232D01*
X74135768Y-12939075D01*
X74378989Y-13101590D01*
X74649242Y-13213532D01*
X74936140Y-13270600D01*
X75228660Y-13270600D01*
X75515558Y-13213532D01*
X75785811Y-13101590D01*
X76029032Y-12939075D01*
X76235875Y-12732232D01*
X76398390Y-12489011D01*
X76510332Y-12218758D01*
X76567400Y-11931860D01*
X76567400Y-11639340D01*
X76510332Y-11352442D01*
X76398390Y-11082189D01*
X76235875Y-10838968D01*
X76029032Y-10632125D01*
X75854640Y-10515600D01*
X76029032Y-10399075D01*
X76235875Y-10192232D01*
X76398390Y-9949011D01*
X76510332Y-9678758D01*
X76567400Y-9391860D01*
X76567400Y-9099340D01*
X76510332Y-8812442D01*
X76398390Y-8542189D01*
X76235875Y-8298968D01*
X76029032Y-8092125D01*
X75785811Y-7929610D01*
X75515558Y-7817668D01*
X75228660Y-7760600D01*
X74936140Y-7760600D01*
X74649242Y-7817668D01*
X74378989Y-7929610D01*
X74135768Y-8092125D01*
X73928925Y-8298968D01*
X73766410Y-8542189D01*
X73654468Y-8812442D01*
X73597400Y-9099340D01*
X69860323Y-9099340D01*
X69854626Y-9070702D01*
X69776605Y-8882344D01*
X69663337Y-8712826D01*
X69519174Y-8568663D01*
X69349656Y-8455395D01*
X69161298Y-8377374D01*
X68961339Y-8337600D01*
X68757461Y-8337600D01*
X68666519Y-8355689D01*
X68587656Y-8302995D01*
X68399298Y-8224974D01*
X68199339Y-8185200D01*
X67995461Y-8185200D01*
X67795502Y-8224974D01*
X67607144Y-8302995D01*
X67437626Y-8416263D01*
X67293463Y-8560426D01*
X67180195Y-8729944D01*
X67102174Y-8918302D01*
X67062400Y-9118261D01*
X53530982Y-9118261D01*
X53528912Y-5598800D01*
X68681728Y-5598800D01*
X68681728Y-7298800D01*
X68693988Y-7423282D01*
X68730298Y-7542980D01*
X68789263Y-7653294D01*
X68868615Y-7749985D01*
X68965306Y-7829337D01*
X69075620Y-7888302D01*
X69195318Y-7924612D01*
X69319800Y-7936872D01*
X71019800Y-7936872D01*
X71144282Y-7924612D01*
X71263980Y-7888302D01*
X71374294Y-7829337D01*
X71470985Y-7749985D01*
X71550337Y-7653294D01*
X71609302Y-7542980D01*
X71645612Y-7423282D01*
X71657872Y-7298800D01*
X71657872Y-5598800D01*
X71645612Y-5474318D01*
X71609302Y-5354620D01*
X71550337Y-5244306D01*
X71470985Y-5147615D01*
X71374294Y-5068263D01*
X71263980Y-5009298D01*
X71144282Y-4972988D01*
X71019800Y-4960728D01*
X69319800Y-4960728D01*
X69195318Y-4972988D01*
X69075620Y-5009298D01*
X68965306Y-5068263D01*
X68868615Y-5147615D01*
X68789263Y-5244306D01*
X68730298Y-5354620D01*
X68693988Y-5474318D01*
X68681728Y-5598800D01*
X53528912Y-5598800D01*
X53527818Y-3739693D01*
X53534337Y-3733174D01*
X53647605Y-3563656D01*
X53725626Y-3375298D01*
X53765400Y-3175339D01*
X53765400Y-2971461D01*
X53725626Y-2771502D01*
X53647605Y-2583144D01*
X53576682Y-2477000D01*
X63705244Y-2477000D01*
X63776595Y-2649256D01*
G36*
X43035956Y-4050173D02*
G01*
X43112663Y-4164974D01*
X43256826Y-4309137D01*
X43426344Y-4422405D01*
X43614702Y-4500426D01*
X43814661Y-4540200D01*
X44018539Y-4540200D01*
X44218498Y-4500426D01*
X44277686Y-4475909D01*
X50835011Y-6724135D01*
X50859239Y-6729862D01*
X50875086Y-6730995D01*
X53652915Y-6755362D01*
X53842549Y-9599865D01*
X51377489Y-10775509D01*
X51409774Y-10753937D01*
X51553937Y-10609774D01*
X51667205Y-10440256D01*
X51745226Y-10251898D01*
X51785000Y-10051939D01*
X51785000Y-9848061D01*
X51745226Y-9648102D01*
X51667205Y-9459744D01*
X51553937Y-9290226D01*
X51409774Y-9146063D01*
X51240256Y-9032795D01*
X51051898Y-8954774D01*
X50851939Y-8915000D01*
X50648061Y-8915000D01*
X50448102Y-8954774D01*
X50259744Y-9032795D01*
X50090226Y-9146063D01*
X49946063Y-9290226D01*
X49832795Y-9459744D01*
X49754774Y-9648102D01*
X49715000Y-9848061D01*
X49715000Y-10051939D01*
X49754774Y-10251898D01*
X49832795Y-10440256D01*
X49946063Y-10609774D01*
X50090226Y-10753937D01*
X50259744Y-10867205D01*
X50448102Y-10945226D01*
X50648061Y-10985000D01*
X50851939Y-10985000D01*
X50999976Y-10955554D01*
X50644046Y-11125305D01*
X49216199Y-11130497D01*
X49216199Y-10358465D01*
X49220480Y-10314998D01*
X49216199Y-10271532D01*
X49216199Y-10271522D01*
X49203394Y-10141509D01*
X49152788Y-9974686D01*
X49070610Y-9820940D01*
X48960016Y-9686182D01*
X48937245Y-9667495D01*
X48926426Y-9613102D01*
X48848405Y-9424744D01*
X48735137Y-9255226D01*
X48590974Y-9111063D01*
X48421456Y-8997795D01*
X48233098Y-8919774D01*
X48033139Y-8880000D01*
X47829261Y-8880000D01*
X47629302Y-8919774D01*
X47440944Y-8997795D01*
X47271426Y-9111063D01*
X47127263Y-9255226D01*
X47013995Y-9424744D01*
X46935974Y-9613102D01*
X46896200Y-9813061D01*
X46896200Y-10016939D01*
X46935974Y-10216898D01*
X47013995Y-10405256D01*
X47127263Y-10574774D01*
X47271426Y-10718937D01*
X47440944Y-10832205D01*
X47446199Y-10834382D01*
X47446199Y-11136933D01*
X36702813Y-11176000D01*
X23150910Y-11176000D01*
X22994656Y-11071595D01*
X22806298Y-10993574D01*
X22606339Y-10953800D01*
X22402461Y-10953800D01*
X22202502Y-10993574D01*
X22014144Y-11071595D01*
X21857890Y-11176000D01*
X15341600Y-11176000D01*
X15341600Y-7467261D01*
X19869200Y-7467261D01*
X19869200Y-7671139D01*
X19908974Y-7871098D01*
X19986995Y-8059456D01*
X20100263Y-8228974D01*
X20141391Y-8270102D01*
X20037795Y-8425144D01*
X19959774Y-8613502D01*
X19920000Y-8813461D01*
X19920000Y-9017339D01*
X19959774Y-9217298D01*
X20037795Y-9405656D01*
X20151063Y-9575174D01*
X20295226Y-9719337D01*
X20464744Y-9832605D01*
X20653102Y-9910626D01*
X20853061Y-9950400D01*
X21056939Y-9950400D01*
X21256898Y-9910626D01*
X21445256Y-9832605D01*
X21602016Y-9727861D01*
X29013200Y-9727861D01*
X29013200Y-9931739D01*
X29052974Y-10131698D01*
X29130995Y-10320056D01*
X29244263Y-10489574D01*
X29388426Y-10633737D01*
X29557944Y-10747005D01*
X29746302Y-10825026D01*
X29946261Y-10864800D01*
X30150139Y-10864800D01*
X30350098Y-10825026D01*
X30538456Y-10747005D01*
X30707974Y-10633737D01*
X30852137Y-10489574D01*
X30965405Y-10320056D01*
X31043426Y-10131698D01*
X31083200Y-9931739D01*
X31083200Y-9727861D01*
X31043426Y-9527902D01*
X30965405Y-9339544D01*
X30852137Y-9170026D01*
X30707974Y-9025863D01*
X30538456Y-8912595D01*
X30350098Y-8834574D01*
X30150139Y-8794800D01*
X29946261Y-8794800D01*
X29746302Y-8834574D01*
X29557944Y-8912595D01*
X29388426Y-9025863D01*
X29244263Y-9170026D01*
X29130995Y-9339544D01*
X29052974Y-9527902D01*
X29013200Y-9727861D01*
X21602016Y-9727861D01*
X21614774Y-9719337D01*
X21758937Y-9575174D01*
X21872205Y-9405656D01*
X21950226Y-9217298D01*
X21990000Y-9017339D01*
X21990000Y-8813461D01*
X21950226Y-8613502D01*
X21872205Y-8425144D01*
X21758937Y-8255626D01*
X21717809Y-8214498D01*
X21821405Y-8059456D01*
X21899426Y-7871098D01*
X21939200Y-7671139D01*
X21939200Y-7518061D01*
X31019800Y-7518061D01*
X31019800Y-7721939D01*
X31059574Y-7921898D01*
X31137595Y-8110256D01*
X31250863Y-8279774D01*
X31279556Y-8308467D01*
X31237374Y-8410302D01*
X31197600Y-8610261D01*
X31197600Y-8814139D01*
X31237374Y-9014098D01*
X31315395Y-9202456D01*
X31428663Y-9371974D01*
X31572826Y-9516137D01*
X31742344Y-9629405D01*
X31930702Y-9707426D01*
X32130661Y-9747200D01*
X32334539Y-9747200D01*
X32534498Y-9707426D01*
X32722856Y-9629405D01*
X32892374Y-9516137D01*
X33036537Y-9371974D01*
X33149805Y-9202456D01*
X33227826Y-9014098D01*
X33267600Y-8814139D01*
X33267600Y-8610261D01*
X33227826Y-8410302D01*
X33149805Y-8221944D01*
X33036537Y-8052426D01*
X33007844Y-8023733D01*
X33050026Y-7921898D01*
X33089800Y-7721939D01*
X33089800Y-7518061D01*
X33050026Y-7318102D01*
X32972005Y-7129744D01*
X32858737Y-6960226D01*
X32714574Y-6816063D01*
X32545056Y-6702795D01*
X32356698Y-6624774D01*
X32156739Y-6585000D01*
X31952861Y-6585000D01*
X31752902Y-6624774D01*
X31564544Y-6702795D01*
X31395026Y-6816063D01*
X31250863Y-6960226D01*
X31137595Y-7129744D01*
X31059574Y-7318102D01*
X31019800Y-7518061D01*
X21939200Y-7518061D01*
X21939200Y-7467261D01*
X21899426Y-7267302D01*
X21821405Y-7078944D01*
X21708137Y-6909426D01*
X21563974Y-6765263D01*
X21394456Y-6651995D01*
X21206098Y-6573974D01*
X21006139Y-6534200D01*
X20802261Y-6534200D01*
X20602302Y-6573974D01*
X20413944Y-6651995D01*
X20244426Y-6765263D01*
X20100263Y-6909426D01*
X19986995Y-7078944D01*
X19908974Y-7267302D01*
X19869200Y-7467261D01*
X15341600Y-7467261D01*
X15341600Y-3610473D01*
X33657388Y-3610473D01*
X33657388Y-3814351D01*
X33697162Y-4014310D01*
X33775183Y-4202668D01*
X33888451Y-4372186D01*
X34032614Y-4516349D01*
X34202132Y-4629617D01*
X34390490Y-4707638D01*
X34590449Y-4747412D01*
X34794327Y-4747412D01*
X34994286Y-4707638D01*
X35182644Y-4629617D01*
X35352162Y-4516349D01*
X35496325Y-4372186D01*
X35609593Y-4202668D01*
X35687614Y-4014310D01*
X35727388Y-3814351D01*
X35727388Y-3610473D01*
X35687614Y-3410514D01*
X35609593Y-3222156D01*
X35496325Y-3052638D01*
X35352162Y-2908475D01*
X35182644Y-2795207D01*
X34994286Y-2717186D01*
X34794327Y-2677412D01*
X34590449Y-2677412D01*
X34390490Y-2717186D01*
X34202132Y-2795207D01*
X34032614Y-2908475D01*
X33888451Y-3052638D01*
X33775183Y-3222156D01*
X33697162Y-3410514D01*
X33657388Y-3610473D01*
X15341600Y-3610473D01*
X15341600Y-2209512D01*
X37520175Y-2159048D01*
X43035956Y-4050173D01*
G37*
X43035956Y-4050173D02*
X43112663Y-4164974D01*
X43256826Y-4309137D01*
X43426344Y-4422405D01*
X43614702Y-4500426D01*
X43814661Y-4540200D01*
X44018539Y-4540200D01*
X44218498Y-4500426D01*
X44277686Y-4475909D01*
X50835011Y-6724135D01*
X50859239Y-6729862D01*
X50875086Y-6730995D01*
X53652915Y-6755362D01*
X53842549Y-9599865D01*
X51377489Y-10775509D01*
X51409774Y-10753937D01*
X51553937Y-10609774D01*
X51667205Y-10440256D01*
X51745226Y-10251898D01*
X51785000Y-10051939D01*
X51785000Y-9848061D01*
X51745226Y-9648102D01*
X51667205Y-9459744D01*
X51553937Y-9290226D01*
X51409774Y-9146063D01*
X51240256Y-9032795D01*
X51051898Y-8954774D01*
X50851939Y-8915000D01*
X50648061Y-8915000D01*
X50448102Y-8954774D01*
X50259744Y-9032795D01*
X50090226Y-9146063D01*
X49946063Y-9290226D01*
X49832795Y-9459744D01*
X49754774Y-9648102D01*
X49715000Y-9848061D01*
X49715000Y-10051939D01*
X49754774Y-10251898D01*
X49832795Y-10440256D01*
X49946063Y-10609774D01*
X50090226Y-10753937D01*
X50259744Y-10867205D01*
X50448102Y-10945226D01*
X50648061Y-10985000D01*
X50851939Y-10985000D01*
X50999976Y-10955554D01*
X50644046Y-11125305D01*
X49216199Y-11130497D01*
X49216199Y-10358465D01*
X49220480Y-10314998D01*
X49216199Y-10271532D01*
X49216199Y-10271522D01*
X49203394Y-10141509D01*
X49152788Y-9974686D01*
X49070610Y-9820940D01*
X48960016Y-9686182D01*
X48937245Y-9667495D01*
X48926426Y-9613102D01*
X48848405Y-9424744D01*
X48735137Y-9255226D01*
X48590974Y-9111063D01*
X48421456Y-8997795D01*
X48233098Y-8919774D01*
X48033139Y-8880000D01*
X47829261Y-8880000D01*
X47629302Y-8919774D01*
X47440944Y-8997795D01*
X47271426Y-9111063D01*
X47127263Y-9255226D01*
X47013995Y-9424744D01*
X46935974Y-9613102D01*
X46896200Y-9813061D01*
X46896200Y-10016939D01*
X46935974Y-10216898D01*
X47013995Y-10405256D01*
X47127263Y-10574774D01*
X47271426Y-10718937D01*
X47440944Y-10832205D01*
X47446199Y-10834382D01*
X47446199Y-11136933D01*
X36702813Y-11176000D01*
X23150910Y-11176000D01*
X22994656Y-11071595D01*
X22806298Y-10993574D01*
X22606339Y-10953800D01*
X22402461Y-10953800D01*
X22202502Y-10993574D01*
X22014144Y-11071595D01*
X21857890Y-11176000D01*
X15341600Y-11176000D01*
X15341600Y-7467261D01*
X19869200Y-7467261D01*
X19869200Y-7671139D01*
X19908974Y-7871098D01*
X19986995Y-8059456D01*
X20100263Y-8228974D01*
X20141391Y-8270102D01*
X20037795Y-8425144D01*
X19959774Y-8613502D01*
X19920000Y-8813461D01*
X19920000Y-9017339D01*
X19959774Y-9217298D01*
X20037795Y-9405656D01*
X20151063Y-9575174D01*
X20295226Y-9719337D01*
X20464744Y-9832605D01*
X20653102Y-9910626D01*
X20853061Y-9950400D01*
X21056939Y-9950400D01*
X21256898Y-9910626D01*
X21445256Y-9832605D01*
X21602016Y-9727861D01*
X29013200Y-9727861D01*
X29013200Y-9931739D01*
X29052974Y-10131698D01*
X29130995Y-10320056D01*
X29244263Y-10489574D01*
X29388426Y-10633737D01*
X29557944Y-10747005D01*
X29746302Y-10825026D01*
X29946261Y-10864800D01*
X30150139Y-10864800D01*
X30350098Y-10825026D01*
X30538456Y-10747005D01*
X30707974Y-10633737D01*
X30852137Y-10489574D01*
X30965405Y-10320056D01*
X31043426Y-10131698D01*
X31083200Y-9931739D01*
X31083200Y-9727861D01*
X31043426Y-9527902D01*
X30965405Y-9339544D01*
X30852137Y-9170026D01*
X30707974Y-9025863D01*
X30538456Y-8912595D01*
X30350098Y-8834574D01*
X30150139Y-8794800D01*
X29946261Y-8794800D01*
X29746302Y-8834574D01*
X29557944Y-8912595D01*
X29388426Y-9025863D01*
X29244263Y-9170026D01*
X29130995Y-9339544D01*
X29052974Y-9527902D01*
X29013200Y-9727861D01*
X21602016Y-9727861D01*
X21614774Y-9719337D01*
X21758937Y-9575174D01*
X21872205Y-9405656D01*
X21950226Y-9217298D01*
X21990000Y-9017339D01*
X21990000Y-8813461D01*
X21950226Y-8613502D01*
X21872205Y-8425144D01*
X21758937Y-8255626D01*
X21717809Y-8214498D01*
X21821405Y-8059456D01*
X21899426Y-7871098D01*
X21939200Y-7671139D01*
X21939200Y-7518061D01*
X31019800Y-7518061D01*
X31019800Y-7721939D01*
X31059574Y-7921898D01*
X31137595Y-8110256D01*
X31250863Y-8279774D01*
X31279556Y-8308467D01*
X31237374Y-8410302D01*
X31197600Y-8610261D01*
X31197600Y-8814139D01*
X31237374Y-9014098D01*
X31315395Y-9202456D01*
X31428663Y-9371974D01*
X31572826Y-9516137D01*
X31742344Y-9629405D01*
X31930702Y-9707426D01*
X32130661Y-9747200D01*
X32334539Y-9747200D01*
X32534498Y-9707426D01*
X32722856Y-9629405D01*
X32892374Y-9516137D01*
X33036537Y-9371974D01*
X33149805Y-9202456D01*
X33227826Y-9014098D01*
X33267600Y-8814139D01*
X33267600Y-8610261D01*
X33227826Y-8410302D01*
X33149805Y-8221944D01*
X33036537Y-8052426D01*
X33007844Y-8023733D01*
X33050026Y-7921898D01*
X33089800Y-7721939D01*
X33089800Y-7518061D01*
X33050026Y-7318102D01*
X32972005Y-7129744D01*
X32858737Y-6960226D01*
X32714574Y-6816063D01*
X32545056Y-6702795D01*
X32356698Y-6624774D01*
X32156739Y-6585000D01*
X31952861Y-6585000D01*
X31752902Y-6624774D01*
X31564544Y-6702795D01*
X31395026Y-6816063D01*
X31250863Y-6960226D01*
X31137595Y-7129744D01*
X31059574Y-7318102D01*
X31019800Y-7518061D01*
X21939200Y-7518061D01*
X21939200Y-7467261D01*
X21899426Y-7267302D01*
X21821405Y-7078944D01*
X21708137Y-6909426D01*
X21563974Y-6765263D01*
X21394456Y-6651995D01*
X21206098Y-6573974D01*
X21006139Y-6534200D01*
X20802261Y-6534200D01*
X20602302Y-6573974D01*
X20413944Y-6651995D01*
X20244426Y-6765263D01*
X20100263Y-6909426D01*
X19986995Y-7078944D01*
X19908974Y-7267302D01*
X19869200Y-7467261D01*
X15341600Y-7467261D01*
X15341600Y-3610473D01*
X33657388Y-3610473D01*
X33657388Y-3814351D01*
X33697162Y-4014310D01*
X33775183Y-4202668D01*
X33888451Y-4372186D01*
X34032614Y-4516349D01*
X34202132Y-4629617D01*
X34390490Y-4707638D01*
X34590449Y-4747412D01*
X34794327Y-4747412D01*
X34994286Y-4707638D01*
X35182644Y-4629617D01*
X35352162Y-4516349D01*
X35496325Y-4372186D01*
X35609593Y-4202668D01*
X35687614Y-4014310D01*
X35727388Y-3814351D01*
X35727388Y-3610473D01*
X35687614Y-3410514D01*
X35609593Y-3222156D01*
X35496325Y-3052638D01*
X35352162Y-2908475D01*
X35182644Y-2795207D01*
X34994286Y-2717186D01*
X34794327Y-2677412D01*
X34590449Y-2677412D01*
X34390490Y-2717186D01*
X34202132Y-2795207D01*
X34032614Y-2908475D01*
X33888451Y-3052638D01*
X33775183Y-3222156D01*
X33697162Y-3410514D01*
X33657388Y-3610473D01*
X15341600Y-3610473D01*
X15341600Y-2209512D01*
X37520175Y-2159048D01*
X43035956Y-4050173D01*
M02*
