M48
; DRILL file {KiCad 5.1.5+dfsg1-2build2} date Sat 20 Jul 2024 11:36:21 AM EDT
; FORMAT={-:-/ absolute / inch / decimal}
; #@! TF.CreationDate,2024-07-20T11:36:21-04:00
; #@! TF.GenerationSoftware,Kicad,Pcbnew,5.1.5+dfsg1-2build2
; #@! TF.FileFunction,Plated,1,4,PTH
FMAT,2
INCH
T1C0.0157
T2C0.0236
T3C0.0394
T4C0.0400
T5C0.0600
T6C0.0728
T7C0.0945
T8C0.1000
T9C0.1181
%
G90
G05
T1
X0.419Y-0.089
X0.4311Y-1.4075
X0.4705Y-1.4547
X0.4862Y-1.3996
X0.5217Y-1.502
X0.5335Y-1.4508
X0.5846Y-1.253
X0.5846Y-1.3012
X0.5846Y-1.5059
X0.6299Y-1.0315
X0.632Y-0.216
X0.637Y-0.152
X0.6634Y-0.9724
X0.823Y-0.298
X0.825Y-0.351
X0.828Y-0.416
X0.886Y-0.472
X0.9311Y-1.2854
X0.9862Y-1.3248
X1.0177Y-0.9705
X1.0295Y-1.3248
X1.0335Y-1.1161
X1.0335Y-1.1594
X1.0335Y-1.2008
X1.061Y-0.9705
X1.099Y-1.097
X1.1004Y-0.9705
X1.126Y-1.2441
X1.126Y-1.2933
X1.126Y-1.3425
X1.126Y-1.3898
X1.128Y-1.435
X1.147Y-0.62
X1.157Y-0.143
X1.183Y-0.387
X1.1949Y-0.5846
X1.1949Y-0.6555
X1.23Y-1.122
X1.262Y-0.3
X1.269Y-0.343
X1.344Y-0.436
X1.3658Y-0.1462
X1.401Y-0.581
X1.4843Y-0.7047
X1.4941Y-1.3553
X1.519Y-0.544
X1.5335Y-0.7028
X1.5807Y-0.7028
X1.642Y-0.542
X1.703Y-0.572
X1.7106Y-1.0295
X1.7205Y-1.2144
X1.729Y-0.138
X1.78Y-0.392
X1.7854Y-1.0256
X1.7854Y-1.0768
X1.8871Y-0.3904
X1.9094Y-0.9016
X1.9114Y-0.6909
X1.9114Y-0.7402
X1.9114Y-0.7913
X1.9114Y-0.8465
X1.9232Y-0.9902
X1.9252Y-1.0433
X1.998Y-0.3917
X2.007Y-0.529
X2.0491Y-0.9885
X2.0728Y-1.3484
X2.0728Y-1.4469
X2.076Y-0.121
X2.0768Y-1.2461
X2.0965Y-1.3022
X2.0965Y-1.3957
X2.1151Y-1.079
X2.165Y-0.17
X2.167Y-0.35
X2.1692Y-0.5524
X2.229Y-1.021
X2.2359Y-1.6701
X2.248Y-1.09
X2.251Y-0.791
X2.2558Y-0.4658
X2.271Y-0.94
X2.288Y-1.802
X2.297Y-0.809
X2.3014Y-0.6014
X2.3122Y-0.4737
X2.331Y-0.9422
X2.335Y-1.422
X2.345Y-1.066
X2.3463Y-0.6883
X2.3523Y-0.4363
X2.364Y-0.743
X2.4113Y-0.6095
X2.421Y-1.6
X2.422Y-0.981
X2.4286Y-0.7399
X2.4428Y-0.451
X2.4566Y-0.6942
X2.469Y-0.7826
X2.473Y-1.562
X2.487Y-1.756
X2.488Y-0.973
X2.508Y-1.315
X2.5117Y-0.8989
X2.538Y-1.707
X2.544Y-1.039
X2.547Y-0.085
X2.5511Y-0.8753
X2.58Y-1.093
X2.64Y-1.167
X2.641Y-1.7261
X2.65Y-1.268
X2.678Y-1.008
X2.681Y-0.363
X2.686Y-0.873
X2.693Y-1.704
X2.711Y-0.369
X2.823Y-1.911
X2.83Y-0.766
X2.836Y-0.612
X2.8493Y-1.6253
X2.9Y-1.729
X2.977Y-1.031
X3.019Y-1.165
T2
X1.0591Y-1.5138
T3
X2.955Y-0.728
X2.955Y-0.828
X2.955Y-0.928
X0.393Y-0.793
X0.5322Y-0.6538
X2.7626Y-0.1539
X2.7626Y-0.2539
X2.956Y-0.364
X2.956Y-0.464
X2.956Y-0.564
X0.814Y-0.798
X0.9532Y-0.6588
T4
X2.3127Y-1.926
X2.4308Y-1.926
X2.5489Y-1.926
X2.667Y-1.926
T5
X0.9298Y-1.143
X1.529Y-1.143
T6
X0.4506Y-1.6332
X0.4506Y-1.9088
X0.6474Y-1.6332
X0.6474Y-1.9088
X1.781Y-1.6364
X1.781Y-1.912
X1.9779Y-1.6364
X1.9779Y-1.912
X1.3641Y-1.635
X1.3641Y-1.9106
X1.561Y-1.635
X1.561Y-1.9106
X0.863Y-1.639
X0.863Y-1.9146
X1.0599Y-1.639
X1.0599Y-1.9146
T7
X2.994Y-1.46
X2.994Y-1.722
T8
X0.2382Y-1.6358
X0.2421Y-1.076
X0.2421Y-1.276
X0.2421Y-1.4358
T9
X0.2087Y-0.1811
X0.2087Y-1.8937
X2.9528Y-0.1811
X2.9528Y-1.8937
T0
M30
