G04 #@! TF.GenerationSoftware,KiCad,Pcbnew,5.1.5+dfsg1-2build2*
G04 #@! TF.CreationDate,2024-07-20T11:36:23-04:00*
G04 #@! TF.ProjectId,pypilot_controller,70797069-6c6f-4745-9f63-6f6e74726f6c,rev?*
G04 #@! TF.SameCoordinates,Original*
G04 #@! TF.FileFunction,Soldermask,Bot*
G04 #@! TF.FilePolarity,Negative*
%FSLAX46Y46*%
G04 Gerber Fmt 4.6, Leading zero omitted, Abs format (unit mm)*
G04 Created by KiCad (PCBNEW 5.1.5+dfsg1-2build2) date 2024-07-20 11:36:23*
%MOMM*%
%LPD*%
G04 APERTURE LIST*
%ADD10C,0.100000*%
G04 APERTURE END LIST*
D10*
G36*
X27386903Y-47092086D02*
G01*
X27678083Y-47212697D01*
X27940140Y-47387798D01*
X28163002Y-47610660D01*
X28338103Y-47872717D01*
X28458714Y-48163897D01*
X28520200Y-48473012D01*
X28520200Y-48788188D01*
X28458714Y-49097303D01*
X28338103Y-49388483D01*
X28163002Y-49650540D01*
X27940140Y-49873402D01*
X27678083Y-50048503D01*
X27386903Y-50169114D01*
X27077788Y-50230600D01*
X26762612Y-50230600D01*
X26453497Y-50169114D01*
X26162317Y-50048503D01*
X25900260Y-49873402D01*
X25677398Y-49650540D01*
X25502297Y-49388483D01*
X25381686Y-49097303D01*
X25320200Y-48788188D01*
X25320200Y-48473012D01*
X25381686Y-48163897D01*
X25502297Y-47872717D01*
X25677398Y-47610660D01*
X25900260Y-47387798D01*
X26162317Y-47212697D01*
X26453497Y-47092086D01*
X26762612Y-47030600D01*
X27077788Y-47030600D01*
X27386903Y-47092086D01*
G37*
G36*
X22386903Y-47092086D02*
G01*
X22678083Y-47212697D01*
X22940140Y-47387798D01*
X23163002Y-47610660D01*
X23338103Y-47872717D01*
X23458714Y-48163897D01*
X23520200Y-48473012D01*
X23520200Y-48788188D01*
X23458714Y-49097303D01*
X23338103Y-49388483D01*
X23163002Y-49650540D01*
X22940140Y-49873402D01*
X22678083Y-50048503D01*
X22386903Y-50169114D01*
X22077788Y-50230600D01*
X21762612Y-50230600D01*
X21453497Y-50169114D01*
X21162317Y-50048503D01*
X20900260Y-49873402D01*
X20677398Y-49650540D01*
X20502297Y-49388483D01*
X20381686Y-49097303D01*
X20320200Y-48788188D01*
X20320200Y-48473012D01*
X20381686Y-48163897D01*
X20502297Y-47872717D01*
X20677398Y-47610660D01*
X20900260Y-47387798D01*
X21162317Y-47212697D01*
X21453497Y-47092086D01*
X21762612Y-47030600D01*
X22077788Y-47030600D01*
X22386903Y-47092086D01*
G37*
G36*
X50704103Y-47026286D02*
G01*
X50995283Y-47146897D01*
X51257340Y-47321998D01*
X51480202Y-47544860D01*
X51655303Y-47806917D01*
X51775914Y-48098097D01*
X51837400Y-48407212D01*
X51837400Y-48722388D01*
X51775914Y-49031503D01*
X51655303Y-49322683D01*
X51480202Y-49584740D01*
X51257340Y-49807602D01*
X50995283Y-49982703D01*
X50704103Y-50103314D01*
X50394988Y-50164800D01*
X50079812Y-50164800D01*
X49770697Y-50103314D01*
X49479517Y-49982703D01*
X49217460Y-49807602D01*
X48994598Y-49584740D01*
X48819497Y-49322683D01*
X48698886Y-49031503D01*
X48637400Y-48722388D01*
X48637400Y-48407212D01*
X48698886Y-48098097D01*
X48819497Y-47806917D01*
X48994598Y-47544860D01*
X49217460Y-47321998D01*
X49479517Y-47146897D01*
X49770697Y-47026286D01*
X50079812Y-46964800D01*
X50394988Y-46964800D01*
X50704103Y-47026286D01*
G37*
G36*
X45704103Y-47026286D02*
G01*
X45995283Y-47146897D01*
X46257340Y-47321998D01*
X46480202Y-47544860D01*
X46655303Y-47806917D01*
X46775914Y-48098097D01*
X46837400Y-48407212D01*
X46837400Y-48722388D01*
X46775914Y-49031503D01*
X46655303Y-49322683D01*
X46480202Y-49584740D01*
X46257340Y-49807602D01*
X45995283Y-49982703D01*
X45704103Y-50103314D01*
X45394988Y-50164800D01*
X45079812Y-50164800D01*
X44770697Y-50103314D01*
X44479517Y-49982703D01*
X44217460Y-49807602D01*
X43994598Y-49584740D01*
X43819497Y-49322683D01*
X43698886Y-49031503D01*
X43637400Y-48722388D01*
X43637400Y-48407212D01*
X43698886Y-48098097D01*
X43819497Y-47806917D01*
X43994598Y-47544860D01*
X44217460Y-47321998D01*
X44479517Y-47146897D01*
X44770697Y-47026286D01*
X45079812Y-46964800D01*
X45394988Y-46964800D01*
X45704103Y-47026286D01*
G37*
G36*
X40116103Y-46990486D02*
G01*
X40407283Y-47111097D01*
X40669340Y-47286198D01*
X40892202Y-47509060D01*
X41067303Y-47771117D01*
X41187914Y-48062297D01*
X41249400Y-48371412D01*
X41249400Y-48686588D01*
X41187914Y-48995703D01*
X41067303Y-49286883D01*
X40892202Y-49548940D01*
X40669340Y-49771802D01*
X40407283Y-49946903D01*
X40116103Y-50067514D01*
X39806988Y-50129000D01*
X39491812Y-50129000D01*
X39182697Y-50067514D01*
X38891517Y-49946903D01*
X38629460Y-49771802D01*
X38406598Y-49548940D01*
X38231497Y-49286883D01*
X38110886Y-48995703D01*
X38049400Y-48686588D01*
X38049400Y-48371412D01*
X38110886Y-48062297D01*
X38231497Y-47771117D01*
X38406598Y-47509060D01*
X38629460Y-47286198D01*
X38891517Y-47111097D01*
X39182697Y-46990486D01*
X39491812Y-46929000D01*
X39806988Y-46929000D01*
X40116103Y-46990486D01*
G37*
G36*
X35116103Y-46990486D02*
G01*
X35407283Y-47111097D01*
X35669340Y-47286198D01*
X35892202Y-47509060D01*
X36067303Y-47771117D01*
X36187914Y-48062297D01*
X36249400Y-48371412D01*
X36249400Y-48686588D01*
X36187914Y-48995703D01*
X36067303Y-49286883D01*
X35892202Y-49548940D01*
X35669340Y-49771802D01*
X35407283Y-49946903D01*
X35116103Y-50067514D01*
X34806988Y-50129000D01*
X34491812Y-50129000D01*
X34182697Y-50067514D01*
X33891517Y-49946903D01*
X33629460Y-49771802D01*
X33406598Y-49548940D01*
X33231497Y-49286883D01*
X33110886Y-48995703D01*
X33049400Y-48686588D01*
X33049400Y-48371412D01*
X33110886Y-48062297D01*
X33231497Y-47771117D01*
X33406598Y-47509060D01*
X33629460Y-47286198D01*
X33891517Y-47111097D01*
X34182697Y-46990486D01*
X34491812Y-46929000D01*
X34806988Y-46929000D01*
X35116103Y-46990486D01*
G37*
G36*
X16911303Y-46944886D02*
G01*
X17202483Y-47065497D01*
X17464540Y-47240598D01*
X17687402Y-47463460D01*
X17862503Y-47725517D01*
X17983114Y-48016697D01*
X18044600Y-48325812D01*
X18044600Y-48640988D01*
X17983114Y-48950103D01*
X17862503Y-49241283D01*
X17687402Y-49503340D01*
X17464540Y-49726202D01*
X17202483Y-49901303D01*
X16911303Y-50021914D01*
X16602188Y-50083400D01*
X16287012Y-50083400D01*
X15977897Y-50021914D01*
X15686717Y-49901303D01*
X15424660Y-49726202D01*
X15201798Y-49503340D01*
X15026697Y-49241283D01*
X14906086Y-48950103D01*
X14844600Y-48640988D01*
X14844600Y-48325812D01*
X14906086Y-48016697D01*
X15026697Y-47725517D01*
X15201798Y-47463460D01*
X15424660Y-47240598D01*
X15686717Y-47065497D01*
X15977897Y-46944886D01*
X16287012Y-46883400D01*
X16602188Y-46883400D01*
X16911303Y-46944886D01*
G37*
G36*
X11911303Y-46944886D02*
G01*
X12202483Y-47065497D01*
X12464540Y-47240598D01*
X12687402Y-47463460D01*
X12862503Y-47725517D01*
X12983114Y-48016697D01*
X13044600Y-48325812D01*
X13044600Y-48640988D01*
X12983114Y-48950103D01*
X12862503Y-49241283D01*
X12687402Y-49503340D01*
X12464540Y-49726202D01*
X12202483Y-49901303D01*
X11911303Y-50021914D01*
X11602188Y-50083400D01*
X11287012Y-50083400D01*
X10977897Y-50021914D01*
X10686717Y-49901303D01*
X10424660Y-49726202D01*
X10201798Y-49503340D01*
X10026697Y-49241283D01*
X9906086Y-48950103D01*
X9844600Y-48640988D01*
X9844600Y-48325812D01*
X9906086Y-48016697D01*
X10026697Y-47725517D01*
X10201798Y-47463460D01*
X10424660Y-47240598D01*
X10686717Y-47065497D01*
X10977897Y-46944886D01*
X11287012Y-46883400D01*
X11602188Y-46883400D01*
X11911303Y-46944886D01*
G37*
G36*
X58969090Y-47946019D02*
G01*
X59033489Y-47958829D01*
X59215478Y-48034211D01*
X59379263Y-48143649D01*
X59518551Y-48282937D01*
X59627989Y-48446722D01*
X59703371Y-48628711D01*
X59705813Y-48640988D01*
X59741800Y-48821907D01*
X59741800Y-49018893D01*
X59726203Y-49097303D01*
X59703371Y-49212089D01*
X59627989Y-49394078D01*
X59518551Y-49557863D01*
X59379263Y-49697151D01*
X59215478Y-49806589D01*
X59033489Y-49881971D01*
X58969090Y-49894781D01*
X58840293Y-49920400D01*
X58643307Y-49920400D01*
X58514510Y-49894781D01*
X58450111Y-49881971D01*
X58268122Y-49806589D01*
X58104337Y-49697151D01*
X57965049Y-49557863D01*
X57855611Y-49394078D01*
X57780229Y-49212089D01*
X57757397Y-49097303D01*
X57741800Y-49018893D01*
X57741800Y-48821907D01*
X57777787Y-48640988D01*
X57780229Y-48628711D01*
X57855611Y-48446722D01*
X57965049Y-48282937D01*
X58104337Y-48143649D01*
X58268122Y-48034211D01*
X58450111Y-47958829D01*
X58514510Y-47946019D01*
X58643307Y-47920400D01*
X58840293Y-47920400D01*
X58969090Y-47946019D01*
G37*
G36*
X67969090Y-47946019D02*
G01*
X68033489Y-47958829D01*
X68215478Y-48034211D01*
X68379263Y-48143649D01*
X68518551Y-48282937D01*
X68627989Y-48446722D01*
X68703371Y-48628711D01*
X68705813Y-48640988D01*
X68741800Y-48821907D01*
X68741800Y-49018893D01*
X68726203Y-49097303D01*
X68703371Y-49212089D01*
X68627989Y-49394078D01*
X68518551Y-49557863D01*
X68379263Y-49697151D01*
X68215478Y-49806589D01*
X68033489Y-49881971D01*
X67969090Y-49894781D01*
X67840293Y-49920400D01*
X67643307Y-49920400D01*
X67514510Y-49894781D01*
X67450111Y-49881971D01*
X67268122Y-49806589D01*
X67104337Y-49697151D01*
X66965049Y-49557863D01*
X66855611Y-49394078D01*
X66780229Y-49212089D01*
X66757397Y-49097303D01*
X66741800Y-49018893D01*
X66741800Y-48821907D01*
X66777787Y-48640988D01*
X66780229Y-48628711D01*
X66855611Y-48446722D01*
X66965049Y-48282937D01*
X67104337Y-48143649D01*
X67268122Y-48034211D01*
X67450111Y-47958829D01*
X67514510Y-47946019D01*
X67643307Y-47920400D01*
X67840293Y-47920400D01*
X67969090Y-47946019D01*
G37*
G36*
X64969090Y-47946019D02*
G01*
X65033489Y-47958829D01*
X65215478Y-48034211D01*
X65379263Y-48143649D01*
X65518551Y-48282937D01*
X65627989Y-48446722D01*
X65703371Y-48628711D01*
X65705813Y-48640988D01*
X65741800Y-48821907D01*
X65741800Y-49018893D01*
X65726203Y-49097303D01*
X65703371Y-49212089D01*
X65627989Y-49394078D01*
X65518551Y-49557863D01*
X65379263Y-49697151D01*
X65215478Y-49806589D01*
X65033489Y-49881971D01*
X64969090Y-49894781D01*
X64840293Y-49920400D01*
X64643307Y-49920400D01*
X64514510Y-49894781D01*
X64450111Y-49881971D01*
X64268122Y-49806589D01*
X64104337Y-49697151D01*
X63965049Y-49557863D01*
X63855611Y-49394078D01*
X63780229Y-49212089D01*
X63757397Y-49097303D01*
X63741800Y-49018893D01*
X63741800Y-48821907D01*
X63777787Y-48640988D01*
X63780229Y-48628711D01*
X63855611Y-48446722D01*
X63965049Y-48282937D01*
X64104337Y-48143649D01*
X64268122Y-48034211D01*
X64450111Y-47958829D01*
X64514510Y-47946019D01*
X64643307Y-47920400D01*
X64840293Y-47920400D01*
X64969090Y-47946019D01*
G37*
G36*
X61969090Y-47946019D02*
G01*
X62033489Y-47958829D01*
X62215478Y-48034211D01*
X62379263Y-48143649D01*
X62518551Y-48282937D01*
X62627989Y-48446722D01*
X62703371Y-48628711D01*
X62705813Y-48640988D01*
X62741800Y-48821907D01*
X62741800Y-49018893D01*
X62726203Y-49097303D01*
X62703371Y-49212089D01*
X62627989Y-49394078D01*
X62518551Y-49557863D01*
X62379263Y-49697151D01*
X62215478Y-49806589D01*
X62033489Y-49881971D01*
X61969090Y-49894781D01*
X61840293Y-49920400D01*
X61643307Y-49920400D01*
X61514510Y-49894781D01*
X61450111Y-49881971D01*
X61268122Y-49806589D01*
X61104337Y-49697151D01*
X60965049Y-49557863D01*
X60855611Y-49394078D01*
X60780229Y-49212089D01*
X60757397Y-49097303D01*
X60741800Y-49018893D01*
X60741800Y-48821907D01*
X60777787Y-48640988D01*
X60780229Y-48628711D01*
X60855611Y-48446722D01*
X60965049Y-48282937D01*
X61104337Y-48143649D01*
X61268122Y-48034211D01*
X61450111Y-47958829D01*
X61514510Y-47946019D01*
X61643307Y-47920400D01*
X61840293Y-47920400D01*
X61969090Y-47946019D01*
G37*
G36*
X6624627Y-39655705D02*
G01*
X6983143Y-39804208D01*
X6983145Y-39804209D01*
X7305802Y-40019801D01*
X7580199Y-40294198D01*
X7795791Y-40616855D01*
X7795792Y-40616857D01*
X7944295Y-40975373D01*
X8020000Y-41355971D01*
X8020000Y-41744029D01*
X7944295Y-42124627D01*
X7835001Y-42388484D01*
X7795791Y-42483145D01*
X7580199Y-42805802D01*
X7305802Y-43080199D01*
X6983145Y-43295791D01*
X6983144Y-43295792D01*
X6983143Y-43295792D01*
X6624627Y-43444295D01*
X6244029Y-43520000D01*
X5855971Y-43520000D01*
X5475373Y-43444295D01*
X5116857Y-43295792D01*
X5116856Y-43295792D01*
X5116855Y-43295791D01*
X4794198Y-43080199D01*
X4519801Y-42805802D01*
X4304209Y-42483145D01*
X4264999Y-42388484D01*
X4155705Y-42124627D01*
X4080000Y-41744029D01*
X4080000Y-41355971D01*
X4155705Y-40975373D01*
X4304208Y-40616857D01*
X4304209Y-40616855D01*
X4519801Y-40294198D01*
X4794198Y-40019801D01*
X5116855Y-39804209D01*
X5116857Y-39804208D01*
X5475373Y-39655705D01*
X5855971Y-39580000D01*
X6244029Y-39580000D01*
X6624627Y-39655705D01*
G37*
G36*
X27386903Y-40092086D02*
G01*
X27678083Y-40212697D01*
X27940140Y-40387798D01*
X28163002Y-40610660D01*
X28338103Y-40872717D01*
X28458714Y-41163897D01*
X28520200Y-41473012D01*
X28520200Y-41788188D01*
X28458714Y-42097303D01*
X28338103Y-42388483D01*
X28163002Y-42650540D01*
X27940140Y-42873402D01*
X27678083Y-43048503D01*
X27386903Y-43169114D01*
X27077788Y-43230600D01*
X26762612Y-43230600D01*
X26453497Y-43169114D01*
X26162317Y-43048503D01*
X25900260Y-42873402D01*
X25677398Y-42650540D01*
X25502297Y-42388483D01*
X25381686Y-42097303D01*
X25320200Y-41788188D01*
X25320200Y-41473012D01*
X25381686Y-41163897D01*
X25502297Y-40872717D01*
X25677398Y-40610660D01*
X25900260Y-40387798D01*
X26162317Y-40212697D01*
X26453497Y-40092086D01*
X26762612Y-40030600D01*
X27077788Y-40030600D01*
X27386903Y-40092086D01*
G37*
G36*
X22386903Y-40092086D02*
G01*
X22678083Y-40212697D01*
X22940140Y-40387798D01*
X23163002Y-40610660D01*
X23338103Y-40872717D01*
X23458714Y-41163897D01*
X23520200Y-41473012D01*
X23520200Y-41788188D01*
X23458714Y-42097303D01*
X23338103Y-42388483D01*
X23163002Y-42650540D01*
X22940140Y-42873402D01*
X22678083Y-43048503D01*
X22386903Y-43169114D01*
X22077788Y-43230600D01*
X21762612Y-43230600D01*
X21453497Y-43169114D01*
X21162317Y-43048503D01*
X20900260Y-42873402D01*
X20677398Y-42650540D01*
X20502297Y-42388483D01*
X20381686Y-42097303D01*
X20320200Y-41788188D01*
X20320200Y-41473012D01*
X20381686Y-41163897D01*
X20502297Y-40872717D01*
X20677398Y-40610660D01*
X20900260Y-40387798D01*
X21162317Y-40212697D01*
X21453497Y-40092086D01*
X21762612Y-40030600D01*
X22077788Y-40030600D01*
X22386903Y-40092086D01*
G37*
G36*
X45704103Y-40026286D02*
G01*
X45995283Y-40146897D01*
X46257340Y-40321998D01*
X46480202Y-40544860D01*
X46655303Y-40806917D01*
X46775914Y-41098097D01*
X46837400Y-41407212D01*
X46837400Y-41722388D01*
X46775914Y-42031503D01*
X46655303Y-42322683D01*
X46480202Y-42584740D01*
X46257340Y-42807602D01*
X45995283Y-42982703D01*
X45704103Y-43103314D01*
X45394988Y-43164800D01*
X45079812Y-43164800D01*
X44770697Y-43103314D01*
X44479517Y-42982703D01*
X44217460Y-42807602D01*
X43994598Y-42584740D01*
X43819497Y-42322683D01*
X43698886Y-42031503D01*
X43637400Y-41722388D01*
X43637400Y-41407212D01*
X43698886Y-41098097D01*
X43819497Y-40806917D01*
X43994598Y-40544860D01*
X44217460Y-40321998D01*
X44479517Y-40146897D01*
X44770697Y-40026286D01*
X45079812Y-39964800D01*
X45394988Y-39964800D01*
X45704103Y-40026286D01*
G37*
G36*
X50704103Y-40026286D02*
G01*
X50995283Y-40146897D01*
X51257340Y-40321998D01*
X51480202Y-40544860D01*
X51655303Y-40806917D01*
X51775914Y-41098097D01*
X51837400Y-41407212D01*
X51837400Y-41722388D01*
X51775914Y-42031503D01*
X51655303Y-42322683D01*
X51480202Y-42584740D01*
X51257340Y-42807602D01*
X50995283Y-42982703D01*
X50704103Y-43103314D01*
X50394988Y-43164800D01*
X50079812Y-43164800D01*
X49770697Y-43103314D01*
X49479517Y-42982703D01*
X49217460Y-42807602D01*
X48994598Y-42584740D01*
X48819497Y-42322683D01*
X48698886Y-42031503D01*
X48637400Y-41722388D01*
X48637400Y-41407212D01*
X48698886Y-41098097D01*
X48819497Y-40806917D01*
X48994598Y-40544860D01*
X49217460Y-40321998D01*
X49479517Y-40146897D01*
X49770697Y-40026286D01*
X50079812Y-39964800D01*
X50394988Y-39964800D01*
X50704103Y-40026286D01*
G37*
G36*
X35116103Y-39990486D02*
G01*
X35407283Y-40111097D01*
X35669340Y-40286198D01*
X35892202Y-40509060D01*
X36067303Y-40771117D01*
X36187914Y-41062297D01*
X36249400Y-41371412D01*
X36249400Y-41686588D01*
X36187914Y-41995703D01*
X36067303Y-42286883D01*
X35892202Y-42548940D01*
X35669340Y-42771802D01*
X35407283Y-42946903D01*
X35116103Y-43067514D01*
X34806988Y-43129000D01*
X34491812Y-43129000D01*
X34182697Y-43067514D01*
X33891517Y-42946903D01*
X33629460Y-42771802D01*
X33406598Y-42548940D01*
X33231497Y-42286883D01*
X33110886Y-41995703D01*
X33049400Y-41686588D01*
X33049400Y-41371412D01*
X33110886Y-41062297D01*
X33231497Y-40771117D01*
X33406598Y-40509060D01*
X33629460Y-40286198D01*
X33891517Y-40111097D01*
X34182697Y-39990486D01*
X34491812Y-39929000D01*
X34806988Y-39929000D01*
X35116103Y-39990486D01*
G37*
G36*
X40116103Y-39990486D02*
G01*
X40407283Y-40111097D01*
X40669340Y-40286198D01*
X40892202Y-40509060D01*
X41067303Y-40771117D01*
X41187914Y-41062297D01*
X41249400Y-41371412D01*
X41249400Y-41686588D01*
X41187914Y-41995703D01*
X41067303Y-42286883D01*
X40892202Y-42548940D01*
X40669340Y-42771802D01*
X40407283Y-42946903D01*
X40116103Y-43067514D01*
X39806988Y-43129000D01*
X39491812Y-43129000D01*
X39182697Y-43067514D01*
X38891517Y-42946903D01*
X38629460Y-42771802D01*
X38406598Y-42548940D01*
X38231497Y-42286883D01*
X38110886Y-41995703D01*
X38049400Y-41686588D01*
X38049400Y-41371412D01*
X38110886Y-41062297D01*
X38231497Y-40771117D01*
X38406598Y-40509060D01*
X38629460Y-40286198D01*
X38891517Y-40111097D01*
X39182697Y-39990486D01*
X39491812Y-39929000D01*
X39806988Y-39929000D01*
X40116103Y-39990486D01*
G37*
G36*
X16911303Y-39944886D02*
G01*
X17202483Y-40065497D01*
X17464540Y-40240598D01*
X17687402Y-40463460D01*
X17862503Y-40725517D01*
X17983114Y-41016697D01*
X18044600Y-41325812D01*
X18044600Y-41640988D01*
X17983114Y-41950103D01*
X17862503Y-42241283D01*
X17687402Y-42503340D01*
X17464540Y-42726202D01*
X17202483Y-42901303D01*
X16911303Y-43021914D01*
X16602188Y-43083400D01*
X16287012Y-43083400D01*
X15977897Y-43021914D01*
X15686717Y-42901303D01*
X15424660Y-42726202D01*
X15201798Y-42503340D01*
X15026697Y-42241283D01*
X14906086Y-41950103D01*
X14844600Y-41640988D01*
X14844600Y-41325812D01*
X14906086Y-41016697D01*
X15026697Y-40725517D01*
X15201798Y-40463460D01*
X15424660Y-40240598D01*
X15686717Y-40065497D01*
X15977897Y-39944886D01*
X16287012Y-39883400D01*
X16602188Y-39883400D01*
X16911303Y-39944886D01*
G37*
G36*
X11911303Y-39944886D02*
G01*
X12202483Y-40065497D01*
X12464540Y-40240598D01*
X12687402Y-40463460D01*
X12862503Y-40725517D01*
X12983114Y-41016697D01*
X13044600Y-41325812D01*
X13044600Y-41640988D01*
X12983114Y-41950103D01*
X12862503Y-42241283D01*
X12687402Y-42503340D01*
X12464540Y-42726202D01*
X12202483Y-42901303D01*
X11911303Y-43021914D01*
X11602188Y-43083400D01*
X11287012Y-43083400D01*
X10977897Y-43021914D01*
X10686717Y-42901303D01*
X10424660Y-42726202D01*
X10201798Y-42503340D01*
X10026697Y-42241283D01*
X9906086Y-41950103D01*
X9844600Y-41640988D01*
X9844600Y-41325812D01*
X9906086Y-41016697D01*
X10026697Y-40725517D01*
X10201798Y-40463460D01*
X10424660Y-40240598D01*
X10686717Y-40065497D01*
X10977897Y-39944886D01*
X11287012Y-39883400D01*
X11602188Y-39883400D01*
X11911303Y-39944886D01*
G37*
G36*
X6724627Y-30515705D02*
G01*
X7083143Y-30664208D01*
X7083145Y-30664209D01*
X7405802Y-30879801D01*
X7680199Y-31154198D01*
X7895791Y-31476855D01*
X7895792Y-31476857D01*
X8044295Y-31835373D01*
X8120000Y-32215971D01*
X8120000Y-32604029D01*
X8044295Y-32984627D01*
X7895792Y-33343143D01*
X7895791Y-33343145D01*
X7680199Y-33665802D01*
X7405802Y-33940199D01*
X7083145Y-34155791D01*
X7083144Y-34155792D01*
X7083143Y-34155792D01*
X6724627Y-34304295D01*
X6658728Y-34317403D01*
X6635279Y-34324516D01*
X6613669Y-34336067D01*
X6594727Y-34351612D01*
X6579181Y-34370554D01*
X6567630Y-34392165D01*
X6560517Y-34415614D01*
X6558115Y-34440000D01*
X6560517Y-34464386D01*
X6567630Y-34487835D01*
X6579181Y-34509445D01*
X6594726Y-34528387D01*
X6613668Y-34543933D01*
X6635279Y-34555484D01*
X6658728Y-34562597D01*
X6724627Y-34575705D01*
X7083143Y-34724208D01*
X7083145Y-34724209D01*
X7405802Y-34939801D01*
X7680199Y-35214198D01*
X7895791Y-35536855D01*
X7895792Y-35536857D01*
X8044295Y-35895373D01*
X8120000Y-36275971D01*
X8120000Y-36664029D01*
X8044295Y-37044627D01*
X7895792Y-37403143D01*
X7895791Y-37403145D01*
X7680199Y-37725802D01*
X7405802Y-38000199D01*
X7083145Y-38215791D01*
X7083144Y-38215792D01*
X7083143Y-38215792D01*
X6724627Y-38364295D01*
X6344029Y-38440000D01*
X5955971Y-38440000D01*
X5575373Y-38364295D01*
X5216857Y-38215792D01*
X5216856Y-38215792D01*
X5216855Y-38215791D01*
X4894198Y-38000199D01*
X4619801Y-37725802D01*
X4404209Y-37403145D01*
X4404208Y-37403143D01*
X4255705Y-37044627D01*
X4180000Y-36664029D01*
X4180000Y-36275971D01*
X4255705Y-35895373D01*
X4404208Y-35536857D01*
X4404209Y-35536855D01*
X4619801Y-35214198D01*
X4894198Y-34939801D01*
X5216855Y-34724209D01*
X5216857Y-34724208D01*
X5575373Y-34575705D01*
X5641272Y-34562597D01*
X5664721Y-34555484D01*
X5686331Y-34543933D01*
X5705273Y-34528388D01*
X5720819Y-34509446D01*
X5732370Y-34487835D01*
X5739483Y-34464386D01*
X5741885Y-34440000D01*
X5739483Y-34415614D01*
X5732370Y-34392165D01*
X5720819Y-34370555D01*
X5705274Y-34351613D01*
X5686332Y-34336067D01*
X5664721Y-34324516D01*
X5641272Y-34317403D01*
X5575373Y-34304295D01*
X5216857Y-34155792D01*
X5216856Y-34155792D01*
X5216855Y-34155791D01*
X4894198Y-33940199D01*
X4619801Y-33665802D01*
X4404209Y-33343145D01*
X4404208Y-33343143D01*
X4255705Y-32984627D01*
X4180000Y-32604029D01*
X4180000Y-32215971D01*
X4255705Y-31835373D01*
X4404208Y-31476857D01*
X4404209Y-31476855D01*
X4619801Y-31154198D01*
X4894198Y-30879801D01*
X5216855Y-30664209D01*
X5216857Y-30664208D01*
X5575373Y-30515705D01*
X5955971Y-30440000D01*
X6344029Y-30440000D01*
X6724627Y-30515705D01*
G37*
G36*
X39201210Y-27830236D02*
G01*
X39428695Y-27924464D01*
X39428697Y-27924465D01*
X39633428Y-28061262D01*
X39807538Y-28235372D01*
X39944336Y-28440105D01*
X40038564Y-28667590D01*
X40086600Y-28909084D01*
X40086600Y-29155316D01*
X40038564Y-29396810D01*
X39944336Y-29624295D01*
X39944335Y-29624297D01*
X39807538Y-29829028D01*
X39633428Y-30003138D01*
X39428697Y-30139935D01*
X39428696Y-30139936D01*
X39428695Y-30139936D01*
X39201210Y-30234164D01*
X38959716Y-30282200D01*
X38713484Y-30282200D01*
X38471990Y-30234164D01*
X38244505Y-30139936D01*
X38244504Y-30139936D01*
X38244503Y-30139935D01*
X38039772Y-30003138D01*
X37865662Y-29829028D01*
X37728865Y-29624297D01*
X37728864Y-29624295D01*
X37634636Y-29396810D01*
X37586600Y-29155316D01*
X37586600Y-28909084D01*
X37634636Y-28667590D01*
X37728864Y-28440105D01*
X37865662Y-28235372D01*
X38039772Y-28061262D01*
X38244503Y-27924465D01*
X38244505Y-27924464D01*
X38471990Y-27830236D01*
X38713484Y-27782200D01*
X38959716Y-27782200D01*
X39201210Y-27830236D01*
G37*
G36*
X23981210Y-27830236D02*
G01*
X24208695Y-27924464D01*
X24208697Y-27924465D01*
X24413428Y-28061262D01*
X24587538Y-28235372D01*
X24724336Y-28440105D01*
X24818564Y-28667590D01*
X24866600Y-28909084D01*
X24866600Y-29155316D01*
X24818564Y-29396810D01*
X24724336Y-29624295D01*
X24724335Y-29624297D01*
X24587538Y-29829028D01*
X24413428Y-30003138D01*
X24208697Y-30139935D01*
X24208696Y-30139936D01*
X24208695Y-30139936D01*
X23981210Y-30234164D01*
X23739716Y-30282200D01*
X23493484Y-30282200D01*
X23251990Y-30234164D01*
X23024505Y-30139936D01*
X23024504Y-30139936D01*
X23024503Y-30139935D01*
X22819772Y-30003138D01*
X22645662Y-29829028D01*
X22508865Y-29624297D01*
X22508864Y-29624295D01*
X22414636Y-29396810D01*
X22366600Y-29155316D01*
X22366600Y-28909084D01*
X22414636Y-28667590D01*
X22508864Y-28440105D01*
X22645662Y-28235372D01*
X22819772Y-28061262D01*
X23024503Y-27924465D01*
X23024505Y-27924464D01*
X23251990Y-27830236D01*
X23493484Y-27782200D01*
X23739716Y-27782200D01*
X23981210Y-27830236D01*
G37*
G36*
X6724627Y-25435705D02*
G01*
X7083143Y-25584208D01*
X7083145Y-25584209D01*
X7405802Y-25799801D01*
X7680199Y-26074198D01*
X7895791Y-26396855D01*
X7895792Y-26396857D01*
X8044295Y-26755373D01*
X8120000Y-27135971D01*
X8120000Y-27524029D01*
X8044295Y-27904627D01*
X7979414Y-28061262D01*
X7895791Y-28263145D01*
X7680199Y-28585802D01*
X7405802Y-28860199D01*
X7083145Y-29075791D01*
X7083144Y-29075792D01*
X7083143Y-29075792D01*
X6724627Y-29224295D01*
X6344029Y-29300000D01*
X5955971Y-29300000D01*
X5575373Y-29224295D01*
X5216857Y-29075792D01*
X5216856Y-29075792D01*
X5216855Y-29075791D01*
X4894198Y-28860199D01*
X4619801Y-28585802D01*
X4404209Y-28263145D01*
X4320586Y-28061262D01*
X4255705Y-27904627D01*
X4180000Y-27524029D01*
X4180000Y-27135971D01*
X4255705Y-26755373D01*
X4404208Y-26396857D01*
X4404209Y-26396855D01*
X4619801Y-26074198D01*
X4894198Y-25799801D01*
X5216855Y-25584209D01*
X5216857Y-25584208D01*
X5575373Y-25435705D01*
X5955971Y-25360000D01*
X6344029Y-25360000D01*
X6724627Y-25435705D01*
G37*
G36*
X76107000Y-24621200D02*
G01*
X74007000Y-24621200D01*
X74007000Y-22521200D01*
X76107000Y-22521200D01*
X76107000Y-24621200D01*
G37*
G36*
X75185687Y-19986227D02*
G01*
X75363274Y-20021550D01*
X75554362Y-20100702D01*
X75726336Y-20215611D01*
X75872589Y-20361864D01*
X75987498Y-20533838D01*
X76066650Y-20724926D01*
X76107000Y-20927784D01*
X76107000Y-21134616D01*
X76066650Y-21337474D01*
X75987498Y-21528562D01*
X75872589Y-21700536D01*
X75726336Y-21846789D01*
X75554362Y-21961698D01*
X75363274Y-22040850D01*
X75185687Y-22076173D01*
X75160417Y-22081200D01*
X74953583Y-22081200D01*
X74928313Y-22076173D01*
X74750726Y-22040850D01*
X74559638Y-21961698D01*
X74387664Y-21846789D01*
X74241411Y-21700536D01*
X74126502Y-21528562D01*
X74047350Y-21337474D01*
X74007000Y-21134616D01*
X74007000Y-20927784D01*
X74047350Y-20724926D01*
X74126502Y-20533838D01*
X74241411Y-20361864D01*
X74387664Y-20215611D01*
X74559638Y-20100702D01*
X74750726Y-20021550D01*
X74928313Y-19986227D01*
X74953583Y-19981200D01*
X75160417Y-19981200D01*
X75185687Y-19986227D01*
G37*
G36*
X22372656Y-20269200D02*
G01*
X20675600Y-21966256D01*
X18978544Y-20269200D01*
X20675600Y-18572144D01*
X22372656Y-20269200D01*
G37*
G36*
X11679256Y-20142200D02*
G01*
X9982200Y-21839256D01*
X8285144Y-20142200D01*
X9982200Y-18445144D01*
X11679256Y-20142200D01*
G37*
G36*
X75185687Y-17446227D02*
G01*
X75363274Y-17481550D01*
X75554362Y-17560702D01*
X75726336Y-17675611D01*
X75872589Y-17821864D01*
X75987498Y-17993838D01*
X76066650Y-18184926D01*
X76107000Y-18387784D01*
X76107000Y-18594616D01*
X76066650Y-18797474D01*
X75987498Y-18988562D01*
X75872589Y-19160536D01*
X75726336Y-19306789D01*
X75554362Y-19421698D01*
X75363274Y-19500850D01*
X75185687Y-19536173D01*
X75160417Y-19541200D01*
X74953583Y-19541200D01*
X74928313Y-19536173D01*
X74750726Y-19500850D01*
X74559638Y-19421698D01*
X74387664Y-19306789D01*
X74241411Y-19160536D01*
X74126502Y-18988562D01*
X74047350Y-18797474D01*
X74007000Y-18594616D01*
X74007000Y-18387784D01*
X74047350Y-18184926D01*
X74126502Y-17993838D01*
X74241411Y-17821864D01*
X74387664Y-17675611D01*
X74559638Y-17560702D01*
X74750726Y-17481550D01*
X74928313Y-17446227D01*
X74953583Y-17441200D01*
X75160417Y-17441200D01*
X75185687Y-17446227D01*
G37*
G36*
X24561160Y-15579781D02*
G01*
X24779545Y-15670239D01*
X24779547Y-15670240D01*
X24976089Y-15801565D01*
X25143235Y-15968711D01*
X25274561Y-16165255D01*
X25365019Y-16383640D01*
X25411134Y-16615475D01*
X25411134Y-16851857D01*
X25365019Y-17083692D01*
X25327166Y-17175077D01*
X25274560Y-17302079D01*
X25143235Y-17498621D01*
X24976089Y-17665767D01*
X24779547Y-17797092D01*
X24779546Y-17797093D01*
X24779545Y-17797093D01*
X24561160Y-17887551D01*
X24329325Y-17933666D01*
X24092943Y-17933666D01*
X23861108Y-17887551D01*
X23642723Y-17797093D01*
X23642722Y-17797093D01*
X23642721Y-17797092D01*
X23446179Y-17665767D01*
X23279033Y-17498621D01*
X23147708Y-17302079D01*
X23095102Y-17175077D01*
X23057249Y-17083692D01*
X23011134Y-16851857D01*
X23011134Y-16615475D01*
X23057249Y-16383640D01*
X23147707Y-16165255D01*
X23279033Y-15968711D01*
X23446179Y-15801565D01*
X23642721Y-15670240D01*
X23642723Y-15670239D01*
X23861108Y-15579781D01*
X24092943Y-15533666D01*
X24329325Y-15533666D01*
X24561160Y-15579781D01*
G37*
G36*
X13867760Y-15452781D02*
G01*
X14086145Y-15543239D01*
X14086147Y-15543240D01*
X14282689Y-15674565D01*
X14449835Y-15841711D01*
X14534694Y-15968711D01*
X14581161Y-16038255D01*
X14671619Y-16256640D01*
X14717734Y-16488475D01*
X14717734Y-16724857D01*
X14671619Y-16956692D01*
X14619014Y-17083692D01*
X14581160Y-17175079D01*
X14449835Y-17371621D01*
X14282689Y-17538767D01*
X14086147Y-17670092D01*
X14086146Y-17670093D01*
X14086145Y-17670093D01*
X13867760Y-17760551D01*
X13635925Y-17806666D01*
X13399543Y-17806666D01*
X13167708Y-17760551D01*
X12949323Y-17670093D01*
X12949322Y-17670093D01*
X12949321Y-17670092D01*
X12752779Y-17538767D01*
X12585633Y-17371621D01*
X12454308Y-17175079D01*
X12416454Y-17083692D01*
X12363849Y-16956692D01*
X12317734Y-16724857D01*
X12317734Y-16488475D01*
X12363849Y-16256640D01*
X12454307Y-16038255D01*
X12500775Y-15968711D01*
X12585633Y-15841711D01*
X12752779Y-15674565D01*
X12949321Y-15543240D01*
X12949323Y-15543239D01*
X13167708Y-15452781D01*
X13399543Y-15406666D01*
X13635925Y-15406666D01*
X13867760Y-15452781D01*
G37*
G36*
X76132400Y-15375600D02*
G01*
X74032400Y-15375600D01*
X74032400Y-13275600D01*
X76132400Y-13275600D01*
X76132400Y-15375600D01*
G37*
G36*
X75211087Y-10740627D02*
G01*
X75388674Y-10775950D01*
X75579762Y-10855102D01*
X75751736Y-10970011D01*
X75897989Y-11116264D01*
X76012898Y-11288238D01*
X76092050Y-11479326D01*
X76132400Y-11682184D01*
X76132400Y-11889016D01*
X76092050Y-12091874D01*
X76012898Y-12282962D01*
X75897989Y-12454936D01*
X75751736Y-12601189D01*
X75579762Y-12716098D01*
X75388674Y-12795250D01*
X75211087Y-12830573D01*
X75185817Y-12835600D01*
X74978983Y-12835600D01*
X74953713Y-12830573D01*
X74776126Y-12795250D01*
X74585038Y-12716098D01*
X74413064Y-12601189D01*
X74266811Y-12454936D01*
X74151902Y-12282962D01*
X74072750Y-12091874D01*
X74032400Y-11889016D01*
X74032400Y-11682184D01*
X74072750Y-11479326D01*
X74151902Y-11288238D01*
X74266811Y-11116264D01*
X74413064Y-10970011D01*
X74585038Y-10855102D01*
X74776126Y-10775950D01*
X74953713Y-10740627D01*
X74978983Y-10735600D01*
X75185817Y-10735600D01*
X75211087Y-10740627D01*
G37*
G36*
X75211087Y-8200627D02*
G01*
X75388674Y-8235950D01*
X75579762Y-8315102D01*
X75751736Y-8430011D01*
X75897989Y-8576264D01*
X76012898Y-8748238D01*
X76092050Y-8939326D01*
X76132400Y-9142184D01*
X76132400Y-9349016D01*
X76092050Y-9551874D01*
X76012898Y-9742962D01*
X75897989Y-9914936D01*
X75751736Y-10061189D01*
X75579762Y-10176098D01*
X75388674Y-10255250D01*
X75211087Y-10290573D01*
X75185817Y-10295600D01*
X74978983Y-10295600D01*
X74953713Y-10290573D01*
X74776126Y-10255250D01*
X74585038Y-10176098D01*
X74413064Y-10061189D01*
X74266811Y-9914936D01*
X74151902Y-9742962D01*
X74072750Y-9551874D01*
X74032400Y-9349016D01*
X74032400Y-9142184D01*
X74072750Y-8939326D01*
X74151902Y-8748238D01*
X74266811Y-8576264D01*
X74413064Y-8430011D01*
X74585038Y-8315102D01*
X74776126Y-8235950D01*
X74953713Y-8200627D01*
X74978983Y-8195600D01*
X75185817Y-8195600D01*
X75211087Y-8200627D01*
G37*
G36*
X71219800Y-7498800D02*
G01*
X69119800Y-7498800D01*
X69119800Y-5398800D01*
X71219800Y-5398800D01*
X71219800Y-7498800D01*
G37*
G36*
X70298487Y-2863827D02*
G01*
X70476074Y-2899150D01*
X70667162Y-2978302D01*
X70839136Y-3093211D01*
X70985389Y-3239464D01*
X71100298Y-3411438D01*
X71179450Y-3602526D01*
X71219800Y-3805384D01*
X71219800Y-4012216D01*
X71179450Y-4215074D01*
X71100298Y-4406162D01*
X70985389Y-4578136D01*
X70839136Y-4724389D01*
X70667162Y-4839298D01*
X70476074Y-4918450D01*
X70298487Y-4953773D01*
X70273217Y-4958800D01*
X70066383Y-4958800D01*
X70041113Y-4953773D01*
X69863526Y-4918450D01*
X69672438Y-4839298D01*
X69500464Y-4724389D01*
X69354211Y-4578136D01*
X69239302Y-4406162D01*
X69160150Y-4215074D01*
X69119800Y-4012216D01*
X69119800Y-3805384D01*
X69160150Y-3602526D01*
X69239302Y-3411438D01*
X69354211Y-3239464D01*
X69500464Y-3093211D01*
X69672438Y-2978302D01*
X69863526Y-2899150D01*
X70041113Y-2863827D01*
X70066383Y-2858800D01*
X70273217Y-2858800D01*
X70298487Y-2863827D01*
G37*
M02*
